<svg xmlns="http://www.w3.org/2000/svg" xmlns:xlink="http://www.w3.org/1999/xlink" width="500" zoomAndPan="magnify" viewBox="0 0 375 374.999991" height="500" preserveAspectRatio="xMidYMid meet" version="1.0"><defs><clipPath id="c773252f55"><path d="M 43.488281 0 L 331 0 L 331 375 L 43.488281 375 Z M 43.488281 0 " clip-rule="nonzero"/></clipPath></defs><path fill="#c6e8ff" d="M 318.996094 88.234375 L 241.878906 88.234375 L 241.878906 11.03125 Z M 318.996094 88.234375 " fill-opacity="1" fill-rule="nonzero"/><path fill="#dff8fc" d="M 318.996094 88.234375 L 318.996094 320.589844 C 318.996094 344.542969 299.59375 363.96875 275.664062 363.96875 L 97.933594 363.96875 C 74.003906 363.96875 54.601562 344.542969 54.601562 320.589844 L 54.601562 54.410156 C 54.601562 30.457031 74.003906 11.03125 97.933594 11.03125 L 241.878906 11.03125 L 263.914062 64.410156 Z M 318.996094 88.234375 " fill-opacity="1" fill-rule="nonzero"/><g clip-path="url(#c773252f55)"><path fill="#000000" d="M 328.785156 83.1875 C 327.585938 80.847656 332.105469 85.882812 249.671875 3.230469 C 247.59375 1.148438 244.777344 0 241.878906 0 L 97.933594 0 C 67.964844 0 43.585938 24.410156 43.585938 54.410156 L 43.585938 320.589844 C 43.585938 350.589844 67.964844 375 97.933594 375 L 275.664062 375 C 305.632812 375 330.011719 350.589844 330.011719 320.589844 L 330.011719 88.234375 C 330.011719 86.570312 329.617188 84.804688 328.785156 83.1875 Z M 252.898438 37.65625 L 292.398438 77.207031 L 252.898438 77.207031 Z M 275.664062 352.941406 L 97.933594 352.941406 C 80.113281 352.941406 65.617188 338.429688 65.617188 320.589844 L 65.617188 54.410156 C 65.617188 36.570312 80.113281 22.058594 97.933594 22.058594 L 230.863281 22.058594 L 230.863281 88.234375 C 230.863281 94.328125 235.796875 99.265625 241.878906 99.265625 L 307.980469 99.265625 L 307.980469 320.589844 C 307.980469 338.429688 293.484375 352.941406 275.664062 352.941406 Z M 275.664062 352.941406 " fill-opacity="1" fill-rule="nonzero"/></g><path fill="#000000" d="M 98.667969 209.558594 L 197.816406 209.558594 C 203.898438 209.558594 208.832031 204.621094 208.832031 198.53125 C 208.832031 192.4375 203.898438 187.5 197.816406 187.5 L 98.667969 187.5 C 92.582031 187.5 87.648438 192.4375 87.648438 198.53125 C 87.648438 204.621094 92.582031 209.558594 98.667969 209.558594 Z M 98.667969 209.558594 " fill-opacity="1" fill-rule="nonzero"/><path fill="#000000" d="M 274.929688 242.648438 L 98.667969 242.648438 C 92.582031 242.648438 87.648438 247.585938 87.648438 253.675781 C 87.648438 259.769531 92.582031 264.707031 98.667969 264.707031 L 274.929688 264.707031 C 281.015625 264.707031 285.945312 259.769531 285.945312 253.675781 C 285.945312 247.585938 281.015625 242.648438 274.929688 242.648438 Z M 274.929688 242.648438 " fill-opacity="1" fill-rule="nonzero"/><path fill="#000000" d="M 274.929688 297.792969 L 98.667969 297.792969 C 92.582031 297.792969 87.648438 302.730469 87.648438 308.824219 C 87.648438 314.914062 92.582031 319.851562 98.667969 319.851562 L 274.929688 319.851562 C 281.015625 319.851562 285.945312 314.914062 285.945312 308.824219 C 285.945312 302.730469 281.015625 297.792969 274.929688 297.792969 Z M 274.929688 297.792969 " fill-opacity="1" fill-rule="nonzero"/></svg>