<svg xmlns="http://www.w3.org/2000/svg" xmlns:xlink="http://www.w3.org/1999/xlink" width="500" zoomAndPan="magnify" viewBox="0 0 375 374.999991" height="500" preserveAspectRatio="xMidYMid meet" version="1.0"><defs><g/><clipPath id="8abf8eb020"><path d="M 17.25 0 L 357.75 0 C 362.324219 0 366.710938 1.816406 369.949219 5.050781 C 373.183594 8.289062 375 12.675781 375 17.25 L 375 357.75 C 375 362.324219 373.183594 366.710938 369.949219 369.949219 C 366.710938 373.183594 362.324219 375 357.75 375 L 17.25 375 C 12.675781 375 8.289062 373.183594 5.050781 369.949219 C 1.816406 366.710938 0 362.324219 0 357.75 L 0 17.25 C 0 12.675781 1.816406 8.289062 5.050781 5.050781 C 8.289062 1.816406 12.675781 0 17.25 0 Z M 17.25 0 " clip-rule="nonzero"/></clipPath></defs><g clip-path="url(#8abf8eb020)"><rect x="-37.5" width="450" fill="#ff9900" y="-37.499999" height="449.999989" fill-opacity="1"/></g><g fill="#000000" fill-opacity="1"><g transform="translate(41.015627, 252.749983)"><g><path d="M 78.59375 2 C 64.988281 2 53.085938 -1 42.890625 -7 C 32.691406 -13 24.789062 -21.429688 19.1875 -32.296875 C 13.59375 -43.160156 10.796875 -55.925781 10.796875 -70.59375 C 10.796875 -81.65625 12.394531 -91.617188 15.59375 -100.484375 C 18.789062 -109.347656 23.351562 -116.945312 29.28125 -123.28125 C 35.21875 -129.613281 42.351562 -134.476562 50.6875 -137.875 C 59.019531 -141.28125 68.320312 -142.984375 78.59375 -142.984375 C 92.320312 -142.984375 104.25 -140.015625 114.375 -134.078125 C 124.507812 -128.148438 132.375 -119.785156 137.96875 -108.984375 C 143.570312 -98.179688 146.375 -85.445312 146.375 -70.78125 C 146.375 -59.71875 144.773438 -49.71875 141.578125 -40.78125 C 138.378906 -31.851562 133.8125 -24.191406 127.875 -17.796875 C 121.945312 -11.398438 114.816406 -6.5 106.484375 -3.09375 C 98.148438 0.300781 88.851562 2 78.59375 2 Z M 78.59375 -20 C 87.25 -20 94.609375 -22 100.671875 -26 C 106.742188 -30 111.410156 -35.796875 114.671875 -43.390625 C 117.941406 -50.992188 119.578125 -60.0625 119.578125 -70.59375 C 119.578125 -86.582031 116.007812 -98.976562 108.875 -107.78125 C 101.75 -116.582031 91.65625 -120.984375 78.59375 -120.984375 C 70.0625 -120.984375 62.726562 -119.015625 56.59375 -115.078125 C 50.457031 -111.148438 45.753906 -105.421875 42.484375 -97.890625 C 39.222656 -90.359375 37.59375 -81.257812 37.59375 -70.59375 C 37.59375 -54.726562 41.191406 -42.328125 48.390625 -33.390625 C 55.585938 -24.460938 65.65625 -20 78.59375 -20 Z M 78.59375 -20 "/></g></g></g><g fill="#000000" fill-opacity="1"><g transform="translate(197.987871, 252.749983)"><g><path d="M 80.984375 2 C 66.316406 2 53.75 -0.960938 43.28125 -6.890625 C 32.820312 -12.828125 24.789062 -21.226562 19.1875 -32.09375 C 13.59375 -42.957031 10.796875 -55.789062 10.796875 -70.59375 C 10.796875 -81.65625 12.394531 -91.617188 15.59375 -100.484375 C 18.789062 -109.347656 23.390625 -116.945312 29.390625 -123.28125 C 35.390625 -129.613281 42.753906 -134.476562 51.484375 -137.875 C 60.222656 -141.28125 70.054688 -142.984375 80.984375 -142.984375 C 88.316406 -142.984375 95.515625 -142.046875 102.578125 -140.171875 C 109.648438 -138.304688 115.851562 -135.640625 121.1875 -132.171875 C 123.976562 -130.441406 125.84375 -128.34375 126.78125 -125.875 C 127.71875 -123.414062 127.914062 -121.019531 127.375 -118.6875 C 126.84375 -116.351562 125.742188 -114.382812 124.078125 -112.78125 C 122.410156 -111.175781 120.34375 -110.273438 117.875 -110.078125 C 115.414062 -109.878906 112.71875 -110.710938 109.78125 -112.578125 C 105.644531 -115.242188 101.175781 -117.175781 96.375 -118.375 C 91.582031 -119.582031 86.71875 -120.1875 81.78125 -120.1875 C 72.320312 -120.1875 64.328125 -118.25 57.796875 -114.375 C 51.265625 -110.507812 46.332031 -104.910156 43 -97.578125 C 39.664062 -90.253906 38 -81.257812 38 -70.59375 C 38 -60.0625 39.664062 -51.0625 43 -43.59375 C 46.332031 -36.125 51.265625 -30.457031 57.796875 -26.59375 C 64.328125 -22.726562 72.320312 -20.796875 81.78125 -20.796875 C 86.851562 -20.796875 91.851562 -21.425781 96.78125 -22.6875 C 101.71875 -23.957031 106.382812 -25.925781 110.78125 -28.59375 C 113.71875 -30.320312 116.351562 -31.085938 118.6875 -30.890625 C 121.019531 -30.691406 122.984375 -29.859375 124.578125 -28.390625 C 126.179688 -26.929688 127.25 -25.097656 127.78125 -22.890625 C 128.3125 -20.691406 128.175781 -18.425781 127.375 -16.09375 C 126.582031 -13.757812 124.984375 -11.726562 122.578125 -10 C 117.242188 -6.132812 110.878906 -3.164062 103.484375 -1.09375 C 96.085938 0.96875 88.585938 2 80.984375 2 Z M 80.984375 2 "/></g></g></g></svg>