<svg xmlns="http://www.w3.org/2000/svg" xmlns:xlink="http://www.w3.org/1999/xlink" width="500" zoomAndPan="magnify" viewBox="0 0 375 374.999991" height="500" preserveAspectRatio="xMidYMid meet" version="1.0"><defs><clipPath id="c09a7fbdac"><path d="M 134 56 L 248 56 L 248 320.449219 L 134 320.449219 Z M 134 56 " clip-rule="nonzero"/></clipPath></defs><path fill="#ff9900" d="M 96.554688 283.25 C 90.921875 283.25 87.167969 281.375 83.414062 277.617188 L 8.316406 202.519531 C 0.804688 195.007812 0.804688 183.746094 8.316406 176.234375 L 83.414062 101.136719 C 90.921875 93.625 102.1875 93.625 109.699219 101.136719 C 117.207031 108.644531 117.207031 119.910156 109.699219 127.421875 L 47.742188 189.375 L 109.699219 251.332031 C 117.207031 258.84375 117.207031 270.109375 109.699219 277.617188 C 105.941406 281.375 102.1875 283.25 96.554688 283.25 Z M 96.554688 283.25 " fill-opacity="1" fill-rule="nonzero"/><path fill="#ff9900" d="M 284.304688 283.25 C 278.671875 283.25 274.917969 281.375 271.160156 277.617188 C 263.652344 270.109375 263.652344 258.84375 271.160156 251.332031 L 333.117188 189.375 L 271.160156 127.421875 C 263.652344 119.910156 263.652344 108.644531 271.160156 101.136719 C 278.671875 93.625 289.9375 93.625 297.445312 101.136719 L 372.542969 176.234375 C 380.054688 183.746094 380.054688 195.007812 372.542969 202.519531 L 297.445312 277.617188 C 293.691406 281.375 289.9375 283.25 284.304688 283.25 Z M 284.304688 283.25 " fill-opacity="1" fill-rule="nonzero"/><g clip-path="url(#c09a7fbdac)"><path fill="#ff9900" d="M 152.878906 320.800781 C 151.003906 320.800781 149.125 320.800781 147.246094 318.921875 C 137.859375 315.167969 132.226562 305.78125 135.984375 294.515625 L 211.082031 69.21875 C 214.835938 59.832031 224.222656 54.199219 235.488281 57.953125 C 244.875 61.707031 250.507812 71.097656 246.753906 82.359375 L 171.65625 307.65625 C 167.898438 315.167969 160.390625 320.800781 152.878906 320.800781 Z M 152.878906 320.800781 " fill-opacity="1" fill-rule="nonzero"/></g></svg>