<svg xmlns="http://www.w3.org/2000/svg" xmlns:xlink="http://www.w3.org/1999/xlink" width="500" zoomAndPan="magnify" viewBox="0 0 375 374.999991" height="500" preserveAspectRatio="xMidYMid meet" version="1.0"><path fill="#5271ff" d="M 244.0625 343.75 L 244.0625 166.605469 L 138.257812 272.414062 L 94.0625 281.25 L 102.898438 237.054688 L 217.804688 122.148438 L 244.0625 95.894531 L 244.0625 31.25 L 6.5625 31.25 L 6.5625 368.75 L 244.0625 368.75 Z M 244.0625 343.75 " fill-opacity="1" fill-rule="nonzero"/><path fill="#5271ff" d="M 244.0625 95.894531 L 269.0625 70.894531 L 269.0625 6.25 L 31.5625 6.25 L 31.5625 31.25 L 244.0625 31.25 Z M 244.0625 95.894531 " fill-opacity="1" fill-rule="nonzero"/><path fill="#5271ff" d="M 244.0625 166.605469 L 244.0625 343.75 L 269.0625 343.75 L 269.0625 141.605469 L 253.164062 157.507812 Z M 244.0625 166.605469 " fill-opacity="1" fill-rule="nonzero"/><path fill="#ff9900" d="M 217.804688 122.148438 L 102.898438 237.054688 L 94.0625 281.25 L 138.257812 272.414062 L 253.164062 157.507812 Z M 217.804688 122.148438 " fill-opacity="1" fill-rule="nonzero"/><path fill="#ff9900" d="M 217.804688 122.148438 L 253.164062 157.507812 L 269.0625 141.605469 L 350.386719 60.28125 L 368.070312 42.601562 L 332.710938 7.242188 L 269.0625 70.894531 L 244.0625 95.894531 Z M 217.804688 122.148438 " fill-opacity="1" fill-rule="nonzero"/><path fill="#000000" d="M 6.5625 375 L 244.0625 375 C 247.519531 375 250.3125 372.199219 250.3125 368.75 L 250.3125 350 L 269.0625 350 C 272.519531 350 275.3125 347.199219 275.3125 343.75 L 275.3125 144.195312 L 349.582031 69.925781 C 350.769531 72.414062 351.457031 75.117188 351.457031 77.957031 C 351.457031 82.96875 349.5 87.675781 345.960938 91.21875 L 301.773438 135.414062 L 310.613281 144.25 L 354.800781 100.054688 C 360.699219 94.15625 363.957031 86.304688 363.957031 77.957031 C 363.957031 71.738281 362.136719 65.800781 358.773438 60.730469 L 372.480469 47.023438 C 374.925781 44.582031 374.925781 40.632812 372.480469 38.1875 L 337.125 2.832031 C 334.679688 0.386719 330.730469 0.386719 328.289062 2.832031 L 275.3125 55.804688 L 275.3125 6.25 C 275.3125 2.800781 272.519531 0 269.0625 0 L 31.5625 0 C 28.105469 0 25.3125 2.800781 25.3125 6.25 L 25.3125 25 L 6.5625 25 C 3.105469 25 0.3125 27.800781 0.3125 31.25 L 0.3125 368.75 C 0.3125 372.199219 3.105469 375 6.5625 375 Z M 217.804688 130.988281 L 244.324219 157.507812 L 135.175781 266.65625 L 102.023438 273.289062 L 108.65625 240.144531 Z M 262.8125 337.5 L 250.3125 337.5 L 250.3125 169.195312 L 262.8125 156.695312 Z M 332.710938 16.082031 L 359.230469 42.601562 L 253.164062 148.667969 L 226.644531 122.148438 Z M 37.8125 12.5 L 262.8125 12.5 L 262.8125 68.304688 L 250.3125 80.804688 L 250.3125 31.25 C 250.3125 27.800781 247.519531 25 244.0625 25 L 37.8125 25 Z M 12.8125 37.5 L 237.8125 37.5 L 237.8125 93.304688 L 212.8125 118.304688 L 212.8125 106.25 L 194.0625 106.25 L 194.0625 118.75 L 212.367188 118.75 L 98.480469 232.636719 C 97.605469 233.511719 97.019531 234.617188 96.773438 235.832031 L 87.9375 280.023438 C 87.53125 282.074219 88.167969 284.195312 89.644531 285.667969 C 90.824219 286.851562 92.417969 287.5 94.0625 287.5 C 94.46875 287.5 94.882812 287.460938 95.289062 287.375 L 139.480469 278.539062 C 140.6875 278.292969 141.800781 277.699219 142.675781 276.832031 L 237.8125 181.695312 L 237.8125 362.5 L 12.8125 362.5 Z M 12.8125 37.5 " fill-opacity="1" fill-rule="nonzero"/><path fill="#000000" d="M 62.8125 56.25 L 187.8125 56.25 L 187.8125 68.75 L 62.8125 68.75 Z M 62.8125 56.25 " fill-opacity="1" fill-rule="nonzero"/><path fill="#000000" d="M 62.8125 106.25 L 100.3125 106.25 L 100.3125 118.75 L 62.8125 118.75 Z M 62.8125 106.25 " fill-opacity="1" fill-rule="nonzero"/><path fill="#000000" d="M 112.8125 106.25 L 181.5625 106.25 L 181.5625 118.75 L 112.8125 118.75 Z M 112.8125 106.25 " fill-opacity="1" fill-rule="nonzero"/><path fill="#000000" d="M 37.8125 131.25 L 87.8125 131.25 L 87.8125 143.75 L 37.8125 143.75 Z M 37.8125 131.25 " fill-opacity="1" fill-rule="nonzero"/><path fill="#000000" d="M 100.3125 131.25 L 162.8125 131.25 L 162.8125 143.75 L 100.3125 143.75 Z M 100.3125 131.25 " fill-opacity="1" fill-rule="nonzero"/><path fill="#000000" d="M 37.8125 156.25 L 144.0625 156.25 L 144.0625 168.75 L 37.8125 168.75 Z M 37.8125 156.25 " fill-opacity="1" fill-rule="nonzero"/><path fill="#000000" d="M 37.8125 181.25 L 75.3125 181.25 L 75.3125 193.75 L 37.8125 193.75 Z M 37.8125 181.25 " fill-opacity="1" fill-rule="nonzero"/><path fill="#000000" d="M 87.8125 181.25 L 125.3125 181.25 L 125.3125 193.75 L 87.8125 193.75 Z M 87.8125 181.25 " fill-opacity="1" fill-rule="nonzero"/><path fill="#000000" d="M 37.8125 206.25 L 100.3125 206.25 L 100.3125 218.75 L 37.8125 218.75 Z M 37.8125 206.25 " fill-opacity="1" fill-rule="nonzero"/><path fill="#000000" d="M 169.0625 256.25 L 212.8125 256.25 L 212.8125 268.75 L 169.0625 268.75 Z M 169.0625 256.25 " fill-opacity="1" fill-rule="nonzero"/><path fill="#000000" d="M 37.8125 256.25 L 69.0625 256.25 L 69.0625 268.75 L 37.8125 268.75 Z M 37.8125 256.25 " fill-opacity="1" fill-rule="nonzero"/><path fill="#000000" d="M 37.8125 281.25 L 75.3125 281.25 L 75.3125 293.75 L 37.8125 293.75 Z M 37.8125 281.25 " fill-opacity="1" fill-rule="nonzero"/><path fill="#000000" d="M 194.0625 231.25 L 212.8125 231.25 L 212.8125 243.75 L 194.0625 243.75 Z M 194.0625 231.25 " fill-opacity="1" fill-rule="nonzero"/></svg>