<svg xmlns="http://www.w3.org/2000/svg" xmlns:xlink="http://www.w3.org/1999/xlink" width="500" zoomAndPan="magnify" viewBox="0 0 375 374.999991" height="500" preserveAspectRatio="xMidYMid meet" version="1.0"><defs><clipPath id="2314f1f712"><path d="M 148.054688 96.914062 L 298.046875 96.914062 L 298.046875 246.792969 L 148.054688 246.792969 Z M 148.054688 96.914062 " clip-rule="nonzero"/></clipPath><clipPath id="702e58e39c"><path d="M 23.085938 60 L 272.835938 60 L 272.835938 375 L 23.085938 375 Z M 23.085938 60 " clip-rule="nonzero"/></clipPath></defs><path fill="#dd6f6f" d="M 271.1875 102.980469 C 270.339844 102.132812 269.199219 101.660156 267.984375 101.660156 C 266.777344 101.660156 265.644531 102.128906 264.796875 102.972656 L 251.726562 116.046875 L 278.824219 143.144531 L 291.894531 130.070312 C 292.742188 129.222656 293.207031 128.09375 293.210938 126.882812 C 293.210938 125.667969 292.742188 124.535156 291.894531 123.683594 L 271.1875 102.980469 " fill-opacity="1" fill-rule="nonzero"/><path fill="#e4dcc9" d="M 180.652344 215.925781 C 179.820312 215.699219 179.167969 215.054688 178.945312 214.21875 L 176.523438 205.238281 L 167.5 201.546875 L 159.007812 226.71875 L 168.152344 235.863281 L 193.328125 227.375 L 189.632812 218.339844 L 180.652344 215.925781 " fill-opacity="1" fill-rule="nonzero"/><path fill="#fbac0f" d="M 257.128906 128.292969 L 181.25 204.171875 L 183.25 211.617188 L 190.695312 213.617188 L 260.390625 143.925781 L 266.578125 137.738281 L 257.128906 128.292969 " fill-opacity="1" fill-rule="nonzero"/><path fill="#f4d177" d="M 253.710938 124.871094 L 248.304688 119.46875 L 242.902344 124.871094 L 170.3125 197.46875 L 177.976562 200.601562 L 247.523438 131.058594 Z M 270 141.160156 L 263.8125 147.347656 L 194.265625 216.890625 L 197.402344 224.5625 L 275.402344 146.5625 L 270 141.160156 " fill-opacity="1" fill-rule="nonzero"/><g clip-path="url(#2314f1f712)"><path fill="#000000" d="M 291.894531 130.070312 L 278.824219 143.144531 L 251.726562 116.046875 L 264.796875 102.972656 C 265.644531 102.128906 266.777344 101.660156 267.984375 101.660156 C 269.199219 101.660156 270.339844 102.132812 271.1875 102.980469 L 291.894531 123.683594 C 292.742188 124.535156 293.210938 125.667969 293.210938 126.882812 C 293.207031 128.09375 292.742188 129.222656 291.894531 130.070312 Z M 270.230469 151.734375 L 197.402344 224.5625 L 194.265625 216.890625 L 263.8125 147.347656 L 270 141.160156 L 275.402344 146.5625 Z M 168.152344 235.863281 L 159.007812 226.71875 L 167.5 201.546875 L 176.523438 205.238281 L 178.945312 214.21875 C 179.167969 215.054688 179.820312 215.699219 180.652344 215.925781 L 189.632812 218.339844 L 193.328125 227.375 Z M 257.128906 128.292969 L 266.578125 137.738281 L 260.390625 143.925781 L 190.695312 213.617188 L 183.25 211.617188 L 181.25 204.171875 Z M 242.902344 124.871094 L 248.304688 119.46875 L 253.710938 124.871094 L 247.523438 131.058594 L 177.976562 200.601562 L 170.3125 197.46875 Z M 295.316406 120.265625 L 274.605469 99.554688 C 271.078125 96.03125 264.894531 96.03125 261.375 99.554688 L 164.320312 196.621094 C 164.0625 196.878906 163.847656 197.210938 163.714844 197.628906 C 163.585938 198.046875 148.207031 243.597656 148.207031 243.597656 C 148.058594 244.035156 147.769531 244.949219 148.789062 246.082031 C 149.707031 247.105469 151.015625 246.75 151.269531 246.664062 C 151.269531 246.664062 196.960938 231.289062 197.3125 231.136719 C 197.664062 230.980469 198.015625 230.785156 198.25 230.554688 L 295.3125 133.492188 C 297.074219 131.734375 298.046875 129.386719 298.046875 126.882812 C 298.046875 124.375 297.074219 122.027344 295.316406 120.265625 " fill-opacity="1" fill-rule="nonzero"/></g><g clip-path="url(#702e58e39c)"><path fill="#000000" d="M 194.5625 126.386719 L 190.757812 129.101562 C 191.140625 136.84375 190.40625 144.476562 188.558594 152.003906 C 185.625 164.769531 180.363281 171.144531 172.761719 171.140625 C 165.164062 171.132812 163.527344 164.429688 167.859375 151.027344 C 170.421875 142.179688 174.578125 134.164062 180.328125 126.976562 C 180.320312 122.210938 179.953125 117.46875 179.226562 112.757812 C 178.464844 107.523438 177.195312 102.414062 175.421875 97.433594 C 174.015625 92.441406 172.015625 87.699219 169.417969 83.210938 C 166.621094 78.988281 163.1875 75.375 159.109375 72.375 C 156.9375 70.914062 154.597656 69.808594 152.089844 69.054688 C 149.585938 68.304688 147.023438 67.945312 144.40625 67.972656 C 142.324219 67.859375 140.246094 67.929688 138.175781 68.183594 C 136.105469 68.433594 134.074219 68.863281 132.078125 69.46875 C 130.082031 70.074219 128.152344 70.851562 126.292969 71.792969 C 124.433594 72.734375 122.667969 73.832031 120.996094 75.082031 C 113.527344 80.773438 107.175781 87.519531 101.9375 95.320312 C 91.417969 111.011719 83.417969 131.046875 77.945312 155.429688 C 72.644531 178.4375 69.742188 201.75 69.238281 225.355469 C 68.929688 235.980469 69.660156 246.527344 71.441406 257.003906 C 72.867188 268.253906 75.035156 279.359375 77.945312 290.320312 C 83.410156 309.964844 91.03125 327.433594 100.804688 342.726562 C 110.582031 358.015625 121.664062 366.199219 134.058594 367.285156 C 144.59375 368.746094 155.675781 364.738281 167.308594 355.257812 C 179.679688 345.054688 190.71875 333.570312 200.433594 320.800781 C 210.882812 307.042969 220.40625 292.667969 229.007812 277.679688 C 237.320312 262.78125 244.417969 249.660156 250.300781 238.316406 C 253.230469 232.070312 255.59375 226.792969 257.394531 222.484375 L 261.199219 213.113281 C 263.03125 212.746094 264.863281 212.746094 266.695312 213.113281 C 268.929688 213.496094 270.925781 214.398438 272.691406 215.820312 C 270.890625 222.371094 263.992188 237.503906 251.992188 261.210938 C 239.695312 284.960938 225.101562 307.195312 208.214844 327.921875 C 196.953125 342.140625 184.953125 353.796875 172.222656 362.890625 C 160.550781 371.21875 149.121094 375.382812 137.933594 375.382812 C 136.449219 375.394531 134.980469 375.226562 133.539062 374.882812 C 96.464844 371.605469 68.832031 355.039062 50.640625 325.183594 C 32.789062 296.449219 23.664062 264.246094 23.269531 228.574219 L 23.269531 224.171875 C 23.511719 207.558594 25.511719 191.164062 29.265625 174.980469 C 32.628906 160.414062 37.53125 146.390625 43.96875 132.902344 C 55.570312 109.589844 70.304688 91.542969 88.171875 78.765625 C 106.035156 65.988281 123.667969 59.816406 141.070312 60.246094 L 142.671875 60.246094 C 146.019531 60.171875 149.3125 60.550781 152.554688 61.382812 C 155.800781 62.214844 158.871094 63.472656 161.769531 65.148438 C 167.300781 68.492188 171.835938 72.867188 175.382812 78.277344 C 179.148438 82.890625 182.046875 88 184.078125 93.601562 C 186.316406 99.621094 187.953125 105.800781 188.984375 112.144531 L 190.085938 119.765625 C 190.964844 119.828125 191.699219 120.195312 192.277344 120.867188 C 193.164062 122.652344 193.925781 124.492188 194.5625 126.386719 Z M 178.757812 146.738281 C 173.292969 157.683594 171.65625 163.15625 173.855469 163.15625 C 176.050781 163.15625 178.050781 157.878906 179.859375 147.332031 L 180.367188 143.519531 Z M 178.757812 146.738281 " fill-opacity="1" fill-rule="nonzero"/></g></svg>