<svg xmlns="http://www.w3.org/2000/svg" xmlns:xlink="http://www.w3.org/1999/xlink" width="500" zoomAndPan="magnify" viewBox="0 0 375 374.999991" height="500" preserveAspectRatio="xMidYMid meet" version="1.0"><defs><clipPath id="4fda8c945a"><path d="M 182 120.535156 L 320 120.535156 L 320 322 L 182 322 Z M 182 120.535156 " clip-rule="nonzero"/></clipPath><clipPath id="4cef6bc2ed"><path d="M 170 108.535156 L 308 108.535156 L 308 310 L 170 310 Z M 170 108.535156 " clip-rule="nonzero"/></clipPath><clipPath id="785f6c7620"><path d="M 183 115.167969 L 321 115.167969 L 321 316.917969 L 183 316.917969 Z M 183 115.167969 " clip-rule="nonzero"/></clipPath><clipPath id="1c76513aa7"><path d="M 198 119.972656 L 336 119.972656 L 336 321 L 198 321 Z M 198 119.972656 " clip-rule="nonzero"/></clipPath></defs><g clip-path="url(#4fda8c945a)"><path fill="#737373" d="M 307.734375 120.230469 L 240.699219 120.230469 L 240.699219 157.574219 C 240.695312 158.257812 240.65625 158.9375 240.582031 159.617188 C 240.507812 160.296875 240.402344 160.96875 240.265625 161.640625 C 240.125 162.308594 239.957031 162.96875 239.753906 163.621094 C 239.550781 164.273438 239.316406 164.914062 239.050781 165.542969 C 238.785156 166.171875 238.488281 166.785156 238.164062 167.386719 C 237.839844 167.984375 237.484375 168.570312 237.101562 169.132812 C 236.71875 169.699219 236.3125 170.246094 235.875 170.769531 C 235.4375 171.296875 234.980469 171.800781 234.496094 172.28125 C 234.007812 172.761719 233.503906 173.21875 232.972656 173.648438 C 232.445312 174.082031 231.894531 174.484375 231.324219 174.863281 C 230.757812 175.242188 230.171875 175.589844 229.570312 175.910156 C 228.964844 176.230469 228.347656 176.519531 227.71875 176.78125 C 227.085938 177.042969 226.445312 177.269531 225.789062 177.46875 C 225.136719 177.664062 224.476562 177.832031 223.804688 177.964844 C 223.136719 178.097656 222.460938 178.195312 221.78125 178.265625 C 221.101562 178.332031 220.421875 178.363281 219.738281 178.367188 L 182.441406 178.367188 L 182.441406 310.195312 C 182.4375 310.964844 182.507812 311.722656 182.652344 312.476562 C 182.800781 313.226562 183.015625 313.960938 183.308594 314.667969 C 183.597656 315.378906 183.957031 316.050781 184.382812 316.691406 C 184.804688 317.328125 185.289062 317.917969 185.832031 318.460938 C 186.371094 319.003906 186.960938 319.488281 187.601562 319.914062 C 188.238281 320.335938 188.910156 320.695312 189.621094 320.988281 C 190.332031 321.277344 191.0625 321.496094 191.8125 321.644531 C 192.566406 321.789062 193.324219 321.859375 194.09375 321.855469 L 307.734375 321.855469 C 308.503906 321.863281 309.269531 321.792969 310.03125 321.648438 C 310.789062 321.503906 311.527344 321.289062 312.242188 321 C 312.957031 320.710938 313.640625 320.355469 314.285156 319.929688 C 314.929688 319.507812 315.527344 319.023438 316.078125 318.484375 C 316.628906 317.941406 317.121094 317.351562 317.558594 316.714844 C 317.992188 316.074219 318.359375 315.402344 318.660156 314.691406 C 318.964844 313.980469 319.191406 313.246094 319.351562 312.488281 C 319.507812 311.734375 319.589844 310.96875 319.597656 310.195312 L 319.597656 131.878906 C 319.589844 131.109375 319.507812 130.34375 319.347656 129.589844 C 319.191406 128.832031 318.960938 128.101562 318.660156 127.390625 C 318.355469 126.679688 317.988281 126.003906 317.554688 125.367188 C 317.121094 124.730469 316.625 124.140625 316.074219 123.597656 C 315.523438 123.058594 314.925781 122.578125 314.28125 122.152344 C 313.636719 121.730469 312.957031 121.375 312.238281 121.085938 C 311.523438 120.796875 310.785156 120.578125 310.027344 120.4375 C 309.269531 120.292969 308.503906 120.222656 307.734375 120.230469 Z M 297.078125 290.308594 L 204.960938 290.308594 L 204.960938 281.167969 L 297.078125 281.167969 Z M 297.078125 262.886719 L 204.960938 262.886719 L 204.960938 253.644531 L 297.078125 253.644531 Z M 297.078125 235.375 L 204.960938 235.375 L 204.960938 226.160156 L 297.078125 226.160156 Z M 297.078125 207.859375 L 204.960938 207.859375 L 204.960938 198.832031 L 297.078125 198.832031 Z M 297.078125 207.859375 " fill-opacity="1" fill-rule="nonzero"/></g><path fill="#737373" d="M 231.4375 157.574219 L 231.4375 126.628906 L 210.109375 147.886719 L 188.933594 169.285156 L 219.738281 169.285156 C 220.507812 169.289062 221.269531 169.214844 222.023438 169.066406 C 222.777344 168.917969 223.511719 168.695312 224.222656 168.402344 C 224.933594 168.109375 225.609375 167.75 226.25 167.320312 C 226.886719 166.894531 227.480469 166.410156 228.023438 165.863281 C 228.566406 165.320312 229.050781 164.726562 229.480469 164.085938 C 229.90625 163.449219 230.265625 162.773438 230.558594 162.0625 C 230.851562 161.347656 231.070312 160.617188 231.21875 159.863281 C 231.367188 159.105469 231.441406 158.34375 231.4375 157.574219 Z M 231.4375 157.574219 " fill-opacity="1" fill-rule="nonzero"/><path fill="#ffbd59" d="M 162.234375 88.3125 L 147.140625 75.75 C 145.035156 73.996094 142.695312 72.648438 140.117188 71.714844 C 137.539062 70.78125 134.882812 70.3125 132.140625 70.3125 L 46.875 70.3125 C 46.105469 70.3125 45.339844 70.351562 44.578125 70.425781 C 43.8125 70.5 43.054688 70.613281 42.300781 70.761719 C 41.550781 70.914062 40.804688 71.097656 40.070312 71.320312 C 39.335938 71.542969 38.613281 71.804688 37.90625 72.097656 C 37.195312 72.390625 36.503906 72.71875 35.828125 73.078125 C 35.148438 73.441406 34.492188 73.835938 33.855469 74.261719 C 33.214844 74.6875 32.601562 75.144531 32.007812 75.632812 C 31.414062 76.121094 30.84375 76.632812 30.300781 77.175781 C 29.757812 77.71875 29.246094 78.289062 28.757812 78.882812 C 28.269531 79.476562 27.8125 80.089844 27.386719 80.730469 C 26.960938 81.367188 26.566406 82.023438 26.203125 82.703125 C 25.84375 83.378906 25.515625 84.070312 25.222656 84.78125 C 24.929688 85.488281 24.667969 86.210938 24.445312 86.945312 C 24.222656 87.679688 24.039062 88.425781 23.886719 89.175781 C 23.738281 89.929688 23.625 90.6875 23.550781 91.453125 C 23.476562 92.214844 23.4375 92.980469 23.4375 93.75 L 23.4375 281.25 C 23.4375 282.019531 23.476562 282.785156 23.550781 283.546875 C 23.625 284.3125 23.738281 285.070312 23.886719 285.824219 C 24.039062 286.574219 24.222656 287.320312 24.445312 288.054688 C 24.667969 288.789062 24.929688 289.511719 25.222656 290.21875 C 25.515625 290.929688 25.84375 291.621094 26.203125 292.296875 C 26.566406 292.976562 26.960938 293.632812 27.386719 294.269531 C 27.8125 294.910156 28.269531 295.523438 28.757812 296.117188 C 29.246094 296.710938 29.757812 297.28125 30.300781 297.824219 C 30.84375 298.367188 31.414062 298.878906 32.007812 299.367188 C 32.601562 299.855469 33.214844 300.3125 33.855469 300.738281 C 34.492188 301.164062 35.148438 301.558594 35.828125 301.921875 C 36.503906 302.28125 37.195312 302.609375 37.90625 302.902344 C 38.613281 303.195312 39.335938 303.457031 40.070312 303.679688 C 40.804688 303.902344 41.550781 304.085938 42.300781 304.238281 C 43.054688 304.386719 43.8125 304.5 44.578125 304.574219 C 45.339844 304.648438 46.105469 304.6875 46.875 304.6875 L 328.125 304.6875 C 328.894531 304.6875 329.660156 304.648438 330.421875 304.574219 C 331.1875 304.5 331.945312 304.386719 332.699219 304.238281 C 333.449219 304.085938 334.195312 303.902344 334.929688 303.679688 C 335.664062 303.457031 336.386719 303.195312 337.09375 302.902344 C 337.804688 302.609375 338.496094 302.28125 339.171875 301.921875 C 339.851562 301.558594 340.507812 301.164062 341.144531 300.738281 C 341.785156 300.3125 342.398438 299.855469 342.992188 299.367188 C 343.585938 298.878906 344.15625 298.367188 344.699219 297.824219 C 345.242188 297.28125 345.753906 296.710938 346.242188 296.117188 C 346.730469 295.523438 347.1875 294.910156 347.613281 294.269531 C 348.039062 293.632812 348.433594 292.976562 348.796875 292.296875 C 349.15625 291.621094 349.484375 290.929688 349.777344 290.21875 C 350.070312 289.511719 350.332031 288.789062 350.554688 288.054688 C 350.777344 287.320312 350.960938 286.574219 351.113281 285.824219 C 351.261719 285.070312 351.375 284.3125 351.449219 283.546875 C 351.523438 282.785156 351.5625 282.019531 351.5625 281.25 L 351.5625 117.1875 C 351.5625 116.417969 351.523438 115.652344 351.449219 114.890625 C 351.375 114.125 351.261719 113.367188 351.113281 112.613281 C 350.960938 111.863281 350.777344 111.117188 350.554688 110.382812 C 350.332031 109.648438 350.070312 108.925781 349.777344 108.21875 C 349.484375 107.507812 349.15625 106.816406 348.796875 106.140625 C 348.433594 105.460938 348.039062 104.804688 347.613281 104.167969 C 347.1875 103.527344 346.730469 102.914062 346.242188 102.320312 C 345.753906 101.726562 345.242188 101.15625 344.699219 100.613281 C 344.15625 100.070312 343.585938 99.558594 342.992188 99.070312 C 342.398438 98.582031 341.785156 98.125 341.144531 97.699219 C 340.507812 97.273438 339.851562 96.878906 339.171875 96.515625 C 338.496094 96.15625 337.804688 95.828125 337.09375 95.535156 C 336.386719 95.242188 335.664062 94.980469 334.929688 94.757812 C 334.195312 94.535156 333.449219 94.351562 332.699219 94.199219 C 331.945312 94.050781 331.1875 93.9375 330.421875 93.863281 C 329.660156 93.789062 328.894531 93.75 328.125 93.75 L 177.234375 93.75 C 174.492188 93.75 171.835938 93.28125 169.257812 92.347656 C 166.679688 91.414062 164.339844 90.066406 162.234375 88.3125 Z M 162.234375 88.3125 " fill-opacity="1" fill-rule="nonzero"/><path fill="#ffbd59" d="M 175.78125 257.8125 L 363.28125 257.8125 C 364.050781 257.8125 364.8125 257.886719 365.566406 258.039062 C 366.320312 258.1875 367.054688 258.410156 367.765625 258.703125 C 368.476562 259 369.152344 259.359375 369.792969 259.789062 C 370.429688 260.214844 371.023438 260.699219 371.566406 261.246094 C 372.113281 261.789062 372.597656 262.378906 373.023438 263.019531 C 373.453125 263.660156 373.8125 264.335938 374.109375 265.046875 C 374.402344 265.757812 374.625 266.492188 374.773438 267.246094 C 374.925781 268 375 268.761719 375 269.53125 L 375 316.40625 C 375 317.175781 374.925781 317.9375 374.773438 318.691406 C 374.625 319.445312 374.402344 320.179688 374.109375 320.890625 C 373.8125 321.601562 373.453125 322.277344 373.023438 322.917969 C 372.597656 323.554688 372.113281 324.148438 371.566406 324.691406 C 371.023438 325.238281 370.429688 325.722656 369.792969 326.148438 C 369.152344 326.578125 368.476562 326.9375 367.765625 327.234375 C 367.054688 327.527344 366.320312 327.75 365.566406 327.898438 C 364.8125 328.050781 364.050781 328.125 363.28125 328.125 L 175.78125 328.125 C 175.011719 328.125 174.25 328.050781 173.496094 327.898438 C 172.742188 327.75 172.007812 327.527344 171.296875 327.234375 C 170.585938 326.9375 169.910156 326.578125 169.269531 326.148438 C 168.628906 325.722656 168.039062 325.238281 167.496094 324.691406 C 166.949219 324.148438 166.464844 323.554688 166.039062 322.917969 C 165.609375 322.277344 165.25 321.601562 164.953125 320.890625 C 164.660156 320.179688 164.4375 319.445312 164.289062 318.691406 C 164.136719 317.9375 164.0625 317.175781 164.0625 316.40625 L 164.0625 269.53125 C 164.0625 268.761719 164.136719 268 164.289062 267.246094 C 164.4375 266.492188 164.660156 265.757812 164.953125 265.046875 C 165.25 264.335938 165.609375 263.660156 166.039062 263.019531 C 166.464844 262.378906 166.949219 261.789062 167.496094 261.246094 C 168.039062 260.699219 168.628906 260.214844 169.269531 259.789062 C 169.910156 259.359375 170.585938 259 171.296875 258.703125 C 172.007812 258.410156 172.742188 258.1875 173.496094 258.039062 C 174.25 257.886719 175.011719 257.8125 175.78125 257.8125 Z M 175.78125 257.8125 " fill-opacity="1" fill-rule="nonzero"/><g clip-path="url(#4cef6bc2ed)"><path fill="#737373" d="M 295.734375 108.230469 L 228.699219 108.230469 L 228.699219 145.574219 C 228.695312 146.257812 228.65625 146.9375 228.582031 147.617188 C 228.507812 148.296875 228.402344 148.96875 228.265625 149.640625 C 228.125 150.308594 227.957031 150.96875 227.753906 151.621094 C 227.550781 152.273438 227.316406 152.914062 227.050781 153.542969 C 226.785156 154.171875 226.488281 154.785156 226.164062 155.386719 C 225.839844 155.984375 225.484375 156.570312 225.101562 157.132812 C 224.71875 157.699219 224.3125 158.246094 223.875 158.769531 C 223.4375 159.296875 222.980469 159.800781 222.496094 160.28125 C 222.007812 160.761719 221.503906 161.21875 220.972656 161.648438 C 220.445312 162.082031 219.894531 162.484375 219.324219 162.863281 C 218.757812 163.242188 218.171875 163.589844 217.570312 163.910156 C 216.964844 164.230469 216.347656 164.519531 215.71875 164.78125 C 215.085938 165.042969 214.445312 165.269531 213.789062 165.46875 C 213.136719 165.664062 212.476562 165.832031 211.804688 165.964844 C 211.136719 166.097656 210.460938 166.195312 209.78125 166.265625 C 209.101562 166.332031 208.421875 166.363281 207.738281 166.367188 L 170.441406 166.367188 L 170.441406 298.195312 C 170.4375 298.964844 170.507812 299.722656 170.652344 300.476562 C 170.800781 301.226562 171.015625 301.960938 171.308594 302.667969 C 171.597656 303.378906 171.957031 304.050781 172.382812 304.691406 C 172.804688 305.328125 173.289062 305.917969 173.832031 306.460938 C 174.371094 307.003906 174.960938 307.488281 175.601562 307.914062 C 176.238281 308.335938 176.910156 308.695312 177.621094 308.988281 C 178.332031 309.277344 179.0625 309.496094 179.8125 309.644531 C 180.566406 309.789062 181.324219 309.859375 182.09375 309.855469 L 295.734375 309.855469 C 296.503906 309.863281 297.269531 309.792969 298.03125 309.648438 C 298.789062 309.503906 299.527344 309.289062 300.242188 309 C 300.957031 308.710938 301.640625 308.355469 302.285156 307.929688 C 302.929688 307.507812 303.527344 307.023438 304.078125 306.484375 C 304.628906 305.941406 305.121094 305.351562 305.558594 304.714844 C 305.992188 304.074219 306.359375 303.402344 306.660156 302.691406 C 306.964844 301.980469 307.191406 301.246094 307.351562 300.488281 C 307.507812 299.734375 307.589844 298.96875 307.597656 298.195312 L 307.597656 119.878906 C 307.589844 119.109375 307.507812 118.34375 307.347656 117.589844 C 307.191406 116.832031 306.960938 116.101562 306.660156 115.390625 C 306.355469 114.679688 305.988281 114.003906 305.554688 113.367188 C 305.121094 112.730469 304.625 112.140625 304.074219 111.597656 C 303.523438 111.058594 302.925781 110.578125 302.28125 110.152344 C 301.636719 109.730469 300.957031 109.375 300.238281 109.085938 C 299.523438 108.796875 298.785156 108.578125 298.027344 108.4375 C 297.269531 108.292969 296.503906 108.222656 295.734375 108.230469 Z M 285.078125 278.308594 L 192.960938 278.308594 L 192.960938 269.167969 L 285.078125 269.167969 Z M 285.078125 250.886719 L 192.960938 250.886719 L 192.960938 241.644531 L 285.078125 241.644531 Z M 285.078125 223.375 L 192.960938 223.375 L 192.960938 214.160156 L 285.078125 214.160156 Z M 285.078125 195.859375 L 192.960938 195.859375 L 192.960938 186.832031 L 285.078125 186.832031 Z M 285.078125 195.859375 " fill-opacity="1" fill-rule="nonzero"/></g><path fill="#737373" d="M 219.4375 145.574219 L 219.4375 114.628906 L 198.109375 135.886719 L 176.933594 157.285156 L 207.738281 157.285156 C 208.507812 157.289062 209.269531 157.214844 210.023438 157.066406 C 210.777344 156.917969 211.511719 156.695312 212.222656 156.402344 C 212.933594 156.109375 213.609375 155.75 214.25 155.320312 C 214.886719 154.894531 215.480469 154.410156 216.023438 153.863281 C 216.566406 153.320312 217.050781 152.726562 217.480469 152.085938 C 217.90625 151.449219 218.265625 150.773438 218.558594 150.0625 C 218.851562 149.347656 219.070312 148.617188 219.21875 147.863281 C 219.367188 147.105469 219.441406 146.34375 219.4375 145.574219 Z M 219.4375 145.574219 " fill-opacity="1" fill-rule="nonzero"/><g clip-path="url(#785f6c7620)"><path fill="#545454" d="M 308.941406 114.863281 L 241.90625 114.863281 L 241.90625 152.207031 C 241.902344 152.890625 241.859375 153.574219 241.789062 154.25 C 241.714844 154.929688 241.609375 155.605469 241.472656 156.273438 C 241.332031 156.941406 241.164062 157.601562 240.960938 158.253906 C 240.757812 158.90625 240.523438 159.546875 240.257812 160.175781 C 239.992188 160.804688 239.695312 161.417969 239.371094 162.019531 C 239.042969 162.617188 238.691406 163.203125 238.308594 163.765625 C 237.925781 164.332031 237.515625 164.878906 237.082031 165.40625 C 236.644531 165.929688 236.183594 166.433594 235.699219 166.914062 C 235.214844 167.394531 234.707031 167.851562 234.179688 168.28125 C 233.648438 168.714844 233.101562 169.117188 232.53125 169.496094 C 231.964844 169.875 231.378906 170.222656 230.773438 170.542969 C 230.171875 170.863281 229.554688 171.152344 228.921875 171.414062 C 228.292969 171.675781 227.648438 171.902344 226.996094 172.101562 C 226.34375 172.300781 225.679688 172.464844 225.011719 172.597656 C 224.339844 172.730469 223.667969 172.832031 222.988281 172.898438 C 222.308594 172.964844 221.628906 173 220.945312 173 L 183.648438 173 L 183.648438 304.828125 C 183.644531 305.597656 183.714844 306.355469 183.859375 307.109375 C 184.003906 307.863281 184.222656 308.59375 184.515625 309.300781 C 184.804688 310.011719 185.164062 310.683594 185.585938 311.324219 C 186.011719 311.960938 186.496094 312.550781 187.035156 313.09375 C 187.578125 313.636719 188.167969 314.121094 188.808594 314.546875 C 189.445312 314.972656 190.117188 315.328125 190.828125 315.621094 C 191.535156 315.910156 192.269531 316.128906 193.019531 316.277344 C 193.773438 316.421875 194.53125 316.492188 195.300781 316.488281 L 308.941406 316.488281 C 309.710938 316.496094 310.476562 316.425781 311.234375 316.28125 C 311.996094 316.140625 312.730469 315.921875 313.449219 315.632812 C 314.164062 315.34375 314.84375 314.988281 315.492188 314.5625 C 316.136719 314.140625 316.734375 313.65625 317.285156 313.117188 C 317.835938 312.574219 318.328125 311.984375 318.765625 311.347656 C 319.199219 310.707031 319.566406 310.035156 319.867188 309.324219 C 320.171875 308.613281 320.398438 307.878906 320.554688 307.121094 C 320.714844 306.367188 320.796875 305.601562 320.800781 304.828125 L 320.800781 126.511719 C 320.796875 125.742188 320.710938 124.976562 320.554688 124.222656 C 320.398438 123.464844 320.167969 122.734375 319.867188 122.023438 C 319.5625 121.3125 319.195312 120.636719 318.761719 120 C 318.324219 119.363281 317.832031 118.773438 317.28125 118.234375 C 316.730469 117.691406 316.132812 117.210938 315.488281 116.785156 C 314.84375 116.363281 314.160156 116.007812 313.445312 115.71875 C 312.730469 115.429688 311.992188 115.214844 311.234375 115.070312 C 310.476562 114.925781 309.710938 114.855469 308.941406 114.863281 Z M 298.285156 284.941406 L 206.167969 284.941406 L 206.167969 275.800781 L 298.285156 275.800781 Z M 298.285156 257.519531 L 206.167969 257.519531 L 206.167969 248.277344 L 298.285156 248.277344 Z M 298.285156 230.007812 L 206.167969 230.007812 L 206.167969 220.796875 L 298.285156 220.796875 Z M 298.285156 202.492188 L 206.167969 202.492188 L 206.167969 193.464844 L 298.285156 193.464844 Z M 298.285156 202.492188 " fill-opacity="1" fill-rule="nonzero"/></g><path fill="#545454" d="M 232.644531 152.207031 L 232.644531 121.261719 L 211.316406 142.519531 L 190.140625 163.917969 L 220.945312 163.917969 C 221.714844 163.921875 222.476562 163.847656 223.230469 163.699219 C 223.984375 163.550781 224.71875 163.328125 225.429688 163.035156 C 226.140625 162.742188 226.816406 162.382812 227.453125 161.953125 C 228.09375 161.527344 228.6875 161.042969 229.230469 160.496094 C 229.773438 159.953125 230.257812 159.359375 230.683594 158.722656 C 231.113281 158.082031 231.472656 157.40625 231.765625 156.695312 C 232.058594 155.984375 232.277344 155.25 232.425781 154.496094 C 232.574219 153.738281 232.648438 152.976562 232.644531 152.207031 Z M 232.644531 152.207031 " fill-opacity="1" fill-rule="nonzero"/><g clip-path="url(#1c76513aa7)"><path fill="#000000" d="M 324.019531 119.667969 L 256.859375 119.667969 L 256.859375 156.945312 C 256.855469 157.628906 256.8125 158.308594 256.742188 158.984375 C 256.667969 159.664062 256.5625 160.335938 256.425781 161.003906 C 256.285156 161.671875 256.113281 162.328125 255.910156 162.980469 C 255.707031 163.628906 255.472656 164.269531 255.207031 164.898438 C 254.941406 165.527344 254.644531 166.140625 254.320312 166.738281 C 253.992188 167.335938 253.636719 167.917969 253.253906 168.484375 C 252.871094 169.050781 252.460938 169.59375 252.023438 170.117188 C 251.589844 170.644531 251.128906 171.144531 250.640625 171.625 C 250.15625 172.105469 249.648438 172.5625 249.117188 172.992188 C 248.585938 173.421875 248.039062 173.824219 247.46875 174.203125 C 246.898438 174.578125 246.3125 174.929688 245.707031 175.25 C 245.101562 175.566406 244.484375 175.859375 243.851562 176.117188 C 243.21875 176.378906 242.574219 176.605469 241.921875 176.804688 C 241.265625 177 240.601562 177.164062 239.933594 177.296875 C 239.261719 177.429688 238.585938 177.53125 237.90625 177.597656 C 237.222656 177.664062 236.542969 177.699219 235.855469 177.699219 L 198.492188 177.699219 L 198.492188 309.292969 C 198.488281 310.058594 198.558594 310.816406 198.703125 311.566406 C 198.847656 312.320312 199.066406 313.050781 199.359375 313.757812 C 199.648438 314.464844 200.007812 315.136719 200.433594 315.773438 C 200.859375 316.414062 201.34375 317 201.886719 317.542969 C 202.429688 318.085938 203.019531 318.566406 203.660156 318.992188 C 204.296875 319.417969 204.972656 319.773438 205.683594 320.066406 C 206.394531 320.355469 207.125 320.574219 207.878906 320.71875 C 208.632812 320.867188 209.394531 320.9375 210.164062 320.929688 L 324.019531 320.929688 C 324.792969 320.9375 325.5625 320.871094 326.320312 320.726562 C 327.082031 320.582031 327.820312 320.367188 328.539062 320.078125 C 329.253906 319.789062 329.9375 319.433594 330.585938 319.007812 C 331.230469 318.585938 331.832031 318.105469 332.382812 317.566406 C 332.933594 317.023438 333.429688 316.4375 333.863281 315.796875 C 334.300781 315.160156 334.667969 314.488281 334.96875 313.777344 C 335.273438 313.066406 335.503906 312.335938 335.660156 311.582031 C 335.816406 310.828125 335.898438 310.0625 335.90625 309.292969 L 335.90625 131.296875 C 335.898438 130.527344 335.816406 129.765625 335.65625 129.007812 C 335.5 128.253906 335.269531 127.523438 334.96875 126.816406 C 334.664062 126.105469 334.296875 125.433594 333.859375 124.796875 C 333.425781 124.160156 332.929688 123.570312 332.378906 123.03125 C 331.828125 122.492188 331.226562 122.011719 330.582031 121.589844 C 329.933594 121.164062 329.253906 120.808594 328.535156 120.523438 C 327.816406 120.234375 327.078125 120.015625 326.320312 119.875 C 325.558594 119.730469 324.792969 119.660156 324.019531 119.667969 Z M 313.347656 289.441406 L 221.050781 289.441406 L 221.050781 280.316406 L 313.347656 280.316406 Z M 313.347656 262.070312 L 221.050781 262.070312 L 221.050781 252.84375 L 313.347656 252.84375 Z M 313.347656 234.605469 L 221.050781 234.605469 L 221.050781 225.410156 L 313.347656 225.410156 Z M 313.347656 207.140625 L 221.050781 207.140625 L 221.050781 198.128906 L 313.347656 198.128906 Z M 313.347656 207.140625 " fill-opacity="1" fill-rule="nonzero"/></g><path fill="#000000" d="M 247.578125 156.945312 L 247.578125 126.054688 L 226.210938 147.273438 L 204.996094 168.636719 L 235.859375 168.636719 C 236.628906 168.636719 237.390625 168.566406 238.148438 168.417969 C 238.902344 168.269531 239.636719 168.046875 240.351562 167.753906 C 241.0625 167.460938 241.738281 167.101562 242.378906 166.675781 C 243.023438 166.25 243.613281 165.761719 244.160156 165.21875 C 244.703125 164.675781 245.191406 164.085938 245.617188 163.445312 C 246.042969 162.808594 246.40625 162.132812 246.699219 161.421875 C 246.992188 160.714844 247.214844 159.980469 247.363281 159.226562 C 247.511719 158.476562 247.582031 157.714844 247.578125 156.945312 Z M 247.578125 156.945312 " fill-opacity="1" fill-rule="nonzero"/></svg>