<svg xmlns="http://www.w3.org/2000/svg" xmlns:xlink="http://www.w3.org/1999/xlink" width="500" zoomAndPan="magnify" viewBox="0 0 375 374.999991" height="500" preserveAspectRatio="xMidYMid meet" version="1.0"><defs><clipPath id="ceea827276"><path d="M 170 143.09375 L 284 143.09375 L 284 310 L 170 310 Z M 170 143.09375 " clip-rule="nonzero"/></clipPath><clipPath id="121cfd79b7"><path d="M 180 148.585938 L 295 148.585938 L 295 315.835938 L 180 315.835938 Z M 180 148.585938 " clip-rule="nonzero"/></clipPath><clipPath id="088f395902"><path d="M 193 152.5625 L 307 152.5625 L 307 319.8125 L 193 319.8125 Z M 193 152.5625 " clip-rule="nonzero"/></clipPath></defs><path fill="#ffbd59" d="M 339.457031 140.625 L 110.648438 140.625 C 109.425781 140.625 108.210938 140.71875 107.003906 140.910156 C 105.792969 141.097656 104.609375 141.382812 103.445312 141.757812 C 102.28125 142.132812 101.152344 142.597656 100.0625 143.148438 C 98.972656 143.699219 97.929688 144.335938 96.9375 145.050781 C 95.945312 145.765625 95.015625 146.550781 94.148438 147.414062 C 93.277344 148.273438 92.484375 149.195312 91.757812 150.179688 C 91.035156 151.164062 90.390625 152.203125 89.828125 153.289062 C 89.265625 154.375 88.792969 155.496094 88.40625 156.65625 L 46.875 281.25 L 46.875 117.1875 L 328.125 117.1875 C 328.125 116.417969 328.085938 115.652344 328.011719 114.890625 C 327.9375 114.125 327.824219 113.367188 327.675781 112.613281 C 327.523438 111.863281 327.339844 111.117188 327.117188 110.382812 C 326.894531 109.648438 326.632812 108.925781 326.339844 108.21875 C 326.046875 107.507812 325.71875 106.816406 325.359375 106.140625 C 324.996094 105.460938 324.601562 104.804688 324.175781 104.167969 C 323.75 103.527344 323.292969 102.914062 322.804688 102.320312 C 322.316406 101.726562 321.804688 101.15625 321.261719 100.613281 C 320.71875 100.070312 320.148438 99.558594 319.554688 99.070312 C 318.960938 98.582031 318.347656 98.125 317.707031 97.699219 C 317.070312 97.273438 316.414062 96.878906 315.734375 96.515625 C 315.058594 96.15625 314.367188 95.828125 313.65625 95.535156 C 312.949219 95.242188 312.226562 94.980469 311.492188 94.757812 C 310.757812 94.535156 310.011719 94.351562 309.261719 94.199219 C 308.507812 94.050781 307.75 93.9375 306.984375 93.863281 C 306.222656 93.789062 305.457031 93.75 304.6875 93.75 L 177.234375 93.75 C 174.492188 93.75 171.835938 93.28125 169.257812 92.347656 C 166.679688 91.414062 164.339844 90.066406 162.234375 88.3125 L 147.140625 75.75 C 145.035156 73.996094 142.695312 72.648438 140.117188 71.714844 C 137.539062 70.78125 134.882812 70.3125 132.140625 70.3125 L 46.875 70.3125 C 46.105469 70.3125 45.339844 70.351562 44.578125 70.425781 C 43.8125 70.5 43.054688 70.613281 42.300781 70.761719 C 41.550781 70.914062 40.804688 71.097656 40.070312 71.320312 C 39.335938 71.542969 38.613281 71.804688 37.90625 72.097656 C 37.195312 72.390625 36.503906 72.71875 35.828125 73.078125 C 35.148438 73.441406 34.492188 73.835938 33.855469 74.261719 C 33.214844 74.6875 32.601562 75.144531 32.007812 75.632812 C 31.414062 76.121094 30.84375 76.632812 30.300781 77.175781 C 29.757812 77.71875 29.246094 78.289062 28.757812 78.882812 C 28.269531 79.476562 27.8125 80.089844 27.386719 80.730469 C 26.960938 81.367188 26.566406 82.023438 26.203125 82.703125 C 25.84375 83.378906 25.515625 84.070312 25.222656 84.78125 C 24.929688 85.488281 24.667969 86.210938 24.445312 86.945312 C 24.222656 87.679688 24.039062 88.425781 23.886719 89.175781 C 23.738281 89.929688 23.625 90.6875 23.550781 91.453125 C 23.476562 92.214844 23.4375 92.980469 23.4375 93.75 L 23.4375 281.25 C 23.4375 282.019531 23.476562 282.785156 23.550781 283.546875 C 23.625 284.3125 23.738281 285.070312 23.886719 285.824219 C 24.039062 286.574219 24.222656 287.320312 24.445312 288.054688 C 24.667969 288.789062 24.929688 289.511719 25.222656 290.21875 C 25.515625 290.929688 25.84375 291.621094 26.203125 292.296875 C 26.566406 292.976562 26.960938 293.632812 27.386719 294.269531 C 27.8125 294.910156 28.269531 295.523438 28.757812 296.117188 C 29.246094 296.710938 29.757812 297.28125 30.300781 297.824219 C 30.84375 298.367188 31.414062 298.878906 32.007812 299.367188 C 32.601562 299.855469 33.214844 300.3125 33.855469 300.738281 C 34.492188 301.164062 35.148438 301.558594 35.828125 301.921875 C 36.503906 302.28125 37.195312 302.609375 37.90625 302.902344 C 38.613281 303.195312 39.335938 303.457031 40.070312 303.679688 C 40.804688 303.902344 41.550781 304.085938 42.300781 304.238281 C 43.054688 304.386719 43.8125 304.5 44.578125 304.574219 C 45.339844 304.648438 46.105469 304.6875 46.875 304.6875 L 304.6875 304.6875 L 360.996094 173.296875 C 361.1875 172.851562 361.363281 172.40625 361.523438 171.949219 C 361.6875 171.496094 361.835938 171.035156 361.96875 170.574219 C 362.101562 170.109375 362.222656 169.644531 362.328125 169.171875 C 362.433594 168.699219 362.523438 168.226562 362.601562 167.75 C 362.675781 167.273438 362.738281 166.796875 362.785156 166.316406 C 362.828125 165.835938 362.859375 165.355469 362.878906 164.871094 C 362.894531 164.390625 362.894531 163.90625 362.882812 163.425781 C 362.871094 162.941406 362.84375 162.460938 362.800781 161.980469 C 362.757812 161.5 362.699219 161.019531 362.625 160.542969 C 362.554688 160.066406 362.46875 159.59375 362.363281 159.121094 C 362.261719 158.648438 362.148438 158.179688 362.015625 157.71875 C 361.886719 157.253906 361.742188 156.792969 361.582031 156.335938 C 361.421875 155.882812 361.25 155.429688 361.0625 154.988281 C 360.875 154.542969 360.675781 154.101562 360.460938 153.671875 C 360.25 153.238281 360.019531 152.8125 359.78125 152.394531 C 359.539062 151.976562 359.289062 151.566406 359.023438 151.164062 C 358.757812 150.757812 358.480469 150.363281 358.1875 149.980469 C 357.898438 149.59375 357.597656 149.21875 357.285156 148.851562 C 356.972656 148.484375 356.648438 148.125 356.3125 147.777344 C 355.976562 147.433594 355.632812 147.097656 355.273438 146.769531 C 354.917969 146.445312 354.554688 146.128906 354.179688 145.828125 C 353.800781 145.523438 353.417969 145.234375 353.023438 144.953125 C 352.632812 144.675781 352.230469 144.40625 351.820312 144.152344 C 351.410156 143.898438 350.992188 143.65625 350.566406 143.425781 C 350.144531 143.199219 349.710938 142.984375 349.273438 142.78125 C 348.835938 142.578125 348.390625 142.390625 347.941406 142.214844 C 347.492188 142.039062 347.039062 141.878906 346.578125 141.734375 C 346.117188 141.585938 345.652344 141.453125 345.1875 141.335938 C 344.71875 141.21875 344.246094 141.117188 343.773438 141.027344 C 343.300781 140.9375 342.824219 140.863281 342.34375 140.804688 C 341.863281 140.746094 341.382812 140.699219 340.902344 140.667969 C 340.421875 140.640625 339.941406 140.625 339.457031 140.625 Z M 339.457031 140.625 " fill-opacity="1" fill-rule="nonzero"/><path fill="#ffbd59" d="M 175.78125 257.8125 L 363.28125 257.8125 C 364.050781 257.8125 364.8125 257.886719 365.566406 258.039062 C 366.320312 258.1875 367.054688 258.410156 367.765625 258.703125 C 368.476562 259 369.152344 259.359375 369.792969 259.789062 C 370.429688 260.214844 371.023438 260.699219 371.566406 261.246094 C 372.113281 261.789062 372.597656 262.378906 373.023438 263.019531 C 373.453125 263.660156 373.8125 264.335938 374.109375 265.046875 C 374.402344 265.757812 374.625 266.492188 374.773438 267.246094 C 374.925781 268 375 268.761719 375 269.53125 L 375 316.40625 C 375 317.175781 374.925781 317.9375 374.773438 318.691406 C 374.625 319.445312 374.402344 320.179688 374.109375 320.890625 C 373.8125 321.601562 373.453125 322.277344 373.023438 322.917969 C 372.597656 323.554688 372.113281 324.148438 371.566406 324.691406 C 371.023438 325.238281 370.429688 325.722656 369.792969 326.148438 C 369.152344 326.578125 368.476562 326.9375 367.765625 327.234375 C 367.054688 327.527344 366.320312 327.75 365.566406 327.898438 C 364.8125 328.050781 364.050781 328.125 363.28125 328.125 L 175.78125 328.125 C 175.011719 328.125 174.25 328.050781 173.496094 327.898438 C 172.742188 327.75 172.007812 327.527344 171.296875 327.234375 C 170.585938 326.9375 169.910156 326.578125 169.269531 326.148438 C 168.628906 325.722656 168.039062 325.238281 167.496094 324.691406 C 166.949219 324.148438 166.464844 323.554688 166.039062 322.917969 C 165.609375 322.277344 165.25 321.601562 164.953125 320.890625 C 164.660156 320.179688 164.4375 319.445312 164.289062 318.691406 C 164.136719 317.9375 164.0625 317.175781 164.0625 316.40625 L 164.0625 269.53125 C 164.0625 268.761719 164.136719 268 164.289062 267.246094 C 164.4375 266.492188 164.660156 265.757812 164.953125 265.046875 C 165.25 264.335938 165.609375 263.660156 166.039062 263.019531 C 166.464844 262.378906 166.949219 261.789062 167.496094 261.246094 C 168.039062 260.699219 168.628906 260.214844 169.269531 259.789062 C 169.910156 259.359375 170.585938 259 171.296875 258.703125 C 172.007812 258.410156 172.742188 258.1875 173.496094 258.039062 C 174.25 257.886719 175.011719 257.8125 175.78125 257.8125 Z M 175.78125 257.8125 " fill-opacity="1" fill-rule="nonzero"/><g clip-path="url(#ceea827276)"><path fill="#737373" d="M 273.734375 142.839844 L 218.242188 142.839844 L 218.242188 173.753906 C 218.238281 174.320312 218.207031 174.882812 218.144531 175.445312 C 218.085938 176.007812 217.996094 176.566406 217.882812 177.121094 C 217.769531 177.671875 217.628906 178.21875 217.460938 178.757812 C 217.292969 179.300781 217.097656 179.828125 216.878906 180.351562 C 216.65625 180.871094 216.414062 181.378906 216.144531 181.875 C 215.875 182.375 215.582031 182.855469 215.265625 183.324219 C 214.949219 183.792969 214.609375 184.242188 214.25 184.679688 C 213.886719 185.113281 213.507812 185.53125 213.105469 185.929688 C 212.703125 186.328125 212.285156 186.703125 211.847656 187.0625 C 211.410156 187.417969 210.953125 187.753906 210.484375 188.066406 C 210.011719 188.378906 209.527344 188.667969 209.027344 188.933594 C 208.527344 189.199219 208.019531 189.4375 207.496094 189.65625 C 206.972656 189.871094 206.441406 190.058594 205.902344 190.222656 C 205.359375 190.386719 204.8125 190.523438 204.257812 190.632812 C 203.703125 190.742188 203.144531 190.828125 202.582031 190.882812 C 202.019531 190.9375 201.457031 190.964844 200.890625 190.964844 L 170.019531 190.964844 L 170.019531 300.09375 C 170.015625 300.730469 170.070312 301.359375 170.191406 301.980469 C 170.3125 302.605469 170.492188 303.210938 170.734375 303.796875 C 170.976562 304.382812 171.269531 304.941406 171.621094 305.46875 C 171.972656 306 172.375 306.488281 172.824219 306.9375 C 173.269531 307.386719 173.757812 307.785156 174.289062 308.136719 C 174.816406 308.488281 175.375 308.785156 175.960938 309.027344 C 176.546875 309.269531 177.152344 309.449219 177.773438 309.570312 C 178.398438 309.691406 179.027344 309.75 179.660156 309.746094 L 273.734375 309.746094 C 274.371094 309.753906 275.003906 309.695312 275.632812 309.574219 C 276.261719 309.457031 276.871094 309.277344 277.464844 309.039062 C 278.058594 308.796875 278.621094 308.503906 279.15625 308.152344 C 279.691406 307.800781 280.1875 307.402344 280.640625 306.953125 C 281.097656 306.507812 281.503906 306.019531 281.867188 305.488281 C 282.226562 304.960938 282.53125 304.402344 282.78125 303.8125 C 283.03125 303.226562 283.21875 302.617188 283.347656 301.992188 C 283.480469 301.367188 283.546875 300.734375 283.554688 300.09375 L 283.554688 152.484375 C 283.546875 151.847656 283.476562 151.214844 283.347656 150.589844 C 283.21875 149.960938 283.027344 149.355469 282.777344 148.769531 C 282.527344 148.179688 282.222656 147.621094 281.863281 147.09375 C 281.503906 146.566406 281.09375 146.078125 280.640625 145.628906 C 280.183594 145.183594 279.6875 144.785156 279.152344 144.433594 C 278.617188 144.082031 278.054688 143.789062 277.464844 143.550781 C 276.871094 143.308594 276.261719 143.132812 275.632812 143.011719 C 275.003906 142.894531 274.371094 142.835938 273.734375 142.839844 Z M 264.914062 283.632812 L 188.65625 283.632812 L 188.65625 276.066406 L 264.914062 276.066406 Z M 264.914062 260.933594 L 188.65625 260.933594 L 188.65625 253.28125 L 264.914062 253.28125 Z M 264.914062 238.15625 L 188.65625 238.15625 L 188.65625 230.53125 L 264.914062 230.53125 Z M 264.914062 215.382812 L 188.65625 215.382812 L 188.65625 207.90625 L 264.914062 207.90625 Z M 264.914062 215.382812 " fill-opacity="1" fill-rule="nonzero"/></g><path fill="#737373" d="M 210.574219 173.753906 L 210.574219 148.136719 L 192.921875 165.734375 L 175.390625 183.449219 L 200.890625 183.449219 C 201.527344 183.453125 202.15625 183.390625 202.78125 183.265625 C 203.40625 183.144531 204.015625 182.960938 204.601562 182.71875 C 205.191406 182.476562 205.75 182.175781 206.28125 181.824219 C 206.808594 181.46875 207.300781 181.066406 207.75 180.617188 C 208.199219 180.167969 208.601562 179.675781 208.953125 179.148438 C 209.308594 178.617188 209.605469 178.058594 209.847656 177.46875 C 210.089844 176.878906 210.273438 176.273438 210.394531 175.648438 C 210.519531 175.023438 210.578125 174.394531 210.574219 173.753906 Z M 210.574219 173.753906 " fill-opacity="1" fill-rule="nonzero"/><g clip-path="url(#121cfd79b7)"><path fill="#545454" d="M 284.664062 148.332031 L 229.175781 148.332031 L 229.175781 179.246094 C 229.171875 179.8125 229.136719 180.375 229.078125 180.9375 C 229.019531 181.5 228.929688 182.058594 228.816406 182.609375 C 228.699219 183.164062 228.558594 183.710938 228.390625 184.25 C 228.222656 184.789062 228.03125 185.320312 227.808594 185.839844 C 227.589844 186.363281 227.34375 186.871094 227.074219 187.367188 C 226.808594 187.863281 226.511719 188.347656 226.195312 188.816406 C 225.878906 189.285156 225.542969 189.734375 225.179688 190.171875 C 224.820312 190.605469 224.441406 191.023438 224.039062 191.421875 C 223.636719 191.816406 223.21875 192.195312 222.777344 192.554688 C 222.339844 192.910156 221.886719 193.246094 221.414062 193.558594 C 220.945312 193.871094 220.460938 194.160156 219.960938 194.425781 C 219.460938 194.691406 218.949219 194.929688 218.429688 195.144531 C 217.90625 195.359375 217.375 195.550781 216.832031 195.714844 C 216.292969 195.878906 215.746094 196.015625 215.191406 196.125 C 214.636719 196.234375 214.078125 196.316406 213.515625 196.371094 C 212.953125 196.429688 212.386719 196.457031 211.824219 196.457031 L 180.949219 196.457031 L 180.949219 305.585938 C 180.945312 306.21875 181.003906 306.847656 181.125 307.472656 C 181.246094 308.097656 181.425781 308.699219 181.667969 309.289062 C 181.90625 309.875 182.203125 310.433594 182.554688 310.960938 C 182.90625 311.488281 183.304688 311.980469 183.753906 312.429688 C 184.203125 312.875 184.691406 313.277344 185.21875 313.628906 C 185.746094 313.980469 186.304688 314.277344 186.894531 314.519531 C 187.480469 314.761719 188.085938 314.941406 188.707031 315.0625 C 189.332031 315.183594 189.960938 315.242188 190.59375 315.238281 L 284.664062 315.238281 C 285.304688 315.242188 285.9375 315.1875 286.566406 315.066406 C 287.195312 314.949219 287.804688 314.769531 288.398438 314.527344 C 288.992188 314.289062 289.554688 313.996094 290.089844 313.644531 C 290.625 313.292969 291.117188 312.894531 291.574219 312.445312 C 292.03125 311.996094 292.4375 311.507812 292.796875 310.980469 C 293.15625 310.453125 293.460938 309.894531 293.710938 309.304688 C 293.960938 308.71875 294.152344 308.109375 294.28125 307.484375 C 294.410156 306.859375 294.480469 306.226562 294.484375 305.585938 L 294.484375 157.976562 C 294.480469 157.335938 294.410156 156.703125 294.28125 156.078125 C 294.148438 155.453125 293.960938 154.847656 293.710938 154.257812 C 293.460938 153.671875 293.15625 153.113281 292.796875 152.585938 C 292.433594 152.058594 292.027344 151.570312 291.570312 151.121094 C 291.117188 150.675781 290.621094 150.273438 290.085938 149.925781 C 289.550781 149.574219 288.988281 149.28125 288.394531 149.039062 C 287.804688 148.800781 287.191406 148.621094 286.566406 148.503906 C 285.9375 148.382812 285.304688 148.328125 284.664062 148.332031 Z M 275.847656 289.125 L 199.589844 289.125 L 199.589844 281.558594 L 275.847656 281.558594 Z M 275.847656 266.425781 L 199.589844 266.425781 L 199.589844 258.773438 L 275.847656 258.773438 Z M 275.847656 243.648438 L 199.589844 243.648438 L 199.589844 236.023438 L 275.847656 236.023438 Z M 275.847656 220.871094 L 199.589844 220.871094 L 199.589844 213.398438 L 275.847656 213.398438 Z M 275.847656 220.871094 " fill-opacity="1" fill-rule="nonzero"/></g><path fill="#545454" d="M 221.507812 179.246094 L 221.507812 153.628906 L 203.851562 171.226562 L 186.324219 188.941406 L 211.824219 188.941406 C 212.460938 188.941406 213.089844 188.882812 213.714844 188.757812 C 214.339844 188.636719 214.945312 188.453125 215.535156 188.210938 C 216.125 187.964844 216.683594 187.667969 217.210938 187.316406 C 217.742188 186.960938 218.230469 186.558594 218.683594 186.109375 C 219.132812 185.65625 219.535156 185.167969 219.886719 184.636719 C 220.238281 184.109375 220.539062 183.546875 220.78125 182.960938 C 221.023438 182.371094 221.207031 181.765625 221.328125 181.140625 C 221.449219 180.515625 221.511719 179.882812 221.507812 179.246094 Z M 221.507812 179.246094 " fill-opacity="1" fill-rule="nonzero"/><g clip-path="url(#088f395902)"><path fill="#000000" d="M 296.84375 152.308594 L 241.410156 152.308594 L 241.410156 183.214844 C 241.402344 183.777344 241.371094 184.339844 241.308594 184.902344 C 241.25 185.464844 241.164062 186.023438 241.046875 186.574219 C 240.933594 187.128906 240.792969 187.675781 240.625 188.214844 C 240.457031 188.753906 240.261719 189.285156 240.042969 189.804688 C 239.824219 190.324219 239.578125 190.835938 239.3125 191.332031 C 239.042969 191.828125 238.75 192.308594 238.433594 192.777344 C 238.117188 193.246094 237.777344 193.699219 237.417969 194.132812 C 237.058594 194.566406 236.675781 194.984375 236.277344 195.382812 C 235.875 195.78125 235.457031 196.15625 235.019531 196.515625 C 234.582031 196.871094 234.125 197.207031 233.65625 197.519531 C 233.183594 197.832031 232.699219 198.121094 232.203125 198.386719 C 231.703125 198.652344 231.195312 198.890625 230.671875 199.105469 C 230.148438 199.320312 229.617188 199.511719 229.078125 199.675781 C 228.539062 199.839844 227.988281 199.976562 227.4375 200.085938 C 226.882812 200.195312 226.324219 200.277344 225.761719 200.332031 C 225.199219 200.390625 224.636719 200.417969 224.074219 200.417969 L 193.230469 200.417969 L 193.230469 309.507812 C 193.226562 310.140625 193.285156 310.769531 193.40625 311.394531 C 193.527344 312.015625 193.707031 312.621094 193.945312 313.207031 C 194.1875 313.796875 194.484375 314.355469 194.832031 314.882812 C 195.183594 315.410156 195.585938 315.898438 196.03125 316.347656 C 196.480469 316.796875 196.96875 317.195312 197.496094 317.546875 C 198.023438 317.898438 198.582031 318.195312 199.167969 318.4375 C 199.753906 318.679688 200.359375 318.859375 200.980469 318.980469 C 201.601562 319.101562 202.230469 319.160156 202.863281 319.15625 L 296.84375 319.15625 C 297.480469 319.160156 298.113281 319.105469 298.742188 318.984375 C 299.367188 318.867188 299.980469 318.6875 300.570312 318.449219 C 301.164062 318.207031 301.726562 317.914062 302.261719 317.5625 C 302.792969 317.210938 303.289062 316.8125 303.746094 316.367188 C 304.199219 315.917969 304.605469 315.429688 304.964844 314.902344 C 305.324219 314.371094 305.628906 313.8125 305.878906 313.226562 C 306.128906 312.636719 306.320312 312.03125 306.449219 311.40625 C 306.578125 310.78125 306.648438 310.148438 306.652344 309.507812 L 306.652344 161.949219 C 306.644531 161.3125 306.578125 160.679688 306.449219 160.054688 C 306.316406 159.429688 306.128906 158.820312 305.878906 158.234375 C 305.628906 157.644531 305.324219 157.089844 304.964844 156.5625 C 304.605469 156.03125 304.195312 155.546875 303.742188 155.097656 C 303.285156 154.648438 302.792969 154.25 302.257812 153.902344 C 301.722656 153.550781 301.160156 153.257812 300.570312 153.015625 C 299.976562 152.777344 299.367188 152.597656 298.742188 152.480469 C 298.113281 152.359375 297.480469 152.304688 296.84375 152.308594 Z M 288.03125 293.050781 L 211.851562 293.050781 L 211.851562 285.488281 L 288.03125 285.488281 Z M 288.03125 270.359375 L 211.851562 270.359375 L 211.851562 262.710938 L 288.03125 262.710938 Z M 288.03125 247.59375 L 211.851562 247.59375 L 211.851562 239.96875 L 288.03125 239.96875 Z M 288.03125 224.824219 L 211.851562 224.824219 L 211.851562 217.351562 L 288.03125 217.351562 Z M 288.03125 224.824219 " fill-opacity="1" fill-rule="nonzero"/></g><path fill="#000000" d="M 233.75 183.214844 L 233.75 157.605469 L 216.109375 175.195312 L 198.597656 192.902344 L 224.074219 192.902344 C 224.707031 192.90625 225.339844 192.84375 225.964844 192.722656 C 226.585938 192.597656 227.195312 192.414062 227.78125 192.171875 C 228.371094 191.929688 228.929688 191.632812 229.457031 191.277344 C 229.984375 190.925781 230.476562 190.523438 230.925781 190.074219 C 231.375 189.621094 231.777344 189.132812 232.128906 188.601562 C 232.480469 188.074219 232.777344 187.511719 233.019531 186.925781 C 233.261719 186.335938 233.445312 185.730469 233.566406 185.105469 C 233.691406 184.480469 233.75 183.851562 233.75 183.214844 Z M 233.75 183.214844 " fill-opacity="1" fill-rule="nonzero"/></svg>