<svg xmlns="http://www.w3.org/2000/svg" xmlns:xlink="http://www.w3.org/1999/xlink" width="500" zoomAndPan="magnify" viewBox="0 0 375 374.999991" height="500" preserveAspectRatio="xMidYMid meet" version="1.0"><defs><clipPath id="fff955ea3e"><path d="M 176 240 L 261 240 L 261 324.535156 L 176 324.535156 Z M 176 240 " clip-rule="nonzero"/></clipPath><clipPath id="c11b95d6fc"><path d="M 158 120 L 278.84375 120 L 278.84375 241 L 158 241 Z M 158 120 " clip-rule="nonzero"/></clipPath><clipPath id="45d10d5612"><path d="M 95.84375 199 L 189 199 L 189 292 L 95.84375 292 Z M 95.84375 199 " clip-rule="nonzero"/></clipPath></defs><path fill="#ffbd59" d="M 162.234375 88.3125 L 147.140625 75.75 C 145.035156 73.996094 142.695312 72.648438 140.117188 71.714844 C 137.539062 70.78125 134.882812 70.3125 132.140625 70.3125 L 46.875 70.3125 C 46.105469 70.3125 45.339844 70.351562 44.578125 70.425781 C 43.8125 70.5 43.054688 70.613281 42.300781 70.761719 C 41.550781 70.914062 40.804688 71.097656 40.070312 71.320312 C 39.335938 71.542969 38.613281 71.804688 37.90625 72.097656 C 37.195312 72.390625 36.503906 72.71875 35.828125 73.078125 C 35.148438 73.441406 34.492188 73.835938 33.855469 74.261719 C 33.214844 74.6875 32.601562 75.144531 32.007812 75.632812 C 31.414062 76.121094 30.84375 76.632812 30.300781 77.175781 C 29.757812 77.71875 29.246094 78.289062 28.757812 78.882812 C 28.269531 79.476562 27.8125 80.089844 27.386719 80.730469 C 26.960938 81.367188 26.566406 82.023438 26.203125 82.703125 C 25.84375 83.378906 25.515625 84.070312 25.222656 84.78125 C 24.929688 85.488281 24.667969 86.210938 24.445312 86.945312 C 24.222656 87.679688 24.039062 88.425781 23.886719 89.175781 C 23.738281 89.929688 23.625 90.6875 23.550781 91.453125 C 23.476562 92.214844 23.4375 92.980469 23.4375 93.75 L 23.4375 281.25 C 23.4375 282.019531 23.476562 282.785156 23.550781 283.546875 C 23.625 284.3125 23.738281 285.070312 23.886719 285.824219 C 24.039062 286.574219 24.222656 287.320312 24.445312 288.054688 C 24.667969 288.789062 24.929688 289.511719 25.222656 290.21875 C 25.515625 290.929688 25.84375 291.621094 26.203125 292.296875 C 26.566406 292.976562 26.960938 293.632812 27.386719 294.269531 C 27.8125 294.910156 28.269531 295.523438 28.757812 296.117188 C 29.246094 296.710938 29.757812 297.28125 30.300781 297.824219 C 30.84375 298.367188 31.414062 298.878906 32.007812 299.367188 C 32.601562 299.855469 33.214844 300.3125 33.855469 300.738281 C 34.492188 301.164062 35.148438 301.558594 35.828125 301.921875 C 36.503906 302.28125 37.195312 302.609375 37.90625 302.902344 C 38.613281 303.195312 39.335938 303.457031 40.070312 303.679688 C 40.804688 303.902344 41.550781 304.085938 42.300781 304.238281 C 43.054688 304.386719 43.8125 304.5 44.578125 304.574219 C 45.339844 304.648438 46.105469 304.6875 46.875 304.6875 L 328.125 304.6875 C 328.894531 304.6875 329.660156 304.648438 330.421875 304.574219 C 331.1875 304.5 331.945312 304.386719 332.699219 304.238281 C 333.449219 304.085938 334.195312 303.902344 334.929688 303.679688 C 335.664062 303.457031 336.386719 303.195312 337.09375 302.902344 C 337.804688 302.609375 338.496094 302.28125 339.171875 301.921875 C 339.851562 301.558594 340.507812 301.164062 341.144531 300.738281 C 341.785156 300.3125 342.398438 299.855469 342.992188 299.367188 C 343.585938 298.878906 344.15625 298.367188 344.699219 297.824219 C 345.242188 297.28125 345.753906 296.710938 346.242188 296.117188 C 346.730469 295.523438 347.1875 294.910156 347.613281 294.269531 C 348.039062 293.632812 348.433594 292.976562 348.796875 292.296875 C 349.15625 291.621094 349.484375 290.929688 349.777344 290.21875 C 350.070312 289.511719 350.332031 288.789062 350.554688 288.054688 C 350.777344 287.320312 350.960938 286.574219 351.113281 285.824219 C 351.261719 285.070312 351.375 284.3125 351.449219 283.546875 C 351.523438 282.785156 351.5625 282.019531 351.5625 281.25 L 351.5625 117.1875 C 351.5625 116.417969 351.523438 115.652344 351.449219 114.890625 C 351.375 114.125 351.261719 113.367188 351.113281 112.613281 C 350.960938 111.863281 350.777344 111.117188 350.554688 110.382812 C 350.332031 109.648438 350.070312 108.925781 349.777344 108.21875 C 349.484375 107.507812 349.15625 106.816406 348.796875 106.140625 C 348.433594 105.460938 348.039062 104.804688 347.613281 104.167969 C 347.1875 103.527344 346.730469 102.914062 346.242188 102.320312 C 345.753906 101.726562 345.242188 101.15625 344.699219 100.613281 C 344.15625 100.070312 343.585938 99.558594 342.992188 99.070312 C 342.398438 98.582031 341.785156 98.125 341.144531 97.699219 C 340.507812 97.273438 339.851562 96.878906 339.171875 96.515625 C 338.496094 96.15625 337.804688 95.828125 337.09375 95.535156 C 336.386719 95.242188 335.664062 94.980469 334.929688 94.757812 C 334.195312 94.535156 333.449219 94.351562 332.699219 94.199219 C 331.945312 94.050781 331.1875 93.9375 330.421875 93.863281 C 329.660156 93.789062 328.894531 93.75 328.125 93.75 L 177.234375 93.75 C 174.492188 93.75 171.835938 93.28125 169.257812 92.347656 C 166.679688 91.414062 164.339844 90.066406 162.234375 88.3125 Z M 162.234375 88.3125 " fill-opacity="1" fill-rule="nonzero"/><path fill="#ff914d" d="M 175.78125 257.8125 L 363.28125 257.8125 C 364.050781 257.8125 364.8125 257.886719 365.566406 258.039062 C 366.320312 258.1875 367.054688 258.410156 367.765625 258.703125 C 368.476562 259 369.152344 259.359375 369.792969 259.789062 C 370.429688 260.214844 371.023438 260.699219 371.566406 261.246094 C 372.113281 261.789062 372.597656 262.378906 373.023438 263.019531 C 373.453125 263.660156 373.8125 264.335938 374.109375 265.046875 C 374.402344 265.757812 374.625 266.492188 374.773438 267.246094 C 374.925781 268 375 268.761719 375 269.53125 L 375 316.40625 C 375 317.175781 374.925781 317.9375 374.773438 318.691406 C 374.625 319.445312 374.402344 320.179688 374.109375 320.890625 C 373.8125 321.601562 373.453125 322.277344 373.023438 322.917969 C 372.597656 323.554688 372.113281 324.148438 371.566406 324.691406 C 371.023438 325.238281 370.429688 325.722656 369.792969 326.148438 C 369.152344 326.578125 368.476562 326.9375 367.765625 327.234375 C 367.054688 327.527344 366.320312 327.75 365.566406 327.898438 C 364.8125 328.050781 364.050781 328.125 363.28125 328.125 L 175.78125 328.125 C 175.011719 328.125 174.25 328.050781 173.496094 327.898438 C 172.742188 327.75 172.007812 327.527344 171.296875 327.234375 C 170.585938 326.9375 169.910156 326.578125 169.269531 326.148438 C 168.628906 325.722656 168.039062 325.238281 167.496094 324.691406 C 166.949219 324.148438 166.464844 323.554688 166.039062 322.917969 C 165.609375 322.277344 165.25 321.601562 164.953125 320.890625 C 164.660156 320.179688 164.4375 319.445312 164.289062 318.691406 C 164.136719 317.9375 164.0625 317.175781 164.0625 316.40625 L 164.0625 269.53125 C 164.0625 268.761719 164.136719 268 164.289062 267.246094 C 164.4375 266.492188 164.660156 265.757812 164.953125 265.046875 C 165.25 264.335938 165.609375 263.660156 166.039062 263.019531 C 166.464844 262.378906 166.949219 261.789062 167.496094 261.246094 C 168.039062 260.699219 168.628906 260.214844 169.269531 259.789062 C 169.910156 259.359375 170.585938 259 171.296875 258.703125 C 172.007812 258.410156 172.742188 258.1875 173.496094 258.039062 C 174.25 257.886719 175.011719 257.8125 175.78125 257.8125 Z M 175.78125 257.8125 " fill-opacity="1" fill-rule="nonzero"/><path fill="#5271ff" d="M 255.753906 295.699219 L 248.875 291.691406 C 249.9375 288.292969 250.390625 284.800781 250.273438 281.351562 L 257.972656 279.320312 C 259.253906 278.984375 260.023438 277.660156 259.683594 276.382812 L 257.328125 267.453125 C 256.988281 266.175781 255.671875 265.40625 254.394531 265.742188 L 246.691406 267.777344 C 245.085938 264.71875 242.96875 261.90625 240.375 259.476562 L 244.382812 252.59375 C 245.046875 251.453125 244.65625 249.972656 243.515625 249.308594 L 235.535156 244.660156 C 234.394531 243.996094 232.914062 244.386719 232.246094 245.527344 L 228.238281 252.410156 C 224.84375 251.351562 221.355469 250.898438 217.902344 251.007812 L 215.871094 243.308594 C 215.53125 242.03125 214.210938 241.261719 212.933594 241.597656 L 204.003906 243.957031 C 202.726562 244.292969 201.960938 245.613281 202.296875 246.890625 L 204.328125 254.59375 C 201.269531 256.195312 198.457031 258.3125 196.027344 260.914062 L 189.144531 256.902344 C 188 256.238281 186.523438 256.628906 185.863281 257.769531 L 181.210938 265.753906 C 180.546875 266.894531 180.933594 268.371094 182.078125 269.035156 L 188.960938 273.042969 C 187.902344 276.441406 187.449219 279.929688 187.5625 283.378906 L 179.859375 285.417969 C 178.585938 285.75 177.8125 287.070312 178.152344 288.347656 L 180.503906 297.277344 C 180.84375 298.554688 182.164062 299.328125 183.445312 298.988281 L 191.144531 296.949219 C 192.75 300.011719 194.863281 302.828125 197.464844 305.253906 L 193.453125 312.140625 C 192.789062 313.277344 193.183594 314.757812 194.320312 315.421875 L 202.304688 320.070312 C 203.445312 320.734375 204.925781 320.34375 205.585938 319.207031 L 209.597656 312.320312 C 212.992188 313.382812 216.480469 313.832031 219.933594 313.71875 L 221.964844 321.425781 C 222.304688 322.703125 223.621094 323.46875 224.898438 323.132812 L 233.828125 320.777344 C 235.109375 320.441406 235.878906 319.117188 235.539062 317.84375 L 233.503906 310.136719 C 236.566406 308.539062 239.378906 306.417969 241.808594 303.824219 L 248.6875 307.828125 C 249.832031 308.496094 251.3125 308.105469 251.976562 306.964844 L 256.625 298.980469 C 257.292969 297.839844 256.898438 296.363281 255.753906 295.699219 Z M 211.101562 295.789062 C 203.691406 291.472656 201.179688 281.964844 205.496094 274.550781 C 209.8125 267.140625 219.324219 264.628906 226.734375 268.945312 C 234.144531 273.265625 236.65625 282.773438 232.335938 290.183594 C 228.023438 297.59375 218.515625 300.105469 211.101562 295.789062 " fill-opacity="1" fill-rule="nonzero"/><g clip-path="url(#fff955ea3e)"><path fill="#5271ff" d="M 211.65625 294.835938 C 218.53125 298.839844 227.378906 296.503906 231.382812 289.628906 C 233.324219 286.300781 233.851562 282.410156 232.867188 278.6875 C 231.882812 274.960938 229.507812 271.839844 226.179688 269.898438 C 222.851562 267.960938 218.964844 267.433594 215.238281 268.417969 C 211.511719 269.402344 208.390625 271.777344 206.449219 275.105469 C 204.511719 278.4375 203.984375 282.320312 204.96875 286.050781 C 205.953125 289.773438 208.328125 292.894531 211.65625 294.835938 Z M 218.890625 299 C 216.046875 299 213.171875 298.269531 210.546875 296.742188 C 206.707031 294.507812 203.96875 290.90625 202.832031 286.613281 C 201.699219 282.316406 202.308594 277.835938 204.542969 273.996094 C 206.78125 270.15625 210.375 267.417969 214.671875 266.28125 C 218.96875 265.148438 223.453125 265.757812 227.289062 267.992188 C 231.128906 270.230469 233.867188 273.824219 235 278.121094 C 236.136719 282.417969 235.527344 286.898438 233.289062 290.738281 C 230.203125 296.039062 224.621094 299 218.890625 299 Z M 220.777344 312.585938 L 223.03125 321.144531 C 223.121094 321.476562 223.335938 321.757812 223.636719 321.929688 C 223.9375 322.105469 224.285156 322.152344 224.617188 322.066406 L 233.546875 319.710938 C 233.882812 319.621094 234.164062 319.40625 234.339844 319.101562 C 234.511719 318.804688 234.558594 318.457031 234.472656 318.132812 L 232.210938 309.566406 L 232.992188 309.160156 C 235.992188 307.59375 238.6875 305.542969 241.003906 303.070312 L 241.601562 302.425781 L 249.242188 306.875 C 249.542969 307.050781 249.894531 307.097656 250.230469 307.007812 C 250.566406 306.917969 250.847656 306.707031 251.023438 306.410156 L 255.671875 298.425781 C 256.03125 297.808594 255.820312 297.011719 255.199219 296.652344 L 247.558594 292.199219 L 247.820312 291.363281 C 248.832031 288.128906 249.285156 284.773438 249.167969 281.386719 L 249.140625 280.507812 L 257.691406 278.253906 C 258.027344 278.164062 258.308594 277.949219 258.484375 277.648438 C 258.660156 277.347656 258.707031 277 258.617188 276.667969 L 256.261719 267.734375 C 256.078125 267.042969 255.367188 266.628906 254.675781 266.8125 L 246.121094 269.066406 L 245.710938 268.289062 C 244.140625 265.285156 242.089844 262.59375 239.621094 260.285156 L 238.976562 259.683594 L 243.429688 252.039062 C 243.789062 251.417969 243.582031 250.625 242.960938 250.261719 L 234.980469 245.613281 C 234.367188 245.257812 233.554688 245.472656 233.203125 246.082031 L 228.75 253.726562 L 227.910156 253.464844 C 224.679688 252.457031 221.324219 252 217.9375 252.113281 L 217.058594 252.140625 L 214.804688 243.589844 C 214.621094 242.898438 213.910156 242.480469 213.214844 242.664062 L 204.289062 245.023438 C 203.953125 245.113281 203.675781 245.324219 203.5 245.625 C 203.324219 245.925781 203.273438 246.277344 203.363281 246.613281 L 205.621094 255.160156 L 204.839844 255.570312 C 201.835938 257.144531 199.140625 259.195312 196.832031 261.664062 L 196.234375 262.308594 L 188.589844 257.855469 C 188.289062 257.683594 187.941406 257.636719 187.605469 257.726562 C 187.265625 257.8125 186.988281 258.027344 186.816406 258.320312 L 182.164062 266.308594 C 181.992188 266.605469 181.945312 266.953125 182.03125 267.289062 C 182.121094 267.628906 182.335938 267.910156 182.632812 268.082031 L 190.277344 272.535156 L 190.015625 273.375 C 189.007812 276.609375 188.550781 279.960938 188.664062 283.34375 L 188.695312 284.222656 L 180.140625 286.484375 C 179.808594 286.570312 179.53125 286.785156 179.355469 287.082031 C 179.179688 287.386719 179.128906 287.734375 179.21875 288.070312 L 181.570312 296.996094 C 181.660156 297.332031 181.875 297.609375 182.175781 297.785156 C 182.476562 297.960938 182.828125 298.007812 183.160156 297.921875 L 191.714844 295.660156 L 192.125 296.4375 C 193.703125 299.449219 195.753906 302.144531 198.214844 304.449219 L 198.859375 305.046875 L 194.40625 312.695312 C 194.234375 312.988281 194.1875 313.339844 194.277344 313.675781 C 194.367188 314.015625 194.582031 314.296875 194.878906 314.46875 L 202.859375 319.117188 C 203.476562 319.476562 204.273438 319.269531 204.632812 318.652344 L 209.085938 311.003906 L 209.925781 311.265625 C 213.144531 312.273438 216.5 312.730469 219.898438 312.617188 Z M 224.28125 324.316406 C 223.671875 324.316406 223.070312 324.15625 222.527344 323.839844 C 221.714844 323.367188 221.136719 322.609375 220.898438 321.703125 L 219.089844 314.839844 C 216.023438 314.855469 213.027344 314.449219 210.113281 313.625 L 206.539062 319.761719 C 205.566406 321.429688 203.417969 321.996094 201.75 321.023438 L 193.765625 316.375 C 192.960938 315.90625 192.386719 315.148438 192.144531 314.242188 C 191.90625 313.332031 192.03125 312.390625 192.5 311.585938 L 196.074219 305.449219 C 193.917969 303.320312 192.078125 300.902344 190.589844 298.242188 L 183.726562 300.054688 C 182.820312 300.292969 181.878906 300.167969 181.066406 299.691406 C 180.253906 299.21875 179.675781 298.460938 179.4375 297.558594 L 177.085938 288.632812 C 176.847656 287.726562 176.976562 286.785156 177.449219 285.972656 C 177.921875 285.164062 178.675781 284.585938 179.578125 284.347656 L 186.441406 282.535156 C 186.421875 279.5 186.832031 276.488281 187.65625 273.5625 L 181.523438 269.988281 C 180.714844 269.519531 180.136719 268.761719 179.898438 267.855469 C 179.660156 266.945312 179.789062 266.003906 180.257812 265.195312 L 184.90625 257.210938 C 185.378906 256.40625 186.132812 255.828125 187.039062 255.59375 C 187.949219 255.351562 188.890625 255.480469 189.699219 255.949219 L 195.832031 259.523438 C 197.964844 257.359375 200.382812 255.519531 203.039062 254.035156 L 201.230469 247.171875 C 200.992188 246.269531 201.121094 245.328125 201.59375 244.515625 C 202.0625 243.703125 202.824219 243.128906 203.726562 242.890625 L 212.652344 240.527344 C 214.519531 240.039062 216.441406 241.15625 216.941406 243.023438 L 218.75 249.890625 C 221.789062 249.871094 224.800781 250.28125 227.722656 251.105469 L 231.292969 244.972656 C 232.269531 243.300781 234.417969 242.734375 236.089844 243.707031 L 244.070312 248.355469 C 245.742188 249.328125 246.308594 251.480469 245.335938 253.148438 L 241.761719 259.285156 C 243.921875 261.417969 245.761719 263.835938 247.246094 266.488281 L 254.113281 264.675781 C 255.984375 264.183594 257.902344 265.304688 258.394531 267.167969 L 260.75 276.101562 C 260.988281 277 260.863281 277.945312 260.390625 278.757812 C 259.921875 279.570312 259.164062 280.148438 258.257812 280.386719 L 251.394531 282.195312 C 251.414062 285.234375 251.007812 288.25 250.179688 291.171875 L 256.3125 294.742188 C 257.980469 295.71875 258.550781 297.867188 257.578125 299.535156 L 252.929688 307.519531 C 252.460938 308.328125 251.699219 308.902344 250.792969 309.144531 C 249.886719 309.382812 248.941406 309.253906 248.132812 308.78125 L 242.003906 305.210938 C 239.863281 307.375 237.445312 309.214844 234.792969 310.695312 L 236.605469 317.5625 C 236.84375 318.457031 236.71875 319.398438 236.25 320.210938 C 235.777344 321.023438 235.019531 321.605469 234.113281 321.84375 L 225.179688 324.199219 C 224.882812 324.277344 224.582031 324.316406 224.28125 324.316406 " fill-opacity="1" fill-rule="nonzero"/></g><path fill="#5271ff" d="M 272.128906 199.628906 L 262.191406 193.835938 C 263.726562 188.929688 264.382812 183.886719 264.210938 178.898438 L 275.335938 175.96875 C 277.1875 175.480469 278.300781 173.570312 277.808594 171.726562 L 274.402344 158.824219 C 273.917969 156.980469 272.011719 155.871094 270.167969 156.355469 L 259.039062 159.292969 C 256.71875 154.875 253.664062 150.816406 249.914062 147.304688 L 255.703125 137.359375 C 256.664062 135.710938 256.097656 133.574219 254.453125 132.617188 L 242.917969 125.902344 C 241.273438 124.941406 239.136719 125.503906 238.175781 127.152344 L 232.382812 137.09375 C 227.480469 135.566406 222.4375 134.910156 217.449219 135.074219 L 214.519531 123.945312 C 214.027344 122.101562 212.117188 120.988281 210.273438 121.472656 L 197.375 124.882812 C 195.53125 125.367188 194.417969 127.277344 194.90625 129.125 L 197.839844 140.246094 C 193.425781 142.5625 189.359375 145.621094 185.851562 149.378906 L 175.90625 143.585938 C 174.253906 142.621094 172.121094 143.191406 171.164062 144.832031 L 164.445312 156.367188 C 163.488281 158.015625 164.046875 160.148438 165.699219 161.109375 L 175.644531 166.902344 C 174.113281 171.808594 173.457031 176.851562 173.621094 181.832031 L 162.496094 184.777344 C 160.65625 185.257812 159.539062 187.164062 160.027344 189.011719 L 163.429688 201.90625 C 163.914062 203.757812 165.824219 204.871094 167.671875 204.378906 L 178.796875 201.4375 C 181.117188 205.859375 184.171875 209.925781 187.925781 213.429688 L 182.132812 223.378906 C 181.175781 225.023438 181.742188 227.164062 183.386719 228.121094 L 194.917969 234.835938 C 196.566406 235.792969 198.703125 235.234375 199.660156 233.585938 L 205.453125 223.640625 C 210.355469 225.175781 215.398438 225.824219 220.386719 225.660156 L 223.320312 236.792969 C 223.808594 238.640625 225.710938 239.746094 227.558594 239.257812 L 240.457031 235.855469 C 242.308594 235.367188 243.417969 233.457031 242.925781 231.617188 L 239.988281 220.484375 C 244.410156 218.175781 248.476562 215.113281 251.984375 211.363281 L 261.925781 217.152344 C 263.574219 218.117188 265.710938 217.554688 266.675781 215.902344 L 273.390625 204.371094 C 274.351562 202.722656 273.785156 200.589844 272.128906 199.628906 Z M 207.625 199.757812 C 196.917969 193.523438 193.292969 179.785156 199.53125 169.078125 C 205.765625 158.375 219.503906 154.746094 230.210938 160.984375 C 240.917969 167.21875 244.539062 180.957031 238.304688 191.660156 C 232.070312 202.367188 218.332031 205.992188 207.625 199.757812 " fill-opacity="1" fill-rule="nonzero"/><g clip-path="url(#c11b95d6fc)"><path fill="#5271ff" d="M 218.953125 159.042969 C 211.605469 159.042969 204.441406 162.839844 200.484375 169.636719 C 197.617188 174.558594 196.835938 180.304688 198.292969 185.8125 C 199.746094 191.324219 203.257812 195.9375 208.179688 198.804688 C 213.105469 201.671875 218.851562 202.449219 224.359375 200.996094 C 229.871094 199.542969 234.484375 196.03125 237.351562 191.105469 C 243.269531 180.941406 239.816406 167.855469 229.65625 161.9375 C 226.285156 159.976562 222.597656 159.042969 218.953125 159.042969 Z M 218.878906 203.921875 C 214.769531 203.921875 210.714844 202.835938 207.070312 200.710938 C 201.636719 197.546875 197.761719 192.457031 196.15625 186.378906 C 194.550781 180.296875 195.410156 173.957031 198.578125 168.523438 C 205.109375 157.308594 219.546875 153.496094 230.765625 160.03125 C 236.199219 163.195312 240.074219 168.285156 241.675781 174.363281 C 243.28125 180.445312 242.421875 186.785156 239.257812 192.21875 C 236.09375 197.648438 231.003906 201.523438 224.925781 203.128906 C 222.921875 203.65625 220.894531 203.921875 218.878906 203.921875 Z M 221.230469 224.527344 L 224.386719 236.507812 C 224.546875 237.117188 224.9375 237.628906 225.484375 237.949219 C 226.03125 238.265625 226.667969 238.351562 227.273438 238.191406 L 240.175781 234.789062 C 240.785156 234.628906 241.300781 234.238281 241.621094 233.6875 C 241.9375 233.140625 242.023438 232.507812 241.859375 231.90625 L 238.699219 219.914062 L 239.476562 219.507812 C 243.859375 217.21875 247.792969 214.226562 251.179688 210.609375 L 251.78125 209.96875 L 262.480469 216.199219 C 263.023438 216.519531 263.660156 216.601562 264.277344 216.441406 C 264.890625 216.28125 265.402344 215.890625 265.71875 215.347656 L 272.4375 203.816406 C 273.09375 202.6875 272.707031 201.238281 271.574219 200.582031 L 260.875 194.347656 L 261.140625 193.507812 C 262.613281 188.785156 263.277344 183.882812 263.109375 178.9375 L 263.078125 178.058594 L 275.054688 174.898438 C 275.667969 174.738281 276.179688 174.347656 276.496094 173.796875 C 276.816406 173.25 276.902344 172.617188 276.742188 172.011719 L 273.335938 159.105469 C 273.003906 157.847656 271.707031 157.089844 270.445312 157.421875 L 258.46875 160.582031 L 258.0625 159.804688 C 255.761719 155.421875 252.765625 151.484375 249.15625 148.109375 L 248.515625 147.511719 L 254.75 136.804688 C 255.40625 135.675781 255.023438 134.226562 253.894531 133.570312 L 242.363281 126.855469 C 241.238281 126.195312 239.785156 126.578125 239.128906 127.707031 L 232.894531 138.410156 L 232.054688 138.148438 C 227.335938 136.675781 222.433594 136.011719 217.484375 136.175781 L 216.609375 136.203125 L 213.453125 124.226562 C 213.117188 122.96875 211.816406 122.210938 210.554688 122.539062 L 197.65625 125.949219 C 197.050781 126.109375 196.539062 126.5 196.21875 127.046875 C 195.902344 127.597656 195.8125 128.234375 195.972656 128.84375 L 199.132812 140.816406 L 198.355469 141.222656 C 193.964844 143.523438 190.03125 146.519531 186.65625 150.128906 L 186.054688 150.773438 L 175.351562 144.539062 C 174.808594 144.222656 174.171875 144.136719 173.558594 144.296875 C 172.945312 144.460938 172.433594 144.847656 172.117188 145.386719 L 165.398438 156.921875 C 164.742188 158.050781 165.128906 159.503906 166.253906 160.160156 L 176.957031 166.390625 L 176.695312 167.230469 C 175.222656 171.957031 174.558594 176.855469 174.722656 181.796875 L 174.753906 182.675781 L 162.777344 185.84375 C 162.171875 186 161.664062 186.390625 161.34375 186.9375 C 161.019531 187.484375 160.933594 188.125 161.09375 188.734375 L 164.496094 201.625 C 164.65625 202.238281 165.046875 202.746094 165.59375 203.066406 C 166.144531 203.386719 166.78125 203.476562 167.390625 203.316406 L 179.367188 200.144531 L 179.777344 200.925781 C 182.082031 205.324219 185.078125 209.261719 188.679688 212.625 L 189.320312 213.226562 L 183.085938 223.933594 C 182.769531 224.472656 182.6875 225.109375 182.851562 225.722656 C 183.011719 226.339844 183.402344 226.851562 183.941406 227.167969 L 195.472656 233.882812 C 196.601562 234.539062 198.050781 234.160156 198.707031 233.03125 L 204.945312 222.324219 L 205.785156 222.589844 C 210.484375 224.058594 215.386719 224.722656 220.351562 224.554688 Z M 226.667969 240.480469 C 225.871094 240.480469 225.085938 240.269531 224.375 239.855469 C 223.316406 239.238281 222.5625 238.25 222.253906 237.070312 L 219.542969 226.78125 C 214.925781 226.851562 210.367188 226.234375 205.96875 224.949219 L 200.613281 234.144531 C 199.347656 236.320312 196.542969 237.058594 194.363281 235.789062 L 182.832031 229.074219 C 181.78125 228.460938 181.03125 227.472656 180.71875 226.289062 C 180.402344 225.105469 180.566406 223.871094 181.179688 222.824219 L 186.53125 213.628906 C 183.242188 210.433594 180.457031 206.773438 178.238281 202.726562 L 167.957031 205.449219 C 166.773438 205.757812 165.542969 205.589844 164.484375 204.976562 C 163.425781 204.359375 162.671875 203.367188 162.359375 202.1875 L 158.960938 189.292969 C 158.648438 188.117188 158.816406 186.882812 159.4375 185.824219 C 160.054688 184.765625 161.039062 184.015625 162.214844 183.707031 L 172.496094 180.988281 C 172.429688 176.390625 173.046875 171.835938 174.335938 167.417969 L 165.144531 162.066406 C 162.964844 160.796875 162.222656 157.992188 163.492188 155.8125 L 170.210938 144.277344 C 170.824219 143.226562 171.8125 142.476562 172.996094 142.164062 C 174.175781 141.851562 175.410156 142.019531 176.460938 142.632812 L 185.652344 147.984375 C 188.855469 144.6875 192.511719 141.902344 196.550781 139.683594 L 193.839844 129.40625 C 193.527344 128.226562 193.699219 126.996094 194.3125 125.9375 C 194.929688 124.878906 195.917969 124.125 197.09375 123.816406 L 209.992188 120.40625 C 212.429688 119.769531 214.9375 121.226562 215.585938 123.664062 L 218.292969 133.949219 C 222.898438 133.886719 227.453125 134.5 231.867188 135.789062 L 237.222656 126.597656 C 238.492188 124.417969 241.296875 123.679688 243.476562 124.945312 L 255.007812 131.664062 C 257.1875 132.929688 257.925781 135.738281 256.65625 137.914062 L 251.304688 147.109375 C 254.597656 150.308594 257.382812 153.96875 259.597656 158.003906 L 269.882812 155.289062 C 272.320312 154.648438 274.828125 156.109375 275.46875 158.539062 L 278.875 171.445312 C 279.1875 172.621094 279.019531 173.847656 278.40625 174.90625 C 277.789062 175.96875 276.800781 176.722656 275.621094 177.035156 L 265.335938 179.746094 C 265.40625 184.347656 264.789062 188.90625 263.5 193.320312 L 272.6875 198.671875 C 274.867188 199.941406 275.613281 202.746094 274.34375 204.925781 L 267.625 216.460938 C 267.011719 217.511719 266.023438 218.265625 264.835938 218.574219 C 263.65625 218.886719 262.421875 218.722656 261.367188 218.105469 L 252.179688 212.753906 C 248.972656 216.058594 245.3125 218.839844 241.277344 221.046875 L 243.992188 231.335938 C 244.304688 232.507812 244.140625 233.734375 243.527344 234.792969 C 242.914062 235.855469 241.921875 236.613281 240.742188 236.925781 L 227.839844 240.324219 C 227.453125 240.425781 227.058594 240.480469 226.667969 240.480469 " fill-opacity="1" fill-rule="nonzero"/></g><path fill="#5271ff" d="M 184.390625 237.523438 L 175.632812 237.523438 C 174.761719 233.707031 173.261719 230.136719 171.238281 226.925781 L 177.4375 220.730469 C 178.464844 219.703125 178.464844 218.019531 177.4375 216.996094 L 170.25 209.808594 C 169.226562 208.785156 167.546875 208.785156 166.519531 209.808594 L 160.324219 216.003906 C 157.105469 213.988281 153.539062 212.488281 149.726562 211.617188 L 149.726562 202.855469 C 149.726562 201.402344 148.539062 200.214844 147.085938 200.214844 L 136.925781 200.214844 C 135.476562 200.214844 134.28125 201.402344 134.28125 202.855469 L 134.28125 211.617188 C 130.46875 212.488281 126.902344 213.988281 123.683594 216.003906 L 117.492188 209.808594 C 116.460938 208.785156 114.78125 208.785156 113.753906 209.808594 L 106.574219 216.996094 C 105.546875 218.019531 105.546875 219.703125 106.574219 220.730469 L 112.765625 226.925781 C 110.746094 230.136719 109.246094 233.710938 108.375 237.523438 L 99.617188 237.523438 C 98.160156 237.523438 96.972656 238.714844 96.972656 240.160156 L 96.972656 250.324219 C 96.972656 251.777344 98.160156 252.964844 99.617188 252.964844 L 108.375 252.964844 C 109.25 256.777344 110.746094 260.347656 112.765625 263.5625 L 106.574219 269.761719 C 105.550781 270.78125 105.546875 272.464844 106.574219 273.492188 L 113.753906 280.675781 C 114.78125 281.703125 116.460938 281.703125 117.492188 280.675781 L 123.683594 274.476562 C 126.902344 276.496094 130.46875 278 134.28125 278.867188 L 134.28125 287.632812 C 134.28125 289.082031 135.476562 290.269531 136.925781 290.269531 L 147.085938 290.269531 C 148.539062 290.269531 149.726562 289.082031 149.726562 287.632812 L 149.726562 278.867188 C 153.539062 278 157.105469 276.496094 160.324219 274.476562 L 166.519531 280.675781 C 167.546875 281.703125 169.226562 281.703125 170.25 280.675781 L 177.4375 273.492188 C 178.464844 272.464844 178.464844 270.78125 177.4375 269.761719 L 171.234375 263.5625 C 173.261719 260.347656 174.761719 256.773438 175.632812 252.964844 L 184.390625 252.964844 C 185.847656 252.964844 187.035156 251.777344 187.035156 250.324219 L 187.035156 240.160156 C 187.035156 238.710938 185.847656 237.523438 184.390625 237.523438 Z M 142.003906 262.324219 C 132.574219 262.324219 124.925781 254.679688 124.925781 245.246094 C 124.925781 235.8125 132.574219 228.164062 142.003906 228.164062 C 151.4375 228.164062 159.085938 235.8125 159.085938 245.246094 C 159.085938 254.679688 151.4375 262.324219 142.003906 262.324219 " fill-opacity="1" fill-rule="nonzero"/><g clip-path="url(#45d10d5612)"><path fill="#5271ff" d="M 142.003906 229.265625 C 133.195312 229.265625 126.027344 236.433594 126.027344 245.246094 C 126.027344 254.054688 133.195312 261.222656 142.003906 261.222656 C 150.816406 261.222656 157.980469 254.054688 157.980469 245.246094 C 157.980469 236.433594 150.816406 229.265625 142.003906 229.265625 Z M 142.003906 263.429688 C 131.980469 263.429688 123.820312 255.269531 123.820312 245.246094 C 123.820312 235.21875 131.980469 227.058594 142.003906 227.058594 C 152.03125 227.058594 160.1875 235.21875 160.1875 245.246094 C 160.1875 255.269531 152.03125 263.429688 142.003906 263.429688 Z M 123.527344 273.074219 L 124.269531 273.542969 C 127.445312 275.535156 130.898438 276.964844 134.527344 277.792969 L 135.386719 277.988281 L 135.386719 287.632812 C 135.386719 288.464844 136.089844 289.167969 136.925781 289.167969 L 147.085938 289.167969 C 147.933594 289.167969 148.625 288.480469 148.625 287.632812 L 148.625 277.988281 L 149.480469 277.792969 C 153.109375 276.96875 156.558594 275.535156 159.738281 273.542969 L 160.480469 273.074219 L 167.296875 279.894531 C 167.589844 280.183594 167.972656 280.34375 168.386719 280.34375 C 168.796875 280.34375 169.183594 280.183594 169.46875 279.894531 L 176.65625 272.714844 C 176.945312 272.421875 177.105469 272.035156 177.101562 271.621094 C 177.101562 271.210938 176.945312 270.828125 176.660156 270.546875 L 169.832031 263.71875 L 170.300781 262.972656 C 172.292969 259.816406 173.722656 256.367188 174.558594 252.71875 L 174.753906 251.859375 L 184.390625 251.859375 C 185.242188 251.859375 185.933594 251.171875 185.933594 250.324219 L 185.933594 240.160156 C 185.933594 239.316406 185.242188 238.628906 184.390625 238.628906 L 174.753906 238.628906 L 174.558594 237.769531 C 173.726562 234.128906 172.292969 230.675781 170.304688 227.511719 L 169.835938 226.765625 L 176.65625 219.949219 C 176.945312 219.660156 177.105469 219.273438 177.101562 218.859375 C 177.101562 218.449219 176.945312 218.0625 176.65625 217.777344 L 169.472656 210.589844 C 168.871094 209.992188 167.898438 209.992188 167.296875 210.59375 L 160.480469 217.410156 L 159.738281 216.941406 C 156.566406 214.953125 153.117188 213.523438 149.480469 212.691406 L 148.625 212.496094 L 148.625 202.855469 C 148.625 202.007812 147.933594 201.316406 147.085938 201.316406 L 136.925781 201.316406 C 136.078125 201.316406 135.386719 202.007812 135.386719 202.855469 L 135.386719 212.496094 L 134.527344 212.691406 C 130.890625 213.523438 127.4375 214.953125 124.269531 216.941406 L 123.527344 217.410156 L 116.710938 210.589844 C 116.109375 209.992188 115.132812 209.992188 114.53125 210.59375 L 107.355469 217.773438 C 107.066406 218.0625 106.90625 218.449219 106.90625 218.863281 C 106.90625 219.273438 107.066406 219.664062 107.355469 219.953125 L 114.167969 226.765625 L 113.699219 227.511719 C 111.710938 230.679688 110.28125 234.128906 109.453125 237.769531 L 109.257812 238.628906 L 99.613281 238.628906 C 98.769531 238.628906 98.078125 239.316406 98.078125 240.160156 L 98.078125 250.324219 C 98.078125 251.171875 98.769531 251.859375 99.613281 251.859375 L 109.257812 251.859375 L 109.453125 252.71875 C 110.285156 256.363281 111.714844 259.8125 113.699219 262.972656 L 114.167969 263.71875 L 107.355469 270.542969 C 107.066406 270.828125 106.90625 271.210938 106.90625 271.625 C 106.90625 272.039062 107.066406 272.425781 107.355469 272.714844 L 114.535156 279.894531 C 115.109375 280.472656 116.132812 280.472656 116.710938 279.894531 Z M 147.085938 291.375 L 136.925781 291.375 C 134.859375 291.375 133.179688 289.695312 133.179688 287.632812 L 133.179688 279.738281 C 129.90625 278.90625 126.773438 277.605469 123.851562 275.871094 L 118.273438 281.453125 C 117.566406 282.160156 116.625 282.550781 115.621094 282.550781 C 114.621094 282.550781 113.679688 282.160156 112.972656 281.453125 L 105.792969 274.273438 C 105.085938 273.566406 104.699219 272.625 104.699219 271.621094 C 104.703125 270.621094 105.089844 269.679688 105.796875 268.980469 L 111.371094 263.398438 C 109.640625 260.484375 108.34375 257.355469 107.507812 254.066406 L 99.613281 254.066406 C 97.550781 254.066406 95.871094 252.390625 95.871094 250.324219 L 95.871094 240.160156 C 95.871094 238.101562 97.550781 236.421875 99.613281 236.421875 L 107.507812 236.421875 C 108.34375 233.140625 109.640625 230.007812 111.371094 227.089844 L 105.792969 221.511719 C 105.085938 220.804688 104.699219 219.863281 104.699219 218.863281 C 104.699219 217.859375 105.089844 216.917969 105.792969 216.214844 L 112.972656 209.03125 C 114.433594 207.574219 116.8125 207.574219 118.269531 209.027344 L 123.851562 214.613281 C 126.765625 212.882812 129.898438 211.585938 133.179688 210.746094 L 133.179688 202.855469 C 133.179688 200.789062 134.859375 199.113281 136.925781 199.113281 L 147.085938 199.113281 C 149.148438 199.113281 150.832031 200.789062 150.832031 202.855469 L 150.832031 210.746094 C 154.109375 211.585938 157.242188 212.882812 160.15625 214.613281 L 165.738281 209.03125 C 167.199219 207.574219 169.574219 207.574219 171.03125 209.03125 L 178.214844 216.214844 C 178.921875 216.914062 179.308594 217.855469 179.308594 218.855469 C 179.3125 219.863281 178.921875 220.804688 178.214844 221.511719 L 172.632812 227.089844 C 174.367188 230.003906 175.664062 233.136719 176.5 236.421875 L 184.390625 236.421875 C 186.457031 236.421875 188.140625 238.101562 188.140625 240.160156 L 188.140625 250.324219 C 188.140625 252.390625 186.457031 254.066406 184.390625 254.066406 L 176.5 254.066406 C 175.664062 257.359375 174.367188 260.488281 172.632812 263.398438 L 178.214844 268.980469 C 178.917969 269.679688 179.308594 270.617188 179.308594 271.617188 C 179.3125 272.621094 178.925781 273.566406 178.214844 274.273438 L 171.03125 281.453125 C 170.328125 282.160156 169.390625 282.550781 168.386719 282.550781 C 167.382812 282.550781 166.445312 282.160156 165.738281 281.453125 L 160.15625 275.871094 C 157.234375 277.605469 154.105469 278.90625 150.832031 279.738281 L 150.832031 287.632812 C 150.832031 289.695312 149.148438 291.375 147.085938 291.375 " fill-opacity="1" fill-rule="nonzero"/></g></svg>