<svg xmlns="http://www.w3.org/2000/svg" xmlns:xlink="http://www.w3.org/1999/xlink" width="500" zoomAndPan="magnify" viewBox="0 0 375 374.999991" height="500" preserveAspectRatio="xMidYMid meet" version="1.0"><defs><clipPath id="faa752f676"><path d="M 179 258 L 246 258 L 246 324.367188 L 179 324.367188 Z M 179 258 " clip-rule="nonzero"/></clipPath><clipPath id="22e248a759"><path d="M 164 162.367188 L 260.25 162.367188 L 260.25 259 L 164 259 Z M 164 162.367188 " clip-rule="nonzero"/></clipPath><clipPath id="3c72c0366f"><path d="M 114.75 225 L 189 225 L 189 299 L 114.75 299 Z M 114.75 225 " clip-rule="nonzero"/></clipPath></defs><path fill="#ffbd59" d="M 339.457031 140.625 L 110.648438 140.625 C 109.425781 140.625 108.210938 140.71875 107.003906 140.910156 C 105.792969 141.097656 104.609375 141.382812 103.445312 141.757812 C 102.28125 142.132812 101.152344 142.597656 100.0625 143.148438 C 98.972656 143.699219 97.929688 144.335938 96.9375 145.050781 C 95.945312 145.765625 95.015625 146.550781 94.148438 147.414062 C 93.277344 148.273438 92.484375 149.195312 91.757812 150.179688 C 91.035156 151.164062 90.390625 152.203125 89.828125 153.289062 C 89.265625 154.375 88.792969 155.496094 88.40625 156.65625 L 46.875 281.25 L 46.875 117.1875 L 328.125 117.1875 C 328.125 116.417969 328.085938 115.652344 328.011719 114.890625 C 327.9375 114.125 327.824219 113.367188 327.675781 112.613281 C 327.523438 111.863281 327.339844 111.117188 327.117188 110.382812 C 326.894531 109.648438 326.632812 108.925781 326.339844 108.21875 C 326.046875 107.507812 325.71875 106.816406 325.359375 106.140625 C 324.996094 105.460938 324.601562 104.804688 324.175781 104.167969 C 323.75 103.527344 323.292969 102.914062 322.804688 102.320312 C 322.316406 101.726562 321.804688 101.15625 321.261719 100.613281 C 320.71875 100.070312 320.148438 99.558594 319.554688 99.070312 C 318.960938 98.582031 318.347656 98.125 317.707031 97.699219 C 317.070312 97.273438 316.414062 96.878906 315.734375 96.515625 C 315.058594 96.15625 314.367188 95.828125 313.65625 95.535156 C 312.949219 95.242188 312.226562 94.980469 311.492188 94.757812 C 310.757812 94.535156 310.011719 94.351562 309.261719 94.199219 C 308.507812 94.050781 307.75 93.9375 306.984375 93.863281 C 306.222656 93.789062 305.457031 93.75 304.6875 93.75 L 177.234375 93.75 C 174.492188 93.75 171.835938 93.28125 169.257812 92.347656 C 166.679688 91.414062 164.339844 90.066406 162.234375 88.3125 L 147.140625 75.75 C 145.035156 73.996094 142.695312 72.648438 140.117188 71.714844 C 137.539062 70.78125 134.882812 70.3125 132.140625 70.3125 L 46.875 70.3125 C 46.105469 70.3125 45.339844 70.351562 44.578125 70.425781 C 43.8125 70.5 43.054688 70.613281 42.300781 70.761719 C 41.550781 70.914062 40.804688 71.097656 40.070312 71.320312 C 39.335938 71.542969 38.613281 71.804688 37.90625 72.097656 C 37.195312 72.390625 36.503906 72.71875 35.828125 73.078125 C 35.148438 73.441406 34.492188 73.835938 33.855469 74.261719 C 33.214844 74.6875 32.601562 75.144531 32.007812 75.632812 C 31.414062 76.121094 30.84375 76.632812 30.300781 77.175781 C 29.757812 77.71875 29.246094 78.289062 28.757812 78.882812 C 28.269531 79.476562 27.8125 80.089844 27.386719 80.730469 C 26.960938 81.367188 26.566406 82.023438 26.203125 82.703125 C 25.84375 83.378906 25.515625 84.070312 25.222656 84.78125 C 24.929688 85.488281 24.667969 86.210938 24.445312 86.945312 C 24.222656 87.679688 24.039062 88.425781 23.886719 89.175781 C 23.738281 89.929688 23.625 90.6875 23.550781 91.453125 C 23.476562 92.214844 23.4375 92.980469 23.4375 93.75 L 23.4375 281.25 C 23.4375 282.019531 23.476562 282.785156 23.550781 283.546875 C 23.625 284.3125 23.738281 285.070312 23.886719 285.824219 C 24.039062 286.574219 24.222656 287.320312 24.445312 288.054688 C 24.667969 288.789062 24.929688 289.511719 25.222656 290.21875 C 25.515625 290.929688 25.84375 291.621094 26.203125 292.296875 C 26.566406 292.976562 26.960938 293.632812 27.386719 294.269531 C 27.8125 294.910156 28.269531 295.523438 28.757812 296.117188 C 29.246094 296.710938 29.757812 297.28125 30.300781 297.824219 C 30.84375 298.367188 31.414062 298.878906 32.007812 299.367188 C 32.601562 299.855469 33.214844 300.3125 33.855469 300.738281 C 34.492188 301.164062 35.148438 301.558594 35.828125 301.921875 C 36.503906 302.28125 37.195312 302.609375 37.90625 302.902344 C 38.613281 303.195312 39.335938 303.457031 40.070312 303.679688 C 40.804688 303.902344 41.550781 304.085938 42.300781 304.238281 C 43.054688 304.386719 43.8125 304.5 44.578125 304.574219 C 45.339844 304.648438 46.105469 304.6875 46.875 304.6875 L 304.6875 304.6875 L 360.996094 173.296875 C 361.1875 172.851562 361.363281 172.40625 361.523438 171.949219 C 361.6875 171.496094 361.835938 171.035156 361.96875 170.574219 C 362.101562 170.109375 362.222656 169.644531 362.328125 169.171875 C 362.433594 168.699219 362.523438 168.226562 362.601562 167.75 C 362.675781 167.273438 362.738281 166.796875 362.785156 166.316406 C 362.828125 165.835938 362.859375 165.355469 362.878906 164.871094 C 362.894531 164.390625 362.894531 163.90625 362.882812 163.425781 C 362.871094 162.941406 362.84375 162.460938 362.800781 161.980469 C 362.757812 161.5 362.699219 161.019531 362.625 160.542969 C 362.554688 160.066406 362.46875 159.59375 362.363281 159.121094 C 362.261719 158.648438 362.148438 158.179688 362.015625 157.71875 C 361.886719 157.253906 361.742188 156.792969 361.582031 156.335938 C 361.421875 155.882812 361.25 155.429688 361.0625 154.988281 C 360.875 154.542969 360.675781 154.101562 360.460938 153.671875 C 360.25 153.238281 360.019531 152.8125 359.78125 152.394531 C 359.539062 151.976562 359.289062 151.566406 359.023438 151.164062 C 358.757812 150.757812 358.480469 150.363281 358.1875 149.980469 C 357.898438 149.59375 357.597656 149.21875 357.285156 148.851562 C 356.972656 148.484375 356.648438 148.125 356.3125 147.777344 C 355.976562 147.433594 355.632812 147.097656 355.273438 146.769531 C 354.917969 146.445312 354.554688 146.128906 354.179688 145.828125 C 353.800781 145.523438 353.417969 145.234375 353.023438 144.953125 C 352.632812 144.675781 352.230469 144.40625 351.820312 144.152344 C 351.410156 143.898438 350.992188 143.65625 350.566406 143.425781 C 350.144531 143.199219 349.710938 142.984375 349.273438 142.78125 C 348.835938 142.578125 348.390625 142.390625 347.941406 142.214844 C 347.492188 142.039062 347.039062 141.878906 346.578125 141.734375 C 346.117188 141.585938 345.652344 141.453125 345.1875 141.335938 C 344.71875 141.21875 344.246094 141.117188 343.773438 141.027344 C 343.300781 140.9375 342.824219 140.863281 342.34375 140.804688 C 341.863281 140.746094 341.382812 140.699219 340.902344 140.667969 C 340.421875 140.640625 339.941406 140.625 339.457031 140.625 Z M 339.457031 140.625 " fill-opacity="1" fill-rule="nonzero"/><path fill="#ff914d" d="M 175.78125 257.8125 L 363.28125 257.8125 C 364.050781 257.8125 364.8125 257.886719 365.566406 258.039062 C 366.320312 258.1875 367.054688 258.410156 367.765625 258.703125 C 368.476562 259 369.152344 259.359375 369.792969 259.789062 C 370.429688 260.214844 371.023438 260.699219 371.566406 261.246094 C 372.113281 261.789062 372.597656 262.378906 373.023438 263.019531 C 373.453125 263.660156 373.8125 264.335938 374.109375 265.046875 C 374.402344 265.757812 374.625 266.492188 374.773438 267.246094 C 374.925781 268 375 268.761719 375 269.53125 L 375 316.40625 C 375 317.175781 374.925781 317.9375 374.773438 318.691406 C 374.625 319.445312 374.402344 320.179688 374.109375 320.890625 C 373.8125 321.601562 373.453125 322.277344 373.023438 322.917969 C 372.597656 323.554688 372.113281 324.148438 371.566406 324.691406 C 371.023438 325.238281 370.429688 325.722656 369.792969 326.148438 C 369.152344 326.578125 368.476562 326.9375 367.765625 327.234375 C 367.054688 327.527344 366.320312 327.75 365.566406 327.898438 C 364.8125 328.050781 364.050781 328.125 363.28125 328.125 L 175.78125 328.125 C 175.011719 328.125 174.25 328.050781 173.496094 327.898438 C 172.742188 327.75 172.007812 327.527344 171.296875 327.234375 C 170.585938 326.9375 169.910156 326.578125 169.269531 326.148438 C 168.628906 325.722656 168.039062 325.238281 167.496094 324.691406 C 166.949219 324.148438 166.464844 323.554688 166.039062 322.917969 C 165.609375 322.277344 165.25 321.601562 164.953125 320.890625 C 164.660156 320.179688 164.4375 319.445312 164.289062 318.691406 C 164.136719 317.9375 164.0625 317.175781 164.0625 316.40625 L 164.0625 269.53125 C 164.0625 268.761719 164.136719 268 164.289062 267.246094 C 164.4375 266.492188 164.660156 265.757812 164.953125 265.046875 C 165.25 264.335938 165.609375 263.660156 166.039062 263.019531 C 166.464844 262.378906 166.949219 261.789062 167.496094 261.246094 C 168.039062 260.699219 168.628906 260.214844 169.269531 259.789062 C 169.910156 259.359375 170.585938 259 171.296875 258.703125 C 172.007812 258.410156 172.742188 258.1875 173.496094 258.039062 C 174.25 257.886719 175.011719 257.8125 175.78125 257.8125 Z M 175.78125 257.8125 " fill-opacity="1" fill-rule="nonzero"/><path fill="#5271ff" d="M 241.675781 301.992188 L 236.214844 298.8125 C 237.058594 296.117188 237.417969 293.34375 237.324219 290.605469 L 243.4375 288.996094 C 244.453125 288.726562 245.066406 287.675781 244.796875 286.664062 L 242.925781 279.574219 C 242.65625 278.5625 241.609375 277.949219 240.59375 278.21875 L 234.480469 279.832031 C 233.207031 277.402344 231.527344 275.171875 229.46875 273.246094 L 232.648438 267.78125 C 233.175781 266.875 232.867188 265.699219 231.960938 265.171875 L 225.625 261.484375 C 224.722656 260.957031 223.546875 261.265625 223.019531 262.171875 L 219.835938 267.636719 C 217.140625 266.792969 214.371094 266.433594 211.628906 266.523438 L 210.019531 260.410156 C 209.75 259.394531 208.699219 258.785156 207.6875 259.050781 L 200.601562 260.925781 C 199.585938 261.191406 198.976562 262.238281 199.242188 263.253906 L 200.855469 269.367188 C 198.429688 270.636719 196.195312 272.320312 194.269531 274.382812 L 188.804688 271.199219 C 187.898438 270.671875 186.726562 270.984375 186.199219 271.886719 L 182.507812 278.222656 C 181.980469 279.128906 182.289062 280.300781 183.195312 280.832031 L 188.660156 284.011719 C 187.820312 286.707031 187.457031 289.480469 187.546875 292.214844 L 181.433594 293.832031 C 180.425781 294.097656 179.8125 295.144531 180.078125 296.160156 L 181.949219 303.246094 C 182.214844 304.261719 183.265625 304.875 184.28125 304.605469 L 190.394531 302.988281 C 191.667969 305.417969 193.34375 307.652344 195.40625 309.578125 L 192.226562 315.042969 C 191.699219 315.949219 192.011719 317.121094 192.914062 317.648438 L 199.25 321.339844 C 200.15625 321.867188 201.332031 321.554688 201.855469 320.652344 L 205.039062 315.1875 C 207.734375 316.03125 210.503906 316.386719 213.246094 316.296875 L 214.855469 322.414062 C 215.125 323.429688 216.171875 324.039062 217.183594 323.769531 L 224.273438 321.898438 C 225.289062 321.632812 225.898438 320.582031 225.628906 319.574219 L 224.015625 313.453125 C 226.445312 312.183594 228.679688 310.503906 230.605469 308.441406 L 236.066406 311.621094 C 236.976562 312.152344 238.148438 311.84375 238.675781 310.9375 L 242.367188 304.597656 C 242.894531 303.695312 242.582031 302.519531 241.675781 301.992188 Z M 206.234375 302.066406 C 200.351562 298.640625 198.359375 291.09375 201.785156 285.210938 C 205.210938 279.328125 212.757812 277.332031 218.640625 280.761719 C 224.523438 284.1875 226.515625 291.734375 223.089844 297.617188 C 219.664062 303.5 212.117188 305.492188 206.234375 302.066406 " fill-opacity="1" fill-rule="nonzero"/><g clip-path="url(#faa752f676)"><path fill="#5271ff" d="M 206.675781 301.308594 C 212.128906 304.488281 219.15625 302.632812 222.332031 297.175781 C 223.871094 294.535156 224.289062 291.449219 223.511719 288.492188 C 222.730469 285.535156 220.84375 283.054688 218.199219 281.515625 C 215.558594 279.976562 212.472656 279.558594 209.515625 280.339844 C 206.558594 281.121094 204.082031 283.007812 202.542969 285.648438 C 201.003906 288.292969 200.585938 291.375 201.363281 294.335938 C 202.144531 297.292969 204.03125 299.769531 206.675781 301.308594 Z M 212.414062 304.613281 C 210.160156 304.613281 207.878906 304.035156 205.792969 302.824219 C 202.746094 301.046875 200.570312 298.191406 199.671875 294.78125 C 198.769531 291.371094 199.253906 287.816406 201.027344 284.769531 C 202.804688 281.722656 205.65625 279.546875 209.066406 278.644531 C 212.476562 277.746094 216.035156 278.230469 219.082031 280.003906 C 222.128906 281.777344 224.300781 284.632812 225.203125 288.042969 C 226.101562 291.453125 225.621094 295.011719 223.84375 298.058594 C 221.394531 302.265625 216.964844 304.613281 212.414062 304.613281 Z M 213.914062 315.398438 L 215.703125 322.191406 C 215.773438 322.453125 215.941406 322.675781 216.183594 322.816406 C 216.421875 322.957031 216.695312 322.992188 216.960938 322.921875 L 224.050781 321.054688 C 224.316406 320.984375 224.539062 320.8125 224.675781 320.570312 C 224.816406 320.335938 224.851562 320.058594 224.78125 319.800781 L 222.988281 313 L 223.609375 312.679688 C 225.988281 311.433594 228.128906 309.808594 229.964844 307.84375 L 230.441406 307.335938 L 236.507812 310.867188 C 236.746094 311.003906 237.023438 311.042969 237.292969 310.972656 C 237.558594 310.902344 237.78125 310.730469 237.921875 310.496094 L 241.609375 304.15625 C 241.898438 303.667969 241.726562 303.035156 241.234375 302.75 L 235.171875 299.21875 L 235.378906 298.550781 C 236.179688 295.984375 236.539062 293.324219 236.449219 290.636719 L 236.425781 289.9375 L 243.214844 288.148438 C 243.480469 288.078125 243.703125 287.90625 243.84375 287.667969 C 243.980469 287.425781 244.019531 287.152344 243.949219 286.886719 L 242.078125 279.796875 C 241.933594 279.25 241.367188 278.917969 240.820312 279.066406 L 234.03125 280.855469 L 233.707031 280.238281 C 232.457031 277.855469 230.828125 275.71875 228.871094 273.882812 L 228.359375 273.40625 L 231.894531 267.339844 C 232.179688 266.847656 232.011719 266.214844 231.519531 265.929688 L 225.183594 262.242188 C 224.699219 261.957031 224.054688 262.128906 223.773438 262.613281 L 220.242188 268.679688 L 219.574219 268.472656 C 217.011719 267.671875 214.347656 267.308594 211.660156 267.398438 L 210.964844 267.421875 L 209.171875 260.632812 C 209.027344 260.085938 208.460938 259.753906 207.910156 259.898438 L 200.824219 261.773438 C 200.558594 261.839844 200.339844 262.011719 200.199219 262.25 C 200.058594 262.488281 200.019531 262.765625 200.089844 263.03125 L 201.882812 269.816406 L 201.261719 270.140625 C 198.878906 271.390625 196.742188 273.019531 194.910156 274.980469 L 194.433594 275.492188 L 188.363281 271.957031 C 188.128906 271.820312 187.851562 271.78125 187.582031 271.851562 C 187.316406 271.925781 187.09375 272.09375 186.957031 272.328125 L 183.265625 278.664062 C 183.128906 278.902344 183.089844 279.179688 183.160156 279.445312 C 183.230469 279.714844 183.402344 279.9375 183.636719 280.074219 L 189.703125 283.609375 L 189.496094 284.273438 C 188.695312 286.839844 188.335938 289.503906 188.425781 292.1875 L 188.449219 292.886719 L 181.660156 294.679688 C 181.394531 294.75 181.175781 294.917969 181.035156 295.15625 C 180.894531 295.394531 180.855469 295.671875 180.925781 295.9375 L 182.792969 303.023438 C 182.863281 303.289062 183.035156 303.511719 183.273438 303.648438 C 183.511719 303.789062 183.789062 303.828125 184.054688 303.757812 L 190.84375 301.964844 L 191.167969 302.582031 C 192.421875 304.972656 194.050781 307.109375 196.003906 308.9375 L 196.515625 309.414062 L 192.980469 315.484375 C 192.84375 315.71875 192.808594 315.996094 192.878906 316.261719 C 192.953125 316.53125 193.121094 316.753906 193.355469 316.894531 L 199.691406 320.582031 C 200.183594 320.867188 200.816406 320.703125 201.097656 320.210938 L 204.632812 314.144531 L 205.300781 314.351562 C 207.855469 315.152344 210.519531 315.511719 213.214844 315.421875 Z M 216.695312 324.710938 C 216.210938 324.710938 215.730469 324.582031 215.300781 324.332031 C 214.65625 323.957031 214.199219 323.355469 214.007812 322.636719 L 212.570312 317.1875 C 210.140625 317.199219 207.761719 316.878906 205.449219 316.222656 L 202.613281 321.09375 C 201.839844 322.417969 200.136719 322.867188 198.808594 322.097656 L 192.472656 318.40625 C 191.835938 318.035156 191.378906 317.433594 191.1875 316.710938 C 190.996094 315.992188 191.097656 315.242188 191.46875 314.601562 L 194.304688 309.734375 C 192.59375 308.042969 191.132812 306.125 189.953125 304.011719 L 184.503906 305.453125 C 183.785156 305.640625 183.035156 305.539062 182.390625 305.164062 C 181.75 304.789062 181.289062 304.1875 181.101562 303.46875 L 179.234375 296.386719 C 179.042969 295.667969 179.148438 294.917969 179.519531 294.273438 C 179.894531 293.632812 180.496094 293.171875 181.210938 292.984375 L 186.660156 291.546875 C 186.644531 289.136719 186.96875 286.746094 187.625 284.421875 L 182.753906 281.589844 C 182.113281 281.214844 181.65625 280.613281 181.46875 279.894531 C 181.277344 279.171875 181.378906 278.425781 181.753906 277.785156 L 185.441406 271.445312 C 185.816406 270.804688 186.414062 270.347656 187.136719 270.160156 C 187.855469 269.96875 188.605469 270.070312 189.246094 270.445312 L 194.113281 273.28125 C 195.808594 271.5625 197.726562 270.101562 199.835938 268.925781 L 198.398438 263.476562 C 198.207031 262.761719 198.308594 262.011719 198.683594 261.367188 C 199.058594 260.726562 199.664062 260.265625 200.378906 260.078125 L 207.464844 258.203125 C 208.945312 257.816406 210.472656 258.703125 210.867188 260.183594 L 212.300781 265.636719 C 214.714844 265.617188 217.105469 265.945312 219.425781 266.597656 L 222.261719 261.730469 C 223.035156 260.40625 224.742188 259.953125 226.066406 260.726562 L 232.402344 264.417969 C 233.726562 265.1875 234.179688 266.898438 233.40625 268.222656 L 230.570312 273.089844 C 232.285156 274.785156 233.746094 276.703125 234.921875 278.808594 L 240.371094 277.371094 C 241.855469 276.980469 243.378906 277.867188 243.769531 279.347656 L 245.640625 286.4375 C 245.832031 287.152344 245.730469 287.902344 245.355469 288.546875 C 244.984375 289.191406 244.378906 289.652344 243.660156 289.839844 L 238.214844 291.277344 C 238.230469 293.6875 237.90625 296.082031 237.25 298.402344 L 242.117188 301.238281 C 243.441406 302.007812 243.894531 303.714844 243.125 305.039062 L 239.433594 311.378906 C 239.058594 312.019531 238.457031 312.476562 237.738281 312.664062 C 237.015625 312.855469 236.269531 312.753906 235.625 312.378906 L 230.761719 309.546875 C 229.0625 311.261719 227.144531 312.722656 225.039062 313.898438 L 226.476562 319.347656 C 226.664062 320.058594 226.566406 320.808594 226.195312 321.449219 C 225.820312 322.097656 225.214844 322.558594 224.496094 322.746094 L 217.410156 324.613281 C 217.171875 324.679688 216.933594 324.710938 216.695312 324.710938 " fill-opacity="1" fill-rule="nonzero"/></g><path fill="#5271ff" d="M 254.675781 225.738281 L 246.785156 221.144531 C 248.003906 217.246094 248.523438 213.246094 248.390625 209.289062 L 257.21875 206.960938 C 258.6875 206.574219 259.570312 205.058594 259.179688 203.59375 L 256.476562 193.351562 C 256.089844 191.890625 254.578125 191.007812 253.117188 191.390625 L 244.28125 193.722656 C 242.441406 190.214844 240.015625 186.996094 237.039062 184.210938 L 241.636719 176.316406 C 242.398438 175.007812 241.949219 173.3125 240.640625 172.550781 L 231.488281 167.21875 C 230.183594 166.460938 228.484375 166.902344 227.722656 168.214844 L 223.125 176.105469 C 219.234375 174.890625 215.230469 174.371094 211.273438 174.5 L 208.945312 165.667969 C 208.554688 164.203125 207.039062 163.320312 205.574219 163.707031 L 195.339844 166.414062 C 193.875 166.796875 192.992188 168.3125 193.378906 169.777344 L 195.707031 178.605469 C 192.203125 180.445312 188.976562 182.875 186.191406 185.855469 L 178.296875 181.257812 C 176.988281 180.492188 175.292969 180.941406 174.535156 182.246094 L 169.203125 191.402344 C 168.441406 192.710938 168.882812 194.402344 170.195312 195.167969 L 178.089844 199.765625 C 176.875 203.660156 176.351562 207.660156 176.484375 211.617188 L 167.652344 213.953125 C 166.191406 214.332031 165.308594 215.847656 165.691406 217.316406 L 168.394531 227.550781 C 168.777344 229.015625 170.296875 229.902344 171.761719 229.511719 L 180.59375 227.175781 C 182.433594 230.6875 184.859375 233.914062 187.835938 236.695312 L 183.238281 244.59375 C 182.480469 245.894531 182.929688 247.59375 184.234375 248.355469 L 193.386719 253.683594 C 194.695312 254.445312 196.390625 254 197.152344 252.695312 L 201.75 244.800781 C 205.640625 246.015625 209.644531 246.53125 213.601562 246.402344 L 215.933594 255.238281 C 216.316406 256.703125 217.828125 257.585938 219.296875 257.195312 L 229.535156 254.496094 C 231.003906 254.109375 231.886719 252.59375 231.492188 251.132812 L 229.160156 242.292969 C 232.671875 240.460938 235.898438 238.03125 238.683594 235.054688 L 246.574219 239.652344 C 247.882812 240.414062 249.578125 239.96875 250.34375 238.660156 L 255.675781 229.503906 C 256.4375 228.195312 255.988281 226.503906 254.675781 225.738281 Z M 203.476562 225.84375 C 194.976562 220.894531 192.097656 209.992188 197.046875 201.492188 C 202 192.996094 212.902344 190.117188 221.398438 195.066406 C 229.898438 200.015625 232.773438 210.917969 227.824219 219.417969 C 222.875 227.914062 211.972656 230.792969 203.476562 225.84375 " fill-opacity="1" fill-rule="nonzero"/><g clip-path="url(#22e248a759)"><path fill="#5271ff" d="M 212.464844 193.527344 C 206.632812 193.527344 200.949219 196.539062 197.804688 201.933594 C 195.53125 205.839844 194.910156 210.402344 196.066406 214.773438 C 197.21875 219.148438 200.007812 222.808594 203.914062 225.085938 C 207.824219 227.363281 212.386719 227.980469 216.757812 226.824219 C 221.128906 225.671875 224.792969 222.882812 227.066406 218.976562 C 231.765625 210.90625 229.027344 200.519531 220.960938 195.824219 C 218.285156 194.265625 215.355469 193.527344 212.464844 193.527344 Z M 212.40625 229.144531 C 209.144531 229.144531 205.925781 228.285156 203.035156 226.601562 C 198.722656 224.089844 195.644531 220.046875 194.371094 215.222656 C 193.097656 210.398438 193.78125 205.363281 196.292969 201.050781 C 201.476562 192.148438 212.9375 189.125 221.839844 194.308594 C 226.152344 196.820312 229.230469 200.863281 230.5 205.6875 C 231.777344 210.511719 231.09375 215.546875 228.582031 219.859375 C 226.070312 224.167969 222.03125 227.246094 217.203125 228.519531 C 215.617188 228.9375 214.003906 229.144531 212.40625 229.144531 Z M 214.273438 245.503906 L 216.777344 255.011719 C 216.90625 255.496094 217.214844 255.902344 217.652344 256.15625 C 218.085938 256.40625 218.589844 256.476562 219.070312 256.347656 L 229.3125 253.648438 C 229.796875 253.519531 230.203125 253.210938 230.457031 252.773438 C 230.707031 252.339844 230.777344 251.835938 230.648438 251.359375 L 228.136719 241.84375 L 228.753906 241.519531 C 232.234375 239.703125 235.355469 237.328125 238.042969 234.457031 L 238.519531 233.945312 L 247.011719 238.894531 C 247.445312 239.144531 247.953125 239.210938 248.441406 239.085938 C 248.929688 238.957031 249.335938 238.648438 249.585938 238.21875 L 254.917969 229.0625 C 255.4375 228.167969 255.132812 227.015625 254.234375 226.496094 L 245.742188 221.546875 L 245.949219 220.882812 C 247.121094 217.132812 247.648438 213.242188 247.511719 209.316406 L 247.488281 208.621094 L 256.996094 206.113281 C 257.480469 205.984375 257.886719 205.675781 258.140625 205.238281 C 258.394531 204.804688 258.460938 204.300781 258.332031 203.820312 L 255.628906 193.574219 C 255.367188 192.574219 254.335938 191.976562 253.335938 192.238281 L 243.832031 194.75 L 243.507812 194.128906 C 241.679688 190.652344 239.304688 187.527344 236.4375 184.847656 L 235.929688 184.371094 L 240.878906 175.875 C 241.398438 174.980469 241.097656 173.828125 240.199219 173.308594 L 231.046875 167.976562 C 230.152344 167.457031 229 167.757812 228.480469 168.652344 L 223.53125 177.148438 L 222.863281 176.941406 C 219.117188 175.773438 215.226562 175.246094 211.300781 175.375 L 210.605469 175.398438 L 208.097656 165.890625 C 207.832031 164.890625 206.800781 164.289062 205.796875 164.554688 L 195.5625 167.257812 C 195.078125 167.386719 194.675781 167.695312 194.421875 168.128906 C 194.167969 168.566406 194.097656 169.074219 194.226562 169.554688 L 196.734375 179.058594 L 196.117188 179.382812 C 192.632812 181.207031 189.507812 183.585938 186.832031 186.453125 L 186.355469 186.960938 L 177.855469 182.011719 C 177.425781 181.761719 176.921875 181.695312 176.433594 181.824219 C 175.945312 181.953125 175.542969 182.257812 175.292969 182.6875 L 169.957031 191.84375 C 169.4375 192.738281 169.742188 193.890625 170.636719 194.414062 L 179.132812 199.359375 L 178.925781 200.027344 C 177.757812 203.777344 177.230469 207.664062 177.359375 211.585938 L 177.382812 212.28125 L 167.875 214.796875 C 167.394531 214.925781 166.992188 215.230469 166.738281 215.667969 C 166.484375 216.101562 166.414062 216.609375 166.539062 217.089844 L 169.242188 227.328125 C 169.367188 227.8125 169.675781 228.214844 170.113281 228.46875 C 170.546875 228.722656 171.054688 228.792969 171.539062 228.667969 L 181.042969 226.152344 L 181.367188 226.769531 C 183.199219 230.261719 185.578125 233.386719 188.433594 236.058594 L 188.945312 236.535156 L 183.996094 245.03125 C 183.746094 245.460938 183.679688 245.964844 183.808594 246.453125 C 183.9375 246.941406 184.246094 247.347656 184.675781 247.597656 L 193.828125 252.929688 C 194.722656 253.449219 195.875 253.148438 196.394531 252.253906 L 201.34375 243.753906 L 202.011719 243.964844 C 205.742188 245.132812 209.632812 245.660156 213.574219 245.527344 Z M 218.589844 258.164062 C 217.957031 258.164062 217.332031 257.996094 216.769531 257.667969 C 215.929688 257.179688 215.332031 256.394531 215.085938 255.460938 L 212.933594 247.292969 C 209.269531 247.347656 205.652344 246.859375 202.160156 245.839844 L 197.910156 253.136719 C 196.902344 254.863281 194.675781 255.449219 192.949219 254.441406 L 183.796875 249.113281 C 182.960938 248.625 182.363281 247.839844 182.117188 246.902344 C 181.867188 245.960938 181.996094 244.984375 182.484375 244.148438 L 186.730469 236.855469 C 184.121094 234.316406 181.910156 231.414062 180.148438 228.199219 L 171.988281 230.359375 C 171.050781 230.605469 170.074219 230.472656 169.230469 229.984375 C 168.390625 229.492188 167.792969 228.707031 167.546875 227.773438 L 164.847656 217.539062 C 164.601562 216.601562 164.734375 215.625 165.226562 214.785156 C 165.714844 213.945312 166.496094 213.347656 167.429688 213.105469 L 175.589844 210.945312 C 175.539062 207.296875 176.027344 203.679688 177.050781 200.171875 L 169.753906 195.925781 C 168.027344 194.917969 167.4375 192.691406 168.445312 190.960938 L 173.777344 181.804688 C 174.261719 180.972656 175.046875 180.378906 175.988281 180.128906 C 176.925781 179.882812 177.902344 180.011719 178.738281 180.5 L 186.035156 184.75 C 188.574219 182.132812 191.480469 179.921875 194.683594 178.160156 L 192.53125 170.003906 C 192.285156 169.066406 192.417969 168.089844 192.90625 167.25 C 193.398438 166.410156 194.183594 165.808594 195.117188 165.566406 L 205.351562 162.859375 C 207.289062 162.351562 209.277344 163.511719 209.792969 165.445312 L 211.941406 173.609375 C 215.597656 173.558594 219.214844 174.046875 222.714844 175.066406 L 226.964844 167.773438 C 227.972656 166.042969 230.199219 165.457031 231.929688 166.464844 L 241.082031 171.792969 C 242.8125 172.800781 243.398438 175.027344 242.390625 176.757812 L 238.144531 184.054688 C 240.757812 186.59375 242.96875 189.5 244.726562 192.699219 L 252.890625 190.546875 C 254.824219 190.039062 256.8125 191.195312 257.324219 193.128906 L 260.027344 203.371094 C 260.273438 204.300781 260.140625 205.277344 259.65625 206.117188 C 259.167969 206.960938 258.382812 207.558594 257.445312 207.808594 L 249.28125 209.957031 C 249.335938 213.609375 248.847656 217.230469 247.824219 220.734375 L 255.113281 224.980469 C 256.847656 225.988281 257.4375 228.214844 256.429688 229.945312 L 251.097656 239.097656 C 250.613281 239.933594 249.828125 240.53125 248.886719 240.777344 C 247.945312 241.027344 246.96875 240.894531 246.132812 240.40625 L 238.839844 236.160156 C 236.292969 238.78125 233.386719 240.992188 230.1875 242.742188 L 232.339844 250.910156 C 232.589844 251.835938 232.457031 252.8125 231.972656 253.652344 C 231.484375 254.496094 230.699219 255.09375 229.757812 255.34375 L 219.519531 258.042969 C 219.210938 258.125 218.898438 258.164062 218.589844 258.164062 " fill-opacity="1" fill-rule="nonzero"/></g><path fill="#5271ff" d="M 185.03125 255.820312 L 178.082031 255.820312 C 177.390625 252.789062 176.199219 249.957031 174.59375 247.40625 L 179.511719 242.488281 C 180.328125 241.671875 180.328125 240.339844 179.511719 239.523438 L 173.808594 233.820312 C 172.996094 233.007812 171.664062 233.007812 170.847656 233.820312 L 165.929688 238.738281 C 163.375 237.136719 160.542969 235.949219 157.519531 235.253906 L 157.519531 228.300781 C 157.519531 227.148438 156.574219 226.207031 155.421875 226.207031 L 147.355469 226.207031 C 146.207031 226.207031 145.257812 227.148438 145.257812 228.300781 L 145.257812 235.253906 C 142.234375 235.949219 139.402344 237.136719 136.847656 238.738281 L 131.933594 233.820312 C 131.117188 233.007812 129.78125 233.007812 128.964844 233.820312 L 123.265625 239.523438 C 122.449219 240.339844 122.449219 241.671875 123.265625 242.488281 L 128.179688 247.40625 C 126.578125 249.957031 125.386719 252.792969 124.695312 255.820312 L 117.742188 255.820312 C 116.589844 255.820312 115.644531 256.761719 115.644531 257.914062 L 115.644531 265.976562 C 115.644531 267.132812 116.589844 268.074219 117.742188 268.074219 L 124.695312 268.074219 C 125.390625 271.101562 126.578125 273.933594 128.179688 276.488281 L 123.265625 281.40625 C 122.453125 282.21875 122.449219 283.550781 123.265625 284.367188 L 128.964844 290.070312 C 129.78125 290.886719 131.117188 290.886719 131.933594 290.070312 L 136.847656 285.148438 C 139.402344 286.753906 142.234375 287.945312 145.257812 288.636719 L 145.257812 295.589844 C 145.257812 296.742188 146.207031 297.683594 147.355469 297.683594 L 155.421875 297.683594 C 156.574219 297.683594 157.519531 296.742188 157.519531 295.589844 L 157.519531 288.636719 C 160.542969 287.945312 163.375 286.753906 165.929688 285.148438 L 170.847656 290.070312 C 171.664062 290.886719 172.996094 290.886719 173.808594 290.070312 L 179.511719 284.367188 C 180.328125 283.550781 180.328125 282.21875 179.511719 281.40625 L 174.589844 276.488281 C 176.199219 273.933594 177.390625 271.097656 178.082031 268.074219 L 185.03125 268.074219 C 186.1875 268.074219 187.132812 267.132812 187.132812 265.976562 L 187.132812 257.914062 C 187.132812 256.761719 186.1875 255.820312 185.03125 255.820312 Z M 151.390625 275.503906 C 143.902344 275.503906 137.832031 269.433594 137.832031 261.945312 C 137.832031 254.460938 143.902344 248.390625 151.390625 248.390625 C 158.878906 248.390625 164.945312 254.460938 164.945312 261.945312 C 164.945312 269.433594 158.878906 275.503906 151.390625 275.503906 " fill-opacity="1" fill-rule="nonzero"/><g clip-path="url(#3c72c0366f)"><path fill="#5271ff" d="M 151.390625 249.265625 C 144.394531 249.265625 138.707031 254.953125 138.707031 261.945312 C 138.707031 268.941406 144.394531 274.628906 151.390625 274.628906 C 158.382812 274.628906 164.070312 268.941406 164.070312 261.945312 C 164.070312 254.953125 158.382812 249.265625 151.390625 249.265625 Z M 151.390625 276.378906 C 143.429688 276.378906 136.957031 269.90625 136.957031 261.945312 C 136.957031 253.988281 143.429688 247.515625 151.390625 247.515625 C 159.347656 247.515625 165.820312 253.988281 165.820312 261.945312 C 165.820312 269.90625 159.347656 276.378906 151.390625 276.378906 Z M 136.722656 284.035156 L 137.3125 284.40625 C 139.832031 285.988281 142.574219 287.125 145.457031 287.78125 L 146.136719 287.9375 L 146.136719 295.589844 C 146.136719 296.253906 146.695312 296.8125 147.355469 296.8125 L 155.421875 296.8125 C 156.09375 296.8125 156.640625 296.261719 156.640625 295.589844 L 156.640625 287.9375 L 157.324219 287.78125 C 160.203125 287.125 162.941406 285.992188 165.464844 284.40625 L 166.054688 284.035156 L 171.464844 289.449219 C 171.695312 289.679688 172 289.804688 172.328125 289.804688 C 172.65625 289.804688 172.960938 289.679688 173.1875 289.453125 L 178.890625 283.75 C 179.121094 283.519531 179.25 283.210938 179.246094 282.882812 C 179.246094 282.558594 179.121094 282.253906 178.894531 282.027344 L 173.476562 276.609375 L 173.847656 276.019531 C 175.429688 273.511719 176.566406 270.773438 177.226562 267.878906 L 177.382812 267.199219 L 185.03125 267.199219 C 185.707031 267.199219 186.253906 266.652344 186.253906 265.976562 L 186.253906 257.914062 C 186.253906 257.242188 185.707031 256.695312 185.03125 256.695312 L 177.382812 256.695312 L 177.226562 256.015625 C 176.566406 253.125 175.429688 250.382812 173.851562 247.871094 L 173.480469 247.28125 L 178.890625 241.871094 C 179.121094 241.640625 179.25 241.332031 179.246094 241.003906 C 179.246094 240.679688 179.121094 240.375 178.894531 240.144531 L 173.191406 234.441406 C 172.714844 233.964844 171.941406 233.96875 171.464844 234.441406 L 166.054688 239.851562 L 165.464844 239.480469 C 162.949219 237.90625 160.210938 236.769531 157.324219 236.109375 L 156.640625 235.953125 L 156.640625 228.300781 C 156.640625 227.628906 156.09375 227.082031 155.421875 227.082031 L 147.355469 227.082031 C 146.683594 227.082031 146.136719 227.628906 146.136719 228.300781 L 146.136719 235.953125 L 145.457031 236.109375 C 142.566406 236.769531 139.828125 237.90625 137.3125 239.480469 L 136.722656 239.851562 L 131.3125 234.441406 C 130.835938 233.964844 130.058594 233.964844 129.582031 234.441406 L 123.886719 240.144531 C 123.65625 240.375 123.53125 240.679688 123.53125 241.007812 C 123.53125 241.332031 123.65625 241.640625 123.886719 241.871094 L 129.292969 247.28125 L 128.921875 247.871094 C 127.34375 250.386719 126.210938 253.125 125.550781 256.011719 L 125.398438 256.695312 L 117.742188 256.695312 C 117.070312 256.695312 116.523438 257.242188 116.523438 257.914062 L 116.523438 265.976562 C 116.523438 266.652344 117.070312 267.199219 117.742188 267.199219 L 125.394531 267.199219 L 125.550781 267.878906 C 126.214844 270.773438 127.347656 273.511719 128.921875 276.019531 L 129.292969 276.609375 L 123.886719 282.027344 C 123.65625 282.253906 123.53125 282.558594 123.53125 282.886719 C 123.53125 283.214844 123.65625 283.519531 123.886719 283.75 L 129.582031 289.449219 C 130.042969 289.910156 130.855469 289.910156 131.3125 289.449219 Z M 155.421875 298.5625 L 147.355469 298.5625 C 145.71875 298.5625 144.382812 297.230469 144.382812 295.589844 L 144.382812 289.324219 C 141.785156 288.664062 139.300781 287.632812 136.980469 286.257812 L 132.550781 290.6875 C 131.992188 291.25 131.242188 291.558594 130.449219 291.558594 C 129.652344 291.558594 128.90625 291.25 128.34375 290.6875 L 122.648438 284.988281 C 122.085938 284.429688 121.777344 283.679688 121.78125 282.882812 C 121.78125 282.089844 122.089844 281.34375 122.648438 280.785156 L 127.074219 276.355469 C 125.703125 274.042969 124.671875 271.558594 124.007812 268.949219 L 117.742188 268.949219 C 116.105469 268.949219 114.769531 267.617188 114.769531 265.976562 L 114.769531 257.914062 C 114.769531 256.277344 116.105469 254.941406 117.742188 254.941406 L 124.007812 254.941406 C 124.667969 252.339844 125.699219 249.855469 127.074219 247.535156 L 122.648438 243.109375 C 122.085938 242.550781 121.777344 241.800781 121.777344 241.007812 C 121.777344 240.210938 122.085938 239.464844 122.648438 238.90625 L 128.34375 233.203125 C 129.503906 232.046875 131.390625 232.046875 132.550781 233.203125 L 136.980469 237.632812 C 139.292969 236.257812 141.78125 235.230469 144.382812 234.566406 L 144.382812 228.300781 C 144.382812 226.664062 145.71875 225.328125 147.355469 225.328125 L 155.421875 225.328125 C 157.058594 225.328125 158.394531 226.664062 158.394531 228.300781 L 158.394531 234.566406 C 160.996094 235.230469 163.480469 236.257812 165.796875 237.632812 L 170.226562 233.203125 C 171.386719 232.046875 173.273438 232.046875 174.429688 233.203125 L 180.128906 238.90625 C 180.691406 239.460938 181 240.207031 181 241.003906 C 181 241.800781 180.691406 242.546875 180.128906 243.109375 L 175.699219 247.535156 C 177.078125 249.851562 178.105469 252.335938 178.769531 254.941406 L 185.03125 254.941406 C 186.671875 254.941406 188.007812 256.277344 188.007812 257.914062 L 188.007812 265.976562 C 188.007812 267.617188 186.671875 268.949219 185.03125 268.949219 L 178.769531 268.949219 C 178.105469 271.5625 177.074219 274.046875 175.699219 276.355469 L 180.128906 280.789062 C 180.6875 281.339844 180.996094 282.085938 181 282.878906 C 181.003906 283.679688 180.691406 284.425781 180.128906 284.988281 L 174.429688 290.6875 C 173.871094 291.25 173.125 291.558594 172.332031 291.558594 C 172.328125 291.558594 172.328125 291.558594 172.328125 291.558594 C 171.53125 291.558594 170.785156 291.25 170.226562 290.6875 L 165.796875 286.257812 C 163.476562 287.632812 160.992188 288.664062 158.394531 289.324219 L 158.394531 295.589844 C 158.394531 297.230469 157.058594 298.5625 155.421875 298.5625 " fill-opacity="1" fill-rule="nonzero"/></g></svg>