<svg xmlns="http://www.w3.org/2000/svg" xmlns:xlink="http://www.w3.org/1999/xlink" width="500" zoomAndPan="magnify" viewBox="0 0 375 374.999991" height="500" preserveAspectRatio="xMidYMid meet" version="1.0"><defs><clipPath id="f7f9de2726"><path d="M 167 145 L 236 145 L 236 304.101562 L 167 304.101562 Z M 167 145 " clip-rule="nonzero"/></clipPath></defs><path fill="#ffbd59" d="M 339.457031 140.625 L 110.648438 140.625 C 109.425781 140.625 108.210938 140.71875 107.003906 140.910156 C 105.792969 141.097656 104.609375 141.382812 103.445312 141.757812 C 102.28125 142.132812 101.152344 142.597656 100.0625 143.148438 C 98.972656 143.699219 97.929688 144.335938 96.9375 145.050781 C 95.945312 145.765625 95.015625 146.550781 94.148438 147.414062 C 93.277344 148.273438 92.484375 149.195312 91.757812 150.179688 C 91.035156 151.164062 90.390625 152.203125 89.828125 153.289062 C 89.265625 154.375 88.792969 155.496094 88.40625 156.65625 L 46.875 281.25 L 46.875 117.1875 L 328.125 117.1875 C 328.125 116.417969 328.085938 115.652344 328.011719 114.890625 C 327.9375 114.125 327.824219 113.367188 327.675781 112.613281 C 327.523438 111.863281 327.339844 111.117188 327.117188 110.382812 C 326.894531 109.648438 326.632812 108.925781 326.339844 108.21875 C 326.046875 107.507812 325.71875 106.816406 325.359375 106.140625 C 324.996094 105.460938 324.601562 104.804688 324.175781 104.167969 C 323.75 103.527344 323.292969 102.914062 322.804688 102.320312 C 322.316406 101.726562 321.804688 101.15625 321.261719 100.613281 C 320.71875 100.070312 320.148438 99.558594 319.554688 99.070312 C 318.960938 98.582031 318.347656 98.125 317.707031 97.699219 C 317.070312 97.273438 316.414062 96.878906 315.734375 96.515625 C 315.058594 96.15625 314.367188 95.828125 313.65625 95.535156 C 312.949219 95.242188 312.226562 94.980469 311.492188 94.757812 C 310.757812 94.535156 310.011719 94.351562 309.261719 94.199219 C 308.507812 94.050781 307.75 93.9375 306.984375 93.863281 C 306.222656 93.789062 305.457031 93.75 304.6875 93.75 L 177.234375 93.75 C 174.492188 93.75 171.835938 93.28125 169.257812 92.347656 C 166.679688 91.414062 164.339844 90.066406 162.234375 88.3125 L 147.140625 75.75 C 145.035156 73.996094 142.695312 72.648438 140.117188 71.714844 C 137.539062 70.78125 134.882812 70.3125 132.140625 70.3125 L 46.875 70.3125 C 46.105469 70.3125 45.339844 70.351562 44.578125 70.425781 C 43.8125 70.5 43.054688 70.613281 42.300781 70.761719 C 41.550781 70.914062 40.804688 71.097656 40.070312 71.320312 C 39.335938 71.542969 38.613281 71.804688 37.90625 72.097656 C 37.195312 72.390625 36.503906 72.71875 35.828125 73.078125 C 35.148438 73.441406 34.492188 73.835938 33.855469 74.261719 C 33.214844 74.6875 32.601562 75.144531 32.007812 75.632812 C 31.414062 76.121094 30.84375 76.632812 30.300781 77.175781 C 29.757812 77.71875 29.246094 78.289062 28.757812 78.882812 C 28.269531 79.476562 27.8125 80.089844 27.386719 80.730469 C 26.960938 81.367188 26.566406 82.023438 26.203125 82.703125 C 25.84375 83.378906 25.515625 84.070312 25.222656 84.78125 C 24.929688 85.488281 24.667969 86.210938 24.445312 86.945312 C 24.222656 87.679688 24.039062 88.425781 23.886719 89.175781 C 23.738281 89.929688 23.625 90.6875 23.550781 91.453125 C 23.476562 92.214844 23.4375 92.980469 23.4375 93.75 L 23.4375 281.25 C 23.4375 282.019531 23.476562 282.785156 23.550781 283.546875 C 23.625 284.3125 23.738281 285.070312 23.886719 285.824219 C 24.039062 286.574219 24.222656 287.320312 24.445312 288.054688 C 24.667969 288.789062 24.929688 289.511719 25.222656 290.21875 C 25.515625 290.929688 25.84375 291.621094 26.203125 292.296875 C 26.566406 292.976562 26.960938 293.632812 27.386719 294.269531 C 27.8125 294.910156 28.269531 295.523438 28.757812 296.117188 C 29.246094 296.710938 29.757812 297.28125 30.300781 297.824219 C 30.84375 298.367188 31.414062 298.878906 32.007812 299.367188 C 32.601562 299.855469 33.214844 300.3125 33.855469 300.738281 C 34.492188 301.164062 35.148438 301.558594 35.828125 301.921875 C 36.503906 302.28125 37.195312 302.609375 37.90625 302.902344 C 38.613281 303.195312 39.335938 303.457031 40.070312 303.679688 C 40.804688 303.902344 41.550781 304.085938 42.300781 304.238281 C 43.054688 304.386719 43.8125 304.5 44.578125 304.574219 C 45.339844 304.648438 46.105469 304.6875 46.875 304.6875 L 304.6875 304.6875 L 360.996094 173.296875 C 361.1875 172.851562 361.363281 172.40625 361.523438 171.949219 C 361.6875 171.496094 361.835938 171.035156 361.96875 170.574219 C 362.101562 170.109375 362.222656 169.644531 362.328125 169.171875 C 362.433594 168.699219 362.523438 168.226562 362.601562 167.75 C 362.675781 167.273438 362.738281 166.796875 362.785156 166.316406 C 362.828125 165.835938 362.859375 165.355469 362.878906 164.871094 C 362.894531 164.390625 362.894531 163.90625 362.882812 163.425781 C 362.871094 162.941406 362.84375 162.460938 362.800781 161.980469 C 362.757812 161.5 362.699219 161.019531 362.625 160.542969 C 362.554688 160.066406 362.46875 159.59375 362.363281 159.121094 C 362.261719 158.648438 362.148438 158.179688 362.015625 157.71875 C 361.886719 157.253906 361.742188 156.792969 361.582031 156.335938 C 361.421875 155.882812 361.25 155.429688 361.0625 154.988281 C 360.875 154.542969 360.675781 154.101562 360.460938 153.671875 C 360.25 153.238281 360.019531 152.8125 359.78125 152.394531 C 359.539062 151.976562 359.289062 151.566406 359.023438 151.164062 C 358.757812 150.757812 358.480469 150.363281 358.1875 149.980469 C 357.898438 149.59375 357.597656 149.21875 357.285156 148.851562 C 356.972656 148.484375 356.648438 148.125 356.3125 147.777344 C 355.976562 147.433594 355.632812 147.097656 355.273438 146.769531 C 354.917969 146.445312 354.554688 146.128906 354.179688 145.828125 C 353.800781 145.523438 353.417969 145.234375 353.023438 144.953125 C 352.632812 144.675781 352.230469 144.40625 351.820312 144.152344 C 351.410156 143.898438 350.992188 143.65625 350.566406 143.425781 C 350.144531 143.199219 349.710938 142.984375 349.273438 142.78125 C 348.835938 142.578125 348.390625 142.390625 347.941406 142.214844 C 347.492188 142.039062 347.039062 141.878906 346.578125 141.734375 C 346.117188 141.585938 345.652344 141.453125 345.1875 141.335938 C 344.71875 141.21875 344.246094 141.117188 343.773438 141.027344 C 343.300781 140.9375 342.824219 140.863281 342.34375 140.804688 C 341.863281 140.746094 341.382812 140.699219 340.902344 140.667969 C 340.421875 140.640625 339.941406 140.625 339.457031 140.625 Z M 339.457031 140.625 " fill-opacity="1" fill-rule="nonzero"/><path fill="#ffbd59" d="M 175.78125 257.8125 L 363.28125 257.8125 C 364.050781 257.8125 364.8125 257.886719 365.566406 258.039062 C 366.320312 258.1875 367.054688 258.410156 367.765625 258.703125 C 368.476562 259 369.152344 259.359375 369.792969 259.789062 C 370.429688 260.214844 371.023438 260.699219 371.566406 261.246094 C 372.113281 261.789062 372.597656 262.378906 373.023438 263.019531 C 373.453125 263.660156 373.8125 264.335938 374.109375 265.046875 C 374.402344 265.757812 374.625 266.492188 374.773438 267.246094 C 374.925781 268 375 268.761719 375 269.53125 L 375 316.40625 C 375 317.175781 374.925781 317.9375 374.773438 318.691406 C 374.625 319.445312 374.402344 320.179688 374.109375 320.890625 C 373.8125 321.601562 373.453125 322.277344 373.023438 322.917969 C 372.597656 323.554688 372.113281 324.148438 371.566406 324.691406 C 371.023438 325.238281 370.429688 325.722656 369.792969 326.148438 C 369.152344 326.578125 368.476562 326.9375 367.765625 327.234375 C 367.054688 327.527344 366.320312 327.75 365.566406 327.898438 C 364.8125 328.050781 364.050781 328.125 363.28125 328.125 L 175.78125 328.125 C 175.011719 328.125 174.25 328.050781 173.496094 327.898438 C 172.742188 327.75 172.007812 327.527344 171.296875 327.234375 C 170.585938 326.9375 169.910156 326.578125 169.269531 326.148438 C 168.628906 325.722656 168.039062 325.238281 167.496094 324.691406 C 166.949219 324.148438 166.464844 323.554688 166.039062 322.917969 C 165.609375 322.277344 165.25 321.601562 164.953125 320.890625 C 164.660156 320.179688 164.4375 319.445312 164.289062 318.691406 C 164.136719 317.9375 164.0625 317.175781 164.0625 316.40625 L 164.0625 269.53125 C 164.0625 268.761719 164.136719 268 164.289062 267.246094 C 164.4375 266.492188 164.660156 265.757812 164.953125 265.046875 C 165.25 264.335938 165.609375 263.660156 166.039062 263.019531 C 166.464844 262.378906 166.949219 261.789062 167.496094 261.246094 C 168.039062 260.699219 168.628906 260.214844 169.269531 259.789062 C 169.910156 259.359375 170.585938 259 171.296875 258.703125 C 172.007812 258.410156 172.742188 258.1875 173.496094 258.039062 C 174.25 257.886719 175.011719 257.8125 175.78125 257.8125 Z M 175.78125 257.8125 " fill-opacity="1" fill-rule="nonzero"/><path fill="#18a545" d="M 144.847656 281.496094 C 141.457031 281.496094 139.195312 280.363281 136.933594 278.105469 L 91.722656 232.894531 C 87.203125 228.371094 87.203125 221.589844 91.722656 217.070312 L 136.933594 171.859375 C 141.457031 167.335938 148.238281 167.335938 152.757812 171.859375 C 157.28125 176.378906 157.28125 183.160156 152.757812 187.679688 L 115.460938 224.980469 L 152.757812 262.28125 C 157.28125 266.800781 157.28125 273.582031 152.757812 278.105469 C 150.5 280.363281 148.238281 281.496094 144.847656 281.496094 Z M 144.847656 281.496094 " fill-opacity="1" fill-rule="nonzero"/><path fill="#18a545" d="M 257.875 281.496094 C 254.484375 281.496094 252.222656 280.363281 249.964844 278.105469 C 245.441406 273.582031 245.441406 266.800781 249.964844 262.28125 L 287.261719 224.980469 L 249.964844 187.679688 C 245.441406 183.160156 245.441406 176.378906 249.964844 171.859375 C 254.484375 167.335938 261.265625 167.335938 265.789062 171.859375 L 311 217.070312 C 315.519531 221.589844 315.519531 228.371094 311 232.894531 L 265.789062 278.105469 C 263.527344 280.363281 261.265625 281.496094 257.875 281.496094 Z M 257.875 281.496094 " fill-opacity="1" fill-rule="nonzero"/><g clip-path="url(#f7f9de2726)"><path fill="#18a545" d="M 178.753906 304.101562 C 177.625 304.101562 176.496094 304.101562 175.363281 302.96875 C 169.714844 300.710938 166.324219 295.058594 168.582031 288.277344 L 213.792969 152.644531 C 216.054688 146.992188 221.707031 143.601562 228.488281 145.859375 C 234.140625 148.121094 237.53125 153.773438 235.269531 160.554688 L 190.058594 296.1875 C 187.796875 300.710938 183.277344 304.101562 178.753906 304.101562 Z M 178.753906 304.101562 " fill-opacity="1" fill-rule="nonzero"/></g></svg>