<svg xmlns="http://www.w3.org/2000/svg" xmlns:xlink="http://www.w3.org/1999/xlink" width="500" zoomAndPan="magnify" viewBox="0 0 375 374.999991" height="500" preserveAspectRatio="xMidYMid meet" version="1.0"><defs><clipPath id="7b48655b76"><path d="M 182 120.535156 L 320 120.535156 L 320 322 L 182 322 Z M 182 120.535156 " clip-rule="nonzero"/></clipPath><clipPath id="88231833f4"><path d="M 169 119 L 247 119 L 247 299.914062 L 169 299.914062 Z M 169 119 " clip-rule="nonzero"/></clipPath></defs><g clip-path="url(#7b48655b76)"><path fill="#737373" d="M 307.734375 120.230469 L 240.699219 120.230469 L 240.699219 157.574219 C 240.695312 158.257812 240.65625 158.9375 240.582031 159.617188 C 240.507812 160.296875 240.402344 160.96875 240.265625 161.640625 C 240.125 162.308594 239.957031 162.96875 239.753906 163.621094 C 239.550781 164.273438 239.316406 164.914062 239.050781 165.542969 C 238.785156 166.171875 238.488281 166.785156 238.164062 167.386719 C 237.839844 167.984375 237.484375 168.570312 237.101562 169.132812 C 236.71875 169.699219 236.3125 170.246094 235.875 170.769531 C 235.4375 171.296875 234.980469 171.800781 234.496094 172.28125 C 234.007812 172.761719 233.503906 173.21875 232.972656 173.648438 C 232.445312 174.082031 231.894531 174.484375 231.324219 174.863281 C 230.757812 175.242188 230.171875 175.589844 229.570312 175.910156 C 228.964844 176.230469 228.347656 176.519531 227.71875 176.78125 C 227.085938 177.042969 226.445312 177.269531 225.789062 177.46875 C 225.136719 177.664062 224.476562 177.832031 223.804688 177.964844 C 223.136719 178.097656 222.460938 178.195312 221.78125 178.265625 C 221.101562 178.332031 220.421875 178.363281 219.738281 178.367188 L 182.441406 178.367188 L 182.441406 310.195312 C 182.4375 310.964844 182.507812 311.722656 182.652344 312.476562 C 182.800781 313.226562 183.015625 313.960938 183.308594 314.667969 C 183.597656 315.378906 183.957031 316.050781 184.382812 316.691406 C 184.804688 317.328125 185.289062 317.917969 185.832031 318.460938 C 186.371094 319.003906 186.960938 319.488281 187.601562 319.914062 C 188.238281 320.335938 188.910156 320.695312 189.621094 320.988281 C 190.332031 321.277344 191.0625 321.496094 191.8125 321.644531 C 192.566406 321.789062 193.324219 321.859375 194.09375 321.855469 L 307.734375 321.855469 C 308.503906 321.863281 309.269531 321.792969 310.03125 321.648438 C 310.789062 321.503906 311.527344 321.289062 312.242188 321 C 312.957031 320.710938 313.640625 320.355469 314.285156 319.929688 C 314.929688 319.507812 315.527344 319.023438 316.078125 318.484375 C 316.628906 317.941406 317.121094 317.351562 317.558594 316.714844 C 317.992188 316.074219 318.359375 315.398438 318.660156 314.691406 C 318.964844 313.980469 319.191406 313.246094 319.351562 312.488281 C 319.507812 311.734375 319.589844 310.96875 319.597656 310.195312 L 319.597656 131.878906 C 319.589844 131.109375 319.507812 130.34375 319.347656 129.589844 C 319.191406 128.832031 318.960938 128.101562 318.660156 127.390625 C 318.355469 126.679688 317.988281 126.003906 317.554688 125.367188 C 317.121094 124.730469 316.625 124.140625 316.074219 123.597656 C 315.523438 123.058594 314.925781 122.578125 314.28125 122.152344 C 313.636719 121.730469 312.957031 121.375 312.238281 121.085938 C 311.523438 120.796875 310.785156 120.578125 310.027344 120.4375 C 309.269531 120.292969 308.503906 120.222656 307.734375 120.230469 Z M 297.078125 290.308594 L 204.960938 290.308594 L 204.960938 281.167969 L 297.078125 281.167969 Z M 297.078125 262.886719 L 204.960938 262.886719 L 204.960938 253.644531 L 297.078125 253.644531 Z M 297.078125 235.375 L 204.960938 235.375 L 204.960938 226.160156 L 297.078125 226.160156 Z M 297.078125 207.859375 L 204.960938 207.859375 L 204.960938 198.832031 L 297.078125 198.832031 Z M 297.078125 207.859375 " fill-opacity="1" fill-rule="nonzero"/></g><path fill="#737373" d="M 231.4375 157.574219 L 231.4375 126.628906 L 210.109375 147.886719 L 188.933594 169.285156 L 219.738281 169.285156 C 220.507812 169.289062 221.269531 169.214844 222.023438 169.066406 C 222.777344 168.917969 223.511719 168.695312 224.222656 168.402344 C 224.933594 168.109375 225.609375 167.75 226.25 167.320312 C 226.886719 166.894531 227.480469 166.410156 228.023438 165.863281 C 228.566406 165.320312 229.050781 164.726562 229.480469 164.085938 C 229.90625 163.449219 230.265625 162.773438 230.558594 162.0625 C 230.851562 161.347656 231.070312 160.617188 231.21875 159.863281 C 231.367188 159.105469 231.441406 158.34375 231.4375 157.574219 Z M 231.4375 157.574219 " fill-opacity="1" fill-rule="nonzero"/><path fill="#ffbd59" d="M 162.234375 88.3125 L 147.140625 75.75 C 145.035156 73.996094 142.695312 72.648438 140.117188 71.714844 C 137.539062 70.78125 134.882812 70.3125 132.140625 70.3125 L 46.875 70.3125 C 46.105469 70.3125 45.339844 70.351562 44.578125 70.425781 C 43.8125 70.5 43.054688 70.613281 42.300781 70.761719 C 41.550781 70.914062 40.804688 71.097656 40.070312 71.320312 C 39.335938 71.542969 38.613281 71.804688 37.90625 72.097656 C 37.195312 72.390625 36.503906 72.71875 35.828125 73.078125 C 35.148438 73.441406 34.492188 73.835938 33.855469 74.261719 C 33.214844 74.6875 32.601562 75.144531 32.007812 75.632812 C 31.414062 76.121094 30.84375 76.632812 30.300781 77.175781 C 29.757812 77.71875 29.246094 78.289062 28.757812 78.882812 C 28.269531 79.476562 27.8125 80.089844 27.386719 80.730469 C 26.960938 81.367188 26.566406 82.023438 26.203125 82.703125 C 25.84375 83.378906 25.515625 84.070312 25.222656 84.78125 C 24.929688 85.488281 24.667969 86.210938 24.445312 86.945312 C 24.222656 87.679688 24.039062 88.425781 23.886719 89.175781 C 23.738281 89.929688 23.625 90.6875 23.550781 91.453125 C 23.476562 92.214844 23.4375 92.980469 23.4375 93.75 L 23.4375 281.25 C 23.4375 282.019531 23.476562 282.785156 23.550781 283.546875 C 23.625 284.3125 23.738281 285.070312 23.886719 285.824219 C 24.039062 286.574219 24.222656 287.320312 24.445312 288.054688 C 24.667969 288.789062 24.929688 289.511719 25.222656 290.21875 C 25.515625 290.929688 25.84375 291.621094 26.203125 292.296875 C 26.566406 292.976562 26.960938 293.632812 27.386719 294.269531 C 27.8125 294.910156 28.269531 295.523438 28.757812 296.117188 C 29.246094 296.710938 29.757812 297.28125 30.300781 297.824219 C 30.84375 298.367188 31.414062 298.878906 32.007812 299.367188 C 32.601562 299.855469 33.214844 300.3125 33.855469 300.738281 C 34.492188 301.164062 35.148438 301.558594 35.828125 301.921875 C 36.503906 302.28125 37.195312 302.609375 37.90625 302.902344 C 38.613281 303.195312 39.335938 303.457031 40.070312 303.679688 C 40.804688 303.902344 41.550781 304.085938 42.300781 304.238281 C 43.054688 304.386719 43.8125 304.5 44.578125 304.574219 C 45.339844 304.648438 46.105469 304.6875 46.875 304.6875 L 328.125 304.6875 C 328.894531 304.6875 329.660156 304.648438 330.421875 304.574219 C 331.1875 304.5 331.945312 304.386719 332.699219 304.238281 C 333.449219 304.085938 334.195312 303.902344 334.929688 303.679688 C 335.664062 303.457031 336.386719 303.195312 337.09375 302.902344 C 337.804688 302.609375 338.496094 302.28125 339.171875 301.921875 C 339.851562 301.558594 340.507812 301.164062 341.144531 300.738281 C 341.785156 300.3125 342.398438 299.855469 342.992188 299.367188 C 343.585938 298.878906 344.15625 298.367188 344.699219 297.824219 C 345.242188 297.28125 345.753906 296.710938 346.242188 296.117188 C 346.730469 295.523438 347.1875 294.910156 347.613281 294.269531 C 348.039062 293.632812 348.433594 292.976562 348.796875 292.296875 C 349.15625 291.621094 349.484375 290.929688 349.777344 290.21875 C 350.070312 289.511719 350.332031 288.789062 350.554688 288.054688 C 350.777344 287.320312 350.960938 286.574219 351.113281 285.824219 C 351.261719 285.070312 351.375 284.3125 351.449219 283.546875 C 351.523438 282.785156 351.5625 282.019531 351.5625 281.25 L 351.5625 117.1875 C 351.5625 116.417969 351.523438 115.652344 351.449219 114.890625 C 351.375 114.125 351.261719 113.367188 351.113281 112.613281 C 350.960938 111.863281 350.777344 111.117188 350.554688 110.382812 C 350.332031 109.648438 350.070312 108.925781 349.777344 108.21875 C 349.484375 107.507812 349.15625 106.816406 348.796875 106.140625 C 348.433594 105.460938 348.039062 104.804688 347.613281 104.167969 C 347.1875 103.527344 346.730469 102.914062 346.242188 102.320312 C 345.753906 101.726562 345.242188 101.15625 344.699219 100.613281 C 344.15625 100.070312 343.585938 99.558594 342.992188 99.070312 C 342.398438 98.582031 341.785156 98.125 341.144531 97.699219 C 340.507812 97.273438 339.851562 96.878906 339.171875 96.515625 C 338.496094 96.15625 337.804688 95.828125 337.09375 95.535156 C 336.386719 95.242188 335.664062 94.980469 334.929688 94.757812 C 334.195312 94.535156 333.449219 94.351562 332.699219 94.199219 C 331.945312 94.050781 331.1875 93.9375 330.421875 93.863281 C 329.660156 93.789062 328.894531 93.75 328.125 93.75 L 177.234375 93.75 C 174.492188 93.75 171.835938 93.28125 169.257812 92.347656 C 166.679688 91.414062 164.339844 90.066406 162.234375 88.3125 Z M 162.234375 88.3125 " fill-opacity="1" fill-rule="nonzero"/><path fill="#ffbd59" d="M 175.78125 257.8125 L 363.28125 257.8125 C 364.050781 257.8125 364.8125 257.886719 365.566406 258.039062 C 366.320312 258.1875 367.054688 258.410156 367.765625 258.703125 C 368.476562 259 369.152344 259.359375 369.792969 259.789062 C 370.429688 260.214844 371.023438 260.699219 371.566406 261.246094 C 372.113281 261.789062 372.597656 262.378906 373.023438 263.019531 C 373.453125 263.660156 373.8125 264.335938 374.109375 265.046875 C 374.402344 265.757812 374.625 266.492188 374.773438 267.246094 C 374.925781 268 375 268.761719 375 269.53125 L 375 316.40625 C 375 317.175781 374.925781 317.9375 374.773438 318.691406 C 374.625 319.445312 374.402344 320.179688 374.109375 320.890625 C 373.8125 321.601562 373.453125 322.277344 373.023438 322.917969 C 372.597656 323.554688 372.113281 324.148438 371.566406 324.691406 C 371.023438 325.238281 370.429688 325.722656 369.792969 326.148438 C 369.152344 326.578125 368.476562 326.9375 367.765625 327.234375 C 367.054688 327.527344 366.320312 327.75 365.566406 327.898438 C 364.8125 328.050781 364.050781 328.125 363.28125 328.125 L 175.78125 328.125 C 175.011719 328.125 174.25 328.050781 173.496094 327.898438 C 172.742188 327.75 172.007812 327.527344 171.296875 327.234375 C 170.585938 326.9375 169.910156 326.578125 169.269531 326.148438 C 168.628906 325.722656 168.039062 325.238281 167.496094 324.691406 C 166.949219 324.148438 166.464844 323.554688 166.039062 322.917969 C 165.609375 322.277344 165.25 321.601562 164.953125 320.890625 C 164.660156 320.179688 164.4375 319.445312 164.289062 318.691406 C 164.136719 317.9375 164.0625 317.175781 164.0625 316.40625 L 164.0625 269.53125 C 164.0625 268.761719 164.136719 268 164.289062 267.246094 C 164.4375 266.492188 164.660156 265.757812 164.953125 265.046875 C 165.25 264.335938 165.609375 263.660156 166.039062 263.019531 C 166.464844 262.378906 166.949219 261.789062 167.496094 261.246094 C 168.039062 260.699219 168.628906 260.214844 169.269531 259.789062 C 169.910156 259.359375 170.585938 259 171.296875 258.703125 C 172.007812 258.410156 172.742188 258.1875 173.496094 258.039062 C 174.25 257.886719 175.011719 257.8125 175.78125 257.8125 Z M 175.78125 257.8125 " fill-opacity="1" fill-rule="nonzero"/><path fill="#18a545" d="M 142.988281 274.363281 C 139.136719 274.363281 136.566406 273.082031 133.996094 270.511719 L 82.621094 219.132812 C 77.484375 213.996094 77.484375 206.289062 82.621094 201.152344 L 133.996094 149.773438 C 139.136719 144.636719 146.84375 144.636719 151.980469 149.773438 C 157.117188 154.914062 157.117188 162.617188 151.980469 167.757812 L 109.59375 210.144531 L 151.980469 252.53125 C 157.117188 257.667969 157.117188 265.375 151.980469 270.511719 C 149.410156 273.082031 146.84375 274.363281 142.988281 274.363281 Z M 142.988281 274.363281 " fill-opacity="1" fill-rule="nonzero"/><path fill="#18a545" d="M 271.433594 274.363281 C 267.578125 274.363281 265.011719 273.082031 262.441406 270.511719 C 257.304688 265.375 257.304688 257.667969 262.441406 252.53125 L 304.828125 210.144531 L 262.441406 167.757812 C 257.304688 162.617188 257.304688 154.914062 262.441406 149.773438 C 267.578125 144.636719 275.285156 144.636719 280.425781 149.773438 L 331.800781 201.152344 C 336.941406 206.289062 336.941406 213.996094 331.800781 219.132812 L 280.425781 270.511719 C 277.855469 273.082031 275.285156 274.363281 271.433594 274.363281 Z M 271.433594 274.363281 " fill-opacity="1" fill-rule="nonzero"/><g clip-path="url(#88231833f4)"><path fill="#18a545" d="M 181.523438 300.054688 C 180.238281 300.054688 178.953125 300.054688 177.667969 298.769531 C 171.246094 296.199219 167.394531 289.777344 169.960938 282.070312 L 221.339844 127.9375 C 223.910156 121.515625 230.332031 117.664062 238.039062 120.230469 C 244.460938 122.800781 248.3125 129.222656 245.746094 136.929688 L 194.367188 291.0625 C 191.796875 296.199219 186.660156 300.054688 181.523438 300.054688 Z M 181.523438 300.054688 " fill-opacity="1" fill-rule="nonzero"/></g></svg>