<svg xmlns="http://www.w3.org/2000/svg" xmlns:xlink="http://www.w3.org/1999/xlink" width="500" zoomAndPan="magnify" viewBox="0 0 375 374.999991" height="500" preserveAspectRatio="xMidYMid meet" version="1.0"><defs><clipPath id="37b941814c"><path d="M 135.007812 133 L 293 133 L 293 217 L 135.007812 217 Z M 135.007812 133 " clip-rule="nonzero"/></clipPath><clipPath id="be55e58ab1"><path d="M 135.007812 199 L 293 199 L 293 250 L 135.007812 250 Z M 135.007812 199 " clip-rule="nonzero"/></clipPath><clipPath id="0fb7a77958"><path d="M 135.007812 231 L 293 231 L 293 282 L 135.007812 282 Z M 135.007812 231 " clip-rule="nonzero"/></clipPath><clipPath id="7f56619566"><path d="M 135.007812 264 L 293 264 L 293 315 L 135.007812 315 Z M 135.007812 264 " clip-rule="nonzero"/></clipPath></defs><path fill="#ffbd59" d="M 162.234375 88.3125 L 147.140625 75.75 C 145.035156 73.996094 142.695312 72.648438 140.117188 71.714844 C 137.539062 70.78125 134.882812 70.3125 132.140625 70.3125 L 46.875 70.3125 C 46.105469 70.3125 45.339844 70.351562 44.578125 70.425781 C 43.8125 70.5 43.054688 70.613281 42.300781 70.761719 C 41.550781 70.914062 40.804688 71.097656 40.070312 71.320312 C 39.335938 71.542969 38.613281 71.804688 37.90625 72.097656 C 37.195312 72.390625 36.503906 72.71875 35.828125 73.078125 C 35.148438 73.441406 34.492188 73.835938 33.855469 74.261719 C 33.214844 74.6875 32.601562 75.144531 32.007812 75.632812 C 31.414062 76.121094 30.84375 76.632812 30.300781 77.175781 C 29.757812 77.71875 29.246094 78.289062 28.757812 78.882812 C 28.269531 79.476562 27.8125 80.089844 27.386719 80.730469 C 26.960938 81.367188 26.566406 82.023438 26.203125 82.703125 C 25.84375 83.378906 25.515625 84.070312 25.222656 84.78125 C 24.929688 85.488281 24.667969 86.210938 24.445312 86.945312 C 24.222656 87.679688 24.039062 88.425781 23.886719 89.175781 C 23.738281 89.929688 23.625 90.6875 23.550781 91.453125 C 23.476562 92.214844 23.4375 92.980469 23.4375 93.75 L 23.4375 281.25 C 23.4375 282.019531 23.476562 282.785156 23.550781 283.546875 C 23.625 284.3125 23.738281 285.070312 23.886719 285.824219 C 24.039062 286.574219 24.222656 287.320312 24.445312 288.054688 C 24.667969 288.789062 24.929688 289.511719 25.222656 290.21875 C 25.515625 290.929688 25.84375 291.621094 26.203125 292.296875 C 26.566406 292.976562 26.960938 293.632812 27.386719 294.269531 C 27.8125 294.910156 28.269531 295.523438 28.757812 296.117188 C 29.246094 296.710938 29.757812 297.28125 30.300781 297.824219 C 30.84375 298.367188 31.414062 298.878906 32.007812 299.367188 C 32.601562 299.855469 33.214844 300.3125 33.855469 300.738281 C 34.492188 301.164062 35.148438 301.558594 35.828125 301.921875 C 36.503906 302.28125 37.195312 302.609375 37.90625 302.902344 C 38.613281 303.195312 39.335938 303.457031 40.070312 303.679688 C 40.804688 303.902344 41.550781 304.085938 42.300781 304.238281 C 43.054688 304.386719 43.8125 304.5 44.578125 304.574219 C 45.339844 304.648438 46.105469 304.6875 46.875 304.6875 L 328.125 304.6875 C 328.894531 304.6875 329.660156 304.648438 330.421875 304.574219 C 331.1875 304.5 331.945312 304.386719 332.699219 304.238281 C 333.449219 304.085938 334.195312 303.902344 334.929688 303.679688 C 335.664062 303.457031 336.386719 303.195312 337.09375 302.902344 C 337.804688 302.609375 338.496094 302.28125 339.171875 301.921875 C 339.851562 301.558594 340.507812 301.164062 341.144531 300.738281 C 341.785156 300.3125 342.398438 299.855469 342.992188 299.367188 C 343.585938 298.878906 344.15625 298.367188 344.699219 297.824219 C 345.242188 297.28125 345.753906 296.710938 346.242188 296.117188 C 346.730469 295.523438 347.1875 294.910156 347.613281 294.269531 C 348.039062 293.632812 348.433594 292.976562 348.796875 292.296875 C 349.15625 291.621094 349.484375 290.929688 349.777344 290.21875 C 350.070312 289.511719 350.332031 288.789062 350.554688 288.054688 C 350.777344 287.320312 350.960938 286.574219 351.113281 285.824219 C 351.261719 285.070312 351.375 284.3125 351.449219 283.546875 C 351.523438 282.785156 351.5625 282.019531 351.5625 281.25 L 351.5625 117.1875 C 351.5625 116.417969 351.523438 115.652344 351.449219 114.890625 C 351.375 114.125 351.261719 113.367188 351.113281 112.613281 C 350.960938 111.863281 350.777344 111.117188 350.554688 110.382812 C 350.332031 109.648438 350.070312 108.925781 349.777344 108.21875 C 349.484375 107.507812 349.15625 106.816406 348.796875 106.140625 C 348.433594 105.460938 348.039062 104.804688 347.613281 104.167969 C 347.1875 103.527344 346.730469 102.914062 346.242188 102.320312 C 345.753906 101.726562 345.242188 101.15625 344.699219 100.613281 C 344.15625 100.070312 343.585938 99.558594 342.992188 99.070312 C 342.398438 98.582031 341.785156 98.125 341.144531 97.699219 C 340.507812 97.273438 339.851562 96.878906 339.171875 96.515625 C 338.496094 96.15625 337.804688 95.828125 337.09375 95.535156 C 336.386719 95.242188 335.664062 94.980469 334.929688 94.757812 C 334.195312 94.535156 333.449219 94.351562 332.699219 94.199219 C 331.945312 94.050781 331.1875 93.9375 330.421875 93.863281 C 329.660156 93.789062 328.894531 93.75 328.125 93.75 L 177.234375 93.75 C 174.492188 93.75 171.835938 93.28125 169.257812 92.347656 C 166.679688 91.414062 164.339844 90.066406 162.234375 88.3125 Z M 162.234375 88.3125 " fill-opacity="1" fill-rule="nonzero"/><path fill="#ffbd59" d="M 175.78125 257.8125 L 363.28125 257.8125 C 364.050781 257.8125 364.8125 257.886719 365.566406 258.039062 C 366.320312 258.1875 367.054688 258.410156 367.765625 258.703125 C 368.476562 259 369.152344 259.359375 369.792969 259.789062 C 370.429688 260.214844 371.023438 260.699219 371.566406 261.246094 C 372.113281 261.789062 372.597656 262.378906 373.023438 263.019531 C 373.453125 263.660156 373.8125 264.335938 374.109375 265.046875 C 374.402344 265.757812 374.625 266.492188 374.773438 267.246094 C 374.925781 268 375 268.761719 375 269.53125 L 375 316.40625 C 375 317.175781 374.925781 317.9375 374.773438 318.691406 C 374.625 319.445312 374.402344 320.179688 374.109375 320.890625 C 373.8125 321.601562 373.453125 322.277344 373.023438 322.917969 C 372.597656 323.554688 372.113281 324.148438 371.566406 324.691406 C 371.023438 325.238281 370.429688 325.722656 369.792969 326.148438 C 369.152344 326.578125 368.476562 326.9375 367.765625 327.234375 C 367.054688 327.527344 366.320312 327.75 365.566406 327.898438 C 364.8125 328.050781 364.050781 328.125 363.28125 328.125 L 175.78125 328.125 C 175.011719 328.125 174.25 328.050781 173.496094 327.898438 C 172.742188 327.75 172.007812 327.527344 171.296875 327.234375 C 170.585938 326.9375 169.910156 326.578125 169.269531 326.148438 C 168.628906 325.722656 168.039062 325.238281 167.496094 324.691406 C 166.949219 324.148438 166.464844 323.554688 166.039062 322.917969 C 165.609375 322.277344 165.25 321.601562 164.953125 320.890625 C 164.660156 320.179688 164.4375 319.445312 164.289062 318.691406 C 164.136719 317.9375 164.0625 317.175781 164.0625 316.40625 L 164.0625 269.53125 C 164.0625 268.761719 164.136719 268 164.289062 267.246094 C 164.4375 266.492188 164.660156 265.757812 164.953125 265.046875 C 165.25 264.335938 165.609375 263.660156 166.039062 263.019531 C 166.464844 262.378906 166.949219 261.789062 167.496094 261.246094 C 168.039062 260.699219 168.628906 260.214844 169.269531 259.789062 C 169.910156 259.359375 170.585938 259 171.296875 258.703125 C 172.007812 258.410156 172.742188 258.1875 173.496094 258.039062 C 174.25 257.886719 175.011719 257.8125 175.78125 257.8125 Z M 175.78125 257.8125 " fill-opacity="1" fill-rule="nonzero"/><g clip-path="url(#37b941814c)"><path fill="#000000" d="M 287.417969 167.3125 L 217.929688 134.757812 C 215.574219 133.65625 212.855469 133.65625 210.503906 134.757812 L 141.015625 167.3125 C 137.949219 168.75 135.992188 171.820312 135.992188 175.203125 C 135.992188 178.582031 137.949219 181.660156 141.015625 183.097656 L 210.503906 215.660156 C 211.679688 216.210938 212.949219 216.488281 214.214844 216.488281 C 215.484375 216.488281 216.753906 216.210938 217.929688 215.660156 L 287.417969 183.097656 C 290.480469 181.660156 292.4375 178.582031 292.4375 175.203125 C 292.4375 171.820312 290.480469 168.75 287.417969 167.3125 Z M 214.214844 198.132812 L 165.292969 175.203125 L 214.214844 152.285156 L 263.140625 175.203125 Z M 214.214844 198.132812 " fill-opacity="1" fill-rule="nonzero"/></g><g clip-path="url(#be55e58ab1)"><path fill="#000000" d="M 291.609375 204.058594 C 289.5625 199.699219 284.351562 197.835938 279.988281 199.875 L 214.214844 230.6875 L 148.445312 199.875 C 144.074219 197.832031 138.867188 199.691406 136.824219 204.058594 C 134.769531 208.417969 136.648438 213.613281 141.015625 215.660156 L 210.503906 248.214844 C 211.679688 248.765625 212.949219 249.042969 214.214844 249.042969 C 215.484375 249.042969 216.753906 248.765625 217.929688 248.214844 L 287.417969 215.660156 C 291.785156 213.613281 293.660156 208.417969 291.609375 204.058594 Z M 291.609375 204.058594 " fill-opacity="1" fill-rule="nonzero"/></g><g clip-path="url(#0fb7a77958)"><path fill="#000000" d="M 291.609375 236.613281 C 289.5625 232.253906 284.351562 230.390625 279.988281 232.429688 L 214.214844 263.25 L 148.445312 232.429688 C 144.074219 230.386719 138.867188 232.25 136.824219 236.613281 C 134.769531 240.976562 136.648438 246.171875 141.015625 248.214844 L 210.503906 280.777344 C 211.679688 281.328125 212.949219 281.605469 214.214844 281.605469 C 215.484375 281.605469 216.753906 281.328125 217.929688 280.777344 L 287.417969 248.214844 C 291.785156 246.171875 293.660156 240.976562 291.609375 236.613281 Z M 291.609375 236.613281 " fill-opacity="1" fill-rule="nonzero"/></g><g clip-path="url(#7f56619566)"><path fill="#000000" d="M 291.609375 269.175781 C 289.5625 264.816406 284.351562 262.941406 279.988281 264.992188 L 214.214844 295.804688 L 148.445312 264.992188 C 144.074219 262.941406 138.867188 264.816406 136.824219 269.175781 C 134.769531 273.539062 136.648438 278.730469 141.015625 280.777344 L 210.503906 313.332031 C 211.679688 313.882812 212.949219 314.160156 214.214844 314.160156 C 215.484375 314.160156 216.753906 313.882812 217.929688 313.332031 L 287.417969 280.777344 C 291.785156 278.730469 293.660156 273.535156 291.609375 269.175781 Z M 291.609375 269.175781 " fill-opacity="1" fill-rule="nonzero"/></g></svg>