<svg xmlns="http://www.w3.org/2000/svg" xmlns:xlink="http://www.w3.org/1999/xlink" width="1080" zoomAndPan="magnify" viewBox="0 0 810 809.999993" height="1080" preserveAspectRatio="xMidYMid meet" version="1.0"><defs><clipPath id="049b63cdba"><path d="M 289 646.421875 L 512.449219 646.421875 L 512.449219 810 L 289 810 Z M 289 646.421875 " clip-rule="nonzero"/></clipPath><clipPath id="eb06d14717"><path d="M 153.238281 153.238281 L 656.488281 153.238281 L 656.488281 656.488281 L 153.238281 656.488281 Z M 153.238281 153.238281 " clip-rule="nonzero"/></clipPath><clipPath id="1799ebfc20"><path d="M 154 74 L 381 74 L 381 315 L 154 315 Z M 154 74 " clip-rule="nonzero"/></clipPath><clipPath id="f5326370ac"><path d="M 52.445312 153.328125 L 255.597656 -4.492188 L 381.207031 157.203125 L 178.054688 315.019531 Z M 52.445312 153.328125 " clip-rule="nonzero"/></clipPath><clipPath id="dd1307f047"><path d="M 52.445312 153.328125 L 255.597656 -4.492188 L 381.207031 157.203125 L 178.054688 315.019531 Z M 52.445312 153.328125 " clip-rule="nonzero"/></clipPath><clipPath id="7f279263be"><path d="M 401 46 L 623 46 L 623 288 L 401 288 Z M 401 46 " clip-rule="nonzero"/></clipPath><clipPath id="67bf7df563"><path d="M 504.4375 -18.679688 L 726.25 111.617188 L 622.542969 288.160156 L 400.730469 157.863281 Z M 504.4375 -18.679688 " clip-rule="nonzero"/></clipPath><clipPath id="be277207ce"><path d="M 504.4375 -18.679688 L 726.25 111.617188 L 622.542969 288.160156 L 400.730469 157.863281 Z M 504.4375 -18.679688 " clip-rule="nonzero"/></clipPath></defs><g clip-path="url(#049b63cdba)"><path fill="#ffffff" d="M 512.585938 802.589844 C 512.585938 805.144531 512.539062 807.699219 512.449219 810.253906 C 512.359375 812.804688 512.226562 815.355469 512.046875 817.898438 C 511.867188 820.441406 511.644531 822.976562 511.375 825.503906 C 511.105469 828.03125 510.792969 830.550781 510.4375 833.058594 C 510.082031 835.5625 509.679688 838.058594 509.234375 840.535156 C 508.792969 843.015625 508.304688 845.476562 507.773438 847.925781 C 507.242188 850.371094 506.667969 852.796875 506.050781 855.203125 C 505.4375 857.609375 504.777344 859.992188 504.078125 862.355469 C 503.378906 864.714844 502.636719 867.050781 501.855469 869.363281 C 501.074219 871.671875 500.25 873.953125 499.386719 876.207031 C 498.527344 878.460938 497.625 880.683594 496.683594 882.878906 C 495.742188 885.070312 494.765625 887.226562 493.75 889.351562 C 492.734375 891.480469 491.679688 893.566406 490.589844 895.621094 C 489.5 897.671875 488.375 899.6875 487.214844 901.664062 C 486.054688 903.640625 484.859375 905.574219 483.632812 907.46875 C 482.40625 909.359375 481.144531 911.210938 479.851562 913.019531 C 478.558594 914.824219 477.234375 916.589844 475.878906 918.304688 C 474.523438 920.019531 473.136719 921.691406 471.722656 923.3125 C 470.308594 924.933594 468.867188 926.503906 467.398438 928.027344 C 465.929688 929.550781 464.433594 931.019531 462.914062 932.441406 C 461.394531 933.859375 459.847656 935.226562 458.28125 936.542969 C 456.710938 937.855469 455.121094 939.113281 453.507812 940.320312 C 451.894531 941.523438 450.261719 942.671875 448.605469 943.765625 C 446.953125 944.859375 445.28125 945.894531 443.59375 946.871094 C 441.902344 947.851562 440.195312 948.769531 438.472656 949.632812 C 436.75 950.492188 435.015625 951.292969 433.265625 952.035156 C 431.515625 952.777344 429.753906 953.457031 427.976562 954.078125 C 426.203125 954.699219 424.417969 955.261719 422.625 955.757812 C 420.832031 956.257812 419.03125 956.695312 417.222656 957.070312 C 415.410156 957.445312 413.597656 957.757812 411.777344 958.007812 C 409.957031 958.257812 408.132812 958.445312 406.304688 958.570312 C 404.480469 958.699219 402.652344 958.761719 400.820312 958.761719 C 398.992188 958.761719 397.164062 958.699219 395.339844 958.570312 C 393.511719 958.445312 391.6875 958.257812 389.867188 958.007812 C 388.046875 957.757812 386.230469 957.445312 384.421875 957.070312 C 382.613281 956.695312 380.8125 956.257812 379.019531 955.757812 C 377.222656 955.261719 375.441406 954.699219 373.664062 954.078125 C 371.890625 953.457031 370.128906 952.777344 368.378906 952.035156 C 366.628906 951.292969 364.890625 950.492188 363.171875 949.632812 C 361.449219 948.769531 359.742188 947.851562 358.050781 946.871094 C 356.363281 945.894531 354.691406 944.859375 353.039062 943.765625 C 351.382812 942.671875 349.75 941.523438 348.136719 940.320312 C 346.523438 939.113281 344.933594 937.855469 343.363281 936.542969 C 341.796875 935.226562 340.25 933.859375 338.730469 932.441406 C 337.210938 931.019531 335.714844 929.550781 334.246094 928.027344 C 332.777344 926.503906 331.335938 924.933594 329.921875 923.3125 C 328.507812 921.691406 327.121094 920.019531 325.765625 918.304688 C 324.410156 916.589844 323.085938 914.824219 321.792969 913.019531 C 320.5 911.210938 319.238281 909.359375 318.011719 907.46875 C 316.78125 905.574219 315.589844 903.640625 314.429688 901.664062 C 313.269531 899.6875 312.144531 897.671875 311.054688 895.621094 C 309.964844 893.566406 308.910156 891.480469 307.894531 889.351562 C 306.878906 887.226562 305.898438 885.070312 304.960938 882.878906 C 304.019531 880.683594 303.117188 878.460938 302.257812 876.207031 C 301.394531 873.953125 300.570312 871.671875 299.789062 869.363281 C 299.007812 867.050781 298.265625 864.714844 297.566406 862.355469 C 296.867188 859.992188 296.207031 857.609375 295.59375 855.203125 C 294.976562 852.796875 294.402344 850.371094 293.871094 847.925781 C 293.339844 845.476562 292.851562 843.015625 292.410156 840.535156 C 291.964844 838.058594 291.5625 835.5625 291.207031 833.058594 C 290.851562 830.550781 290.539062 828.03125 290.269531 825.503906 C 290 822.976562 289.777344 820.441406 289.597656 817.898438 C 289.417969 815.355469 289.285156 812.804688 289.195312 810.253906 C 289.105469 807.699219 289.058594 805.144531 289.058594 802.589844 C 289.058594 800.035156 289.105469 797.480469 289.195312 794.925781 C 289.285156 792.375 289.417969 789.828125 289.597656 787.28125 C 289.777344 784.738281 290 782.203125 290.269531 779.675781 C 290.539062 777.148438 290.851562 774.628906 291.207031 772.121094 C 291.5625 769.617188 291.964844 767.125 292.410156 764.644531 C 292.851562 762.164062 293.339844 759.703125 293.871094 757.257812 C 294.402344 754.8125 294.976562 752.382812 295.59375 749.976562 C 296.207031 747.570312 296.867188 745.1875 297.566406 742.828125 C 298.265625 740.464844 299.007812 738.128906 299.789062 735.820312 C 300.570312 733.507812 301.394531 731.226562 302.257812 728.972656 C 303.117188 726.71875 304.019531 724.496094 304.960938 722.300781 C 305.898438 720.109375 306.878906 717.953125 307.894531 715.828125 C 308.910156 713.703125 309.964844 711.613281 311.054688 709.558594 C 312.144531 707.507812 313.269531 705.492188 314.429688 703.515625 C 315.589844 701.542969 316.78125 699.605469 318.011719 697.710938 C 319.238281 695.820312 320.5 693.96875 321.792969 692.160156 C 323.085938 690.355469 324.410156 688.59375 325.765625 686.875 C 327.121094 685.160156 328.507812 683.492188 329.921875 681.867188 C 331.335938 680.246094 332.777344 678.675781 334.246094 677.152344 C 335.714844 675.628906 337.210938 674.160156 338.730469 672.738281 C 340.25 671.320312 341.796875 669.953125 343.363281 668.640625 C 344.933594 667.324219 346.523438 666.066406 348.136719 664.859375 C 349.75 663.65625 351.382812 662.507812 353.039062 661.414062 C 354.691406 660.320312 356.363281 659.285156 358.050781 658.308594 C 359.742188 657.328125 361.449219 656.410156 363.171875 655.550781 C 364.890625 654.6875 366.628906 653.886719 368.378906 653.144531 C 370.128906 652.402344 371.890625 651.722656 373.664062 651.101562 C 375.441406 650.480469 377.222656 649.917969 379.019531 649.421875 C 380.8125 648.921875 382.613281 648.484375 384.421875 648.109375 C 386.230469 647.734375 388.046875 647.421875 389.867188 647.171875 C 391.6875 646.921875 393.511719 646.734375 395.339844 646.609375 C 397.164062 646.484375 398.992188 646.421875 400.820312 646.421875 C 402.652344 646.421875 404.480469 646.484375 406.304688 646.609375 C 408.132812 646.734375 409.957031 646.921875 411.777344 647.171875 C 413.597656 647.421875 415.410156 647.734375 417.222656 648.109375 C 419.03125 648.484375 420.832031 648.921875 422.625 649.421875 C 424.417969 649.917969 426.203125 650.480469 427.976562 651.101562 C 429.753906 651.722656 431.515625 652.402344 433.265625 653.144531 C 435.015625 653.886719 436.75 654.6875 438.472656 655.550781 C 440.195312 656.410156 441.902344 657.328125 443.59375 658.308594 C 445.28125 659.285156 446.953125 660.320312 448.605469 661.414062 C 450.261719 662.507812 451.894531 663.65625 453.507812 664.859375 C 455.121094 666.066406 456.710938 667.324219 458.28125 668.640625 C 459.847656 669.953125 461.394531 671.320312 462.914062 672.738281 C 464.433594 674.160156 465.929688 675.628906 467.398438 677.152344 C 468.867188 678.675781 470.308594 680.246094 471.722656 681.867188 C 473.136719 683.492188 474.523438 685.160156 475.878906 686.875 C 477.234375 688.59375 478.558594 690.355469 479.851562 692.160156 C 481.144531 693.96875 482.40625 695.820312 483.632812 697.710938 C 484.859375 699.605469 486.054688 701.542969 487.214844 703.515625 C 488.375 705.492188 489.5 707.507812 490.589844 709.558594 C 491.679688 711.613281 492.734375 713.703125 493.75 715.828125 C 494.765625 717.953125 495.742188 720.109375 496.683594 722.300781 C 497.625 724.496094 498.527344 726.71875 499.386719 728.972656 C 500.25 731.226562 501.074219 733.507812 501.855469 735.820312 C 502.636719 738.128906 503.378906 740.464844 504.078125 742.828125 C 504.777344 745.1875 505.4375 747.570312 506.050781 749.976562 C 506.667969 752.382812 507.242188 754.8125 507.773438 757.257812 C 508.304688 759.703125 508.792969 762.164062 509.234375 764.644531 C 509.679688 767.125 510.082031 769.617188 510.4375 772.121094 C 510.792969 774.628906 511.105469 777.148438 511.375 779.675781 C 511.644531 782.203125 511.867188 784.738281 512.046875 787.28125 C 512.226562 789.828125 512.359375 792.375 512.449219 794.925781 C 512.539062 797.480469 512.585938 800.035156 512.585938 802.589844 Z M 512.585938 802.589844 " fill-opacity="1" fill-rule="nonzero"/></g><g clip-path="url(#eb06d14717)"><path fill="#ffffff" d="M 405 153.238281 C 266.09375 153.238281 153.238281 266.09375 153.238281 405 C 153.238281 543.90625 266.09375 656.757812 405 656.757812 C 543.90625 656.757812 656.757812 543.90625 656.757812 405 C 656.757812 266.09375 543.90625 153.238281 405 153.238281 Z M 405 164.183594 C 538.136719 164.183594 645.8125 271.863281 645.8125 405 C 645.8125 538.136719 538.136719 645.8125 405 645.8125 C 271.863281 645.8125 164.183594 538.136719 164.183594 405 C 164.183594 271.863281 271.863281 164.183594 405 164.183594 Z M 405 164.183594 " fill-opacity="1" fill-rule="nonzero"/></g><path fill="#000000" d="M 464.65625 536.292969 C 449.011719 548.667969 437.265625 549.636719 421.4375 539.570312 C 413.710938 534.65625 408.390625 534.175781 400.617188 539.410156 C 389.316406 547.019531 376.726562 549.300781 361.210938 541.007812 C 401.9375 540.351562 412.496094 514.144531 399.5625 495.304688 L 421.679688 495.304688 C 416.035156 506.425781 411.578125 518.875 425.113281 530.515625 C 436.285156 540.125 448.179688 542.339844 464.65625 536.292969 Z M 464.65625 536.292969 " fill-opacity="1" fill-rule="nonzero"/><path fill="#000000" d="M 344.648438 419.515625 C 328.320312 422.320312 314.316406 424.898438 300.25 427.113281 C 223.222656 439.242188 197.3125 384.011719 206.324219 325.699219 C 208.917969 308.910156 216.890625 300.175781 233.390625 295.433594 C 292.917969 278.320312 336.410156 306.414062 344.339844 369.480469 C 346.398438 385.855469 344.648438 402.707031 344.648438 419.515625 Z M 331.105469 404.882812 C 345.042969 396.210938 340.699219 383.554688 338.808594 371.585938 C 331.539062 325.484375 306.753906 299.941406 267.066406 297.511719 C 235.652344 295.585938 217.59375 304.507812 211.867188 326.058594 C 205.179688 351.242188 208.675781 375.425781 223.117188 397.253906 C 234.035156 413.757812 249.6875 422.894531 270.945312 424.015625 C 247.695312 397.285156 243.714844 384.171875 251.628906 361.019531 C 258.773438 371.886719 267.777344 378.210938 280.039062 370.296875 C 283.703125 367.929688 287.890625 361.726562 287.195312 358.195312 C 285.53125 349.734375 281.109375 341.816406 277.824219 333.738281 C 313.664062 323.953125 336.714844 354 331.105469 404.882812 Z M 331.105469 404.882812 " fill-opacity="1" fill-rule="nonzero"/><path fill="#f9fdfe" d="M 331.105469 404.882812 C 336.714844 354 313.664062 323.953125 277.824219 333.738281 C 281.109375 341.816406 285.53125 349.734375 287.195312 358.191406 C 287.890625 361.726562 283.703125 367.929688 280.039062 370.292969 C 267.777344 378.210938 258.773438 371.882812 251.628906 361.019531 C 243.714844 384.167969 247.695312 397.28125 270.945312 424.015625 C 249.6875 422.894531 234.035156 413.753906 223.117188 397.253906 C 208.675781 375.425781 205.179688 351.242188 211.867188 326.058594 C 217.59375 304.507812 235.652344 295.585938 267.066406 297.511719 C 306.753906 299.941406 331.539062 325.484375 338.808594 371.585938 C 340.699219 383.554688 345.042969 396.210938 331.105469 404.882812 Z M 331.105469 404.882812 " fill-opacity="1" fill-rule="nonzero"/><path fill="#000000" d="M 465.65625 369.480469 C 473.585938 306.414062 517.082031 278.324219 576.605469 295.433594 C 593.105469 300.175781 601.078125 308.90625 603.671875 325.699219 C 612.683594 384.011719 586.773438 439.242188 509.746094 427.113281 C 495.679688 424.898438 481.675781 422.320312 465.347656 419.515625 C 465.347656 402.707031 463.597656 385.855469 465.65625 369.480469 Z M 532.171875 333.738281 C 528.886719 341.816406 524.464844 349.734375 522.800781 358.191406 C 522.105469 361.726562 526.292969 367.929688 529.957031 370.292969 C 542.21875 378.210938 551.222656 371.882812 558.371094 361.019531 C 566.28125 384.167969 562.300781 397.28125 539.050781 424.015625 C 560.308594 422.894531 575.960938 413.753906 586.878906 397.253906 C 601.320312 375.425781 604.820312 351.242188 598.128906 326.058594 C 592.40625 304.507812 574.34375 295.585938 542.929688 297.511719 C 503.242188 299.941406 478.457031 325.484375 471.1875 371.585938 C 469.300781 383.554688 464.953125 396.210938 478.890625 404.882812 C 473.28125 354 496.332031 323.953125 532.171875 333.738281 Z M 532.171875 333.738281 " fill-opacity="1" fill-rule="nonzero"/><path fill="#f9fdfe" d="M 478.890625 404.882812 C 473.28125 354 496.332031 323.953125 532.171875 333.738281 C 528.886719 341.816406 524.464844 349.734375 522.800781 358.195312 C 522.105469 361.726562 526.292969 367.929688 529.957031 370.296875 C 542.21875 378.210938 551.222656 371.886719 558.371094 361.019531 C 566.28125 384.171875 562.300781 397.285156 539.050781 424.015625 C 560.308594 422.894531 575.960938 413.757812 586.878906 397.253906 C 601.320312 375.425781 604.820312 351.242188 598.128906 326.058594 C 592.40625 304.507812 574.34375 295.585938 542.929688 297.511719 C 503.242188 299.941406 478.457031 325.484375 471.1875 371.585938 C 469.300781 383.554688 464.953125 396.210938 478.890625 404.882812 Z M 478.890625 404.882812 " fill-opacity="1" fill-rule="nonzero"/><path fill="#ffffff" d="M 567.171875 703.855469 C 563.425781 708.246094 558.652344 710.332031 553.589844 712.757812 C 550.433594 714.269531 548.957031 715.691406 548.140625 719.167969 C 547.386719 722.363281 546.765625 725.585938 546.078125 728.800781 C 540.257812 756.132812 534.414062 783.457031 528.546875 810.777344 C 528.492188 811.035156 528.425781 811.269531 528.335938 811.492188 L 465.496094 811.492188 C 471.363281 792.398438 485.429688 749.992188 488.085938 738.660156 C 489.714844 731.710938 492.574219 723.835938 492.34375 716.640625 C 492.117188 709.5625 485.902344 704.109375 483.648438 697.652344 C 480.007812 687.273438 484.496094 674.019531 495.175781 669.867188 C 501.199219 667.511719 508.011719 668.609375 513.140625 672.109375 C 515.785156 659.8125 521.730469 648.1875 536.085938 647.089844 C 544.113281 646.476562 551.363281 651.480469 553.683594 659.1875 C 554.867188 663.097656 554.8125 667.15625 554.097656 671.160156 C 559.183594 670.644531 564.589844 672.394531 568.101562 676.433594 C 575.085938 684.453125 573.789062 696.097656 567.171875 703.855469 " fill-opacity="1" fill-rule="nonzero"/><path fill="#ffffff" d="M 537.230469 705.375 C 536.308594 704.875 532.839844 704.460938 532.355469 703.644531 C 532.074219 703.175781 533.007812 699.363281 533.082031 698.605469 C 533.214844 697.253906 533.460938 695.851562 533.265625 694.496094 C 532.550781 689.511719 526.996094 689.398438 523.585938 691.789062 C 520.980469 693.613281 519.96875 696.816406 518.128906 699.265625 C 516.976562 699.351562 515.800781 699.320312 514.914062 699.433594 C 512.335938 699.769531 509.726562 700.558594 507.90625 702.523438 C 504.542969 706.148438 505.445312 712.089844 510.136719 713.992188 C 512.320312 714.882812 514.800781 714.726562 517.097656 714.441406 C 520.300781 714.039062 522.234375 713.265625 525.179688 714.980469 C 529.515625 717.511719 534.929688 720.332031 539.121094 715.742188 C 542.191406 712.375 541.113281 707.480469 537.230469 705.375 " fill-opacity="1" fill-rule="nonzero"/><path fill="#ffffff" d="M 511.253906 683.015625 C 508.984375 679.15625 503.320312 677.96875 500.382812 681.785156 C 499.261719 683.242188 498.878906 685.148438 499.523438 686.863281 C 499.546875 686.953125 499.558594 687.03125 499.582031 687.121094 C 499.832031 687.996094 500.261719 688.894531 500.757812 689.65625 C 502.109375 691.746094 503.988281 693.203125 506.527344 693.378906 C 509.078125 693.554688 511.386719 691.734375 512.125 689.355469 C 512.773438 687.273438 512.351562 684.875 511.253906 683.015625 " fill-opacity="1" fill-rule="nonzero"/><path fill="#ffffff" d="M 542.179688 673.070312 C 542.175781 673 542.183594 672.933594 542.179688 672.867188 C 542.101562 671.882812 541.765625 670.988281 541.222656 670.234375 C 540.820312 669.632812 540.296875 669.132812 539.625 668.800781 C 539.578125 668.769531 539.535156 668.734375 539.488281 668.710938 C 538.148438 667.984375 536.550781 667.871094 535.113281 668.332031 C 533.496094 668.855469 532.5 670.109375 531.554688 671.4375 C 529.882812 673.796875 528.878906 677.023438 530.324219 679.746094 C 531.898438 682.714844 535.289062 683.164062 537.992188 681.5 C 539.964844 680.285156 541.433594 678.226562 541.996094 675.988281 C 542.21875 675.097656 542.289062 674.070312 542.179688 673.070312 " fill-opacity="1" fill-rule="nonzero"/><path fill="#ffffff" d="M 556.574219 691.105469 C 555.542969 690.1875 554.269531 689.882812 553 689.988281 C 549.890625 689.851562 546.484375 691.773438 544.976562 694.363281 C 543.675781 696.589844 543.851562 699.421875 545.765625 701.238281 C 547.65625 703.03125 550.445312 702.929688 552.640625 701.824219 C 556.355469 699.957031 560.730469 694.800781 556.574219 691.105469 " fill-opacity="1" fill-rule="nonzero"/><path fill="#ffffff" d="M 352.023438 811.492188 L 286.851562 811.492188 C 286.820312 811.417969 286.792969 811.34375 286.773438 811.269531 C 277.898438 784.761719 269.054688 758.257812 260.230469 731.75 C 259.195312 728.636719 258.214844 725.496094 257.109375 722.40625 C 255.90625 719.039062 254.289062 717.792969 250.984375 716.640625 C 245.679688 714.785156 240.707031 713.25 236.496094 709.300781 C 229.058594 702.328125 226.472656 690.90625 232.523438 682.15625 C 235.5625 677.757812 240.730469 675.410156 245.851562 675.351562 C 244.707031 671.453125 244.191406 667.433594 244.933594 663.417969 C 246.378906 655.496094 253.03125 649.714844 261.074219 649.4375 C 275.460938 648.929688 282.65625 659.8125 286.667969 671.742188 C 291.367188 667.695312 298.011719 665.855469 304.265625 667.511719 C 315.335938 670.464844 321.273438 683.140625 318.8125 693.847656 C 317.285156 700.519531 311.714844 706.625 312.28125 713.683594 C 312.851562 720.871094 316.570312 728.375 318.960938 735.09375 C 323.070312 746.65625 344.574219 793.863281 352.023438 811.492188 " fill-opacity="1" fill-rule="nonzero"/><path fill="#ffffff" d="M 263.492188 714.113281 C 267.554688 718.824219 273.042969 716.148438 277.449219 713.742188 C 280.4375 712.105469 282.351562 712.933594 285.546875 713.425781 C 287.832031 713.773438 290.304688 714 292.515625 713.167969 C 297.253906 711.394531 298.324219 705.484375 295.0625 701.769531 C 293.292969 699.75 290.707031 698.886719 288.140625 698.480469 C 287.257812 698.339844 286.078125 698.339844 284.929688 698.230469 C 283.164062 695.726562 282.238281 692.5 279.683594 690.597656 C 276.339844 688.117188 270.785156 688.078125 269.929688 693.039062 C 269.699219 694.390625 269.910156 695.800781 270 697.152344 C 270.054688 697.910156 270.882812 701.753906 270.589844 702.210938 C 270.082031 703.011719 266.601562 703.332031 265.667969 703.804688 C 261.730469 705.804688 260.511719 710.664062 263.492188 714.113281 " fill-opacity="1" fill-rule="nonzero"/><path fill="#ffffff" d="M 291.207031 688.488281 C 291.882812 690.882812 294.136719 692.769531 296.691406 692.664062 C 299.234375 692.554688 301.152344 691.15625 302.5625 689.105469 C 303.078125 688.351562 303.53125 687.46875 303.808594 686.601562 C 303.835938 686.515625 303.847656 686.429688 303.871094 686.34375 C 304.5625 684.644531 304.234375 682.730469 303.152344 681.242188 C 300.320312 677.34375 294.628906 678.378906 292.25 682.171875 C 291.105469 684 290.617188 686.386719 291.207031 688.488281 " fill-opacity="1" fill-rule="nonzero"/><path fill="#ffffff" d="M 261.613281 671.375 C 261.617188 671.304688 261.613281 671.246094 261.621094 671.175781 C 261.722656 670.195312 262.085938 669.308594 262.652344 668.566406 C 263.066406 667.976562 263.609375 667.492188 264.285156 667.175781 C 264.332031 667.148438 264.378906 667.121094 264.425781 667.09375 C 265.785156 666.402344 267.382812 666.335938 268.808594 666.839844 C 270.40625 667.402344 271.375 668.683594 272.277344 670.039062 C 273.886719 672.441406 274.800781 675.699219 273.28125 678.378906 C 271.625 681.300781 268.222656 681.65625 265.566406 679.917969 C 263.628906 678.652344 262.21875 676.550781 261.714844 674.296875 C 261.519531 673.402344 261.476562 672.375 261.613281 671.375 " fill-opacity="1" fill-rule="nonzero"/><path fill="#ffffff" d="M 250.359375 699.832031 C 252.523438 701 255.308594 701.175781 257.25 699.433594 C 259.214844 697.671875 259.464844 694.847656 258.230469 692.582031 C 256.792969 689.953125 253.445312 687.941406 250.332031 687.988281 C 249.0625 687.847656 247.78125 688.117188 246.730469 689.003906 C 242.472656 692.589844 246.695312 697.863281 250.359375 699.832031 " fill-opacity="1" fill-rule="nonzero"/><g clip-path="url(#1799ebfc20)"><g clip-path="url(#f5326370ac)"><g clip-path="url(#dd1307f047)"><path fill="#f9fdfe" d="M 224.378906 277.625 C 214.964844 275.03125 204.90625 292.734375 201.960938 285.492188 L 185.902344 297.859375 L 162.335938 85.773438 L 361.933594 160.410156 L 347.332031 171.753906 C 354.621094 177.332031 330.148438 183.714844 335.242188 191.5 L 380.230469 156.554688 L 154.007812 74.683594 L 177.40625 314.113281 Z M 224.378906 277.625 " fill-opacity="1" fill-rule="evenodd"/></g></g></g><g clip-path="url(#7f279263be)"><g clip-path="url(#67bf7df563)"><g clip-path="url(#be277207ce)"><path fill="#f9fdfe" d="M 452.621094 187.054688 C 451.542969 177.347656 431.375 174.558594 437.011719 169.144531 L 419.578125 158.804688 L 607.871094 58.394531 L 612.429688 271.445312 L 596.488281 262.078125 C 594.003906 270.914062 579.015625 250.542969 573.667969 258.160156 L 622.785156 287.011719 L 615.09375 46.550781 L 401.332031 156.925781 Z M 452.621094 187.054688 " fill-opacity="9" fill-rule="evenodd"/></g></g></g></svg>